<?xml version="1.0" standalone="no"?>
<!DOCTYPE svg PUBLIC "-//W3C//DTD SVG 1.1//EN" "http://www.w3.org/Graphics/SVG/1.1/DTD/svg11.dtd" >
<svg>
<metadata>
Created by FontForge 20090622 at Wed May  2 12:34:41 2018
 By deploy user
Copyright (c) 2010, 2011 by Daniel Johnson. Released under the terms of the SIL Open Font License v1.1.
</metadata>
<defs>
<font id="Judson-Regular" horiz-adv-x="0" >
  <font-face 
    font-family="Judson"
    font-weight="400"
    font-stretch="normal"
    units-per-em="1000"
    panose-1="2 0 6 3 0 0 0 0 0 0"
    ascent="800"
    descent="-200"
    x-height="440"
    cap-height="585"
    bbox="-515 -248 975 902"
    underline-thickness="50"
    underline-position="-100"
    unicode-range="U+0020-U+FB04"
  />
<missing-glyph horiz-adv-x="500" 
d="M50 0v533h400v-533h-400zM100 50h300v433h-300v-433z" />
    <glyph glyph-name=".notdef" horiz-adv-x="500" 
d="M50 0v533h400v-533h-400zM100 50h300v433h-300v-433z" />
    <glyph glyph-name=".null" 
 />
    <glyph glyph-name="nonmarkingreturn" horiz-adv-x="333" 
 />
    <glyph glyph-name="space" unicode=" " horiz-adv-x="240" 
 />
    <glyph glyph-name="exclam" unicode="!" horiz-adv-x="235" 
d="M58 51q0 24 16.5 43.5t42.5 19.5q23 0 42 -18t19 -42t-17 -44t-43 -20q-23 0 -41.5 18.5t-18.5 42.5zM117 186q-15 0 -23 68q-3 19 -14.5 157t-11.5 174q0 22 13.5 33.5t35.5 11.5t35.5 -11.5t13.5 -33.5q0 -36 -11.5 -175t-14.5 -156q-8 -68 -23 -68z" />
    <glyph glyph-name="quotedbl" unicode="&#x22;" horiz-adv-x="332" 
d="M86 408q-15 0 -31 94q-14 98 -14 118q0 45 45 45t45 -45q0 -27 -14 -118q-16 -94 -31 -94zM246 408q-15 0 -31 94q-14 98 -14 118q0 45 45 45t45 -45q0 -27 -14 -118q-16 -94 -31 -94z" />
    <glyph glyph-name="numbersign" unicode="#" horiz-adv-x="486" 
d="M438 230v-34h-115l-27 -196h-35l27 196h-125l-27 -196h-35l27 196h-95v34h100l18 126h-103v34h108l27 195h35l-27 -195h125l27 195h35l-27 -195h102v-34h-107l-18 -126h110zM168 230h125l18 126h-125z" />
    <glyph glyph-name="dollar" unicode="$" horiz-adv-x="455" 
d="M240 353q38 -21 53.5 -30.5t46.5 -32t45 -40t26.5 -45t12.5 -57.5q0 -74 -54.5 -115.5t-129.5 -42.5v-26h-30v27q-42 4 -82.5 17.5t-59.5 25.5l-19 12v93h22q19 -105 139 -114v231q-39 23 -56.5 34.5t-47.5 36.5t-43 52.5t-13 60.5q0 59 47.5 106t112.5 49v25h30v-26
q34 -4 67 -17.5t49 -24.5l15 -12v-82h-22q-6 40 -33 68t-76 34v-207zM210 371v190q-42 -2 -63.5 -30.5t-21.5 -58.5q0 -31 21.5 -53.5t63.5 -47.5zM240 239v-215q102 3 102 96q0 38 -26 64t-76 55z" />
    <glyph glyph-name="percent" unicode="%" horiz-adv-x="544" 
d="M461 565l-337 -545h-40l337 545h40zM92 466q0 -34 14.5 -61t31.5 -27t31.5 27.5t14.5 60.5q0 34 -14.5 61t-31.5 27t-31.5 -27t-14.5 -61zM31 466q0 51 32.5 86.5t74.5 35.5t74.5 -35.5t32.5 -86.5t-32.5 -86.5t-74.5 -35.5t-74.5 35.5t-32.5 86.5zM360 119
q0 -34 14.5 -61t31.5 -27t31.5 27t14.5 61t-14.5 61t-31.5 27t-31.5 -27t-14.5 -61zM299 119q0 51 32.5 86.5t74.5 35.5t74.5 -35.5t32.5 -86.5t-32.5 -86.5t-74.5 -35.5t-74.5 35.5t-32.5 86.5z" />
    <glyph glyph-name="ampersand" unicode="&#x26;" horiz-adv-x="605" 
d="M285 560q-32 0 -42 -22.5t-10 -71.5q0 -40 24 -109q76 54 76 112q0 37 -12.5 64t-35.5 27zM566 345v-21q-57 0 -63 -19q-46 -147 -96 -215q43 -46 71 -46q38 0 52.5 7t30.5 30l12 -10q-14 -38 -37 -59.5t-66 -21.5q-57 0 -113 46q-57 -46 -132 -46q-205 0 -205 137
q0 31 13 57.5t41.5 50.5t50 38.5t61.5 38.5q-35 97 -35 162q0 121 114 121q49 0 79.5 -34.5t30.5 -79.5q0 -49 -27.5 -86t-76.5 -75q47 -116 115 -204q35 56 77 192q-10 16 -61 16v21h164zM334 57q-75 75 -131 212q-83 -63 -83 -119q0 -118 142 -118q39 0 72 25z" />
    <glyph glyph-name="quotesingle" unicode="'" horiz-adv-x="172" 
d="M86 408q-15 0 -31 94q-14 98 -14 118q0 45 45 45t45 -45q0 -27 -14 -118q-16 -94 -31 -94z" />
    <glyph glyph-name="parenleft" unicode="(" horiz-adv-x="243" 
d="M40 315q0 185 136 354q9 11 16 11q9 0 9 -11q0 -3 -2 -9q-1 -2 -10 -22t-11.5 -26.5l-10.5 -27t-11.5 -32.5t-9.5 -34.5t-9 -42.5t-6.5 -46t-5 -54.5t-1.5 -59.5q0 -40 2 -75.5t8 -67l10 -52.5t14 -48.5l13.5 -37t15 -36t12.5 -28.5q2 -6 2 -9q0 -11 -9 -11q-7 0 -16 11
q-136 169 -136 354z" />
    <glyph glyph-name="parenright" unicode=")" horiz-adv-x="243" 
d="M203 315q0 -185 -136 -354q-9 -11 -16 -11q-9 0 -9 11q0 3 2 9q1 2 10 22t11.5 26.5l10.5 27t11.5 32.5t9.5 34.5t9 42.5t6.5 46t5 54.5t1.5 59.5q0 40 -2 75.5t-8 67l-10 52.5t-14 48.5l-13.5 37t-15 36t-12.5 28.5q-2 6 -2 9q0 11 9 11q7 0 16 -11q136 -169 136 -354z
" />
    <glyph glyph-name="asterisk" unicode="*" horiz-adv-x="360" 
d="M128 358q-18 0 -34.5 15t-16.5 31q0 10 6 19q6 8 37 23t42 16q-9 8 -9 19q0 1 0.5 3t0.5 3q-8 -5 -35.5 -11t-43.5 -6q-15 0 -23 10.5t-8 24.5q0 20 12 36t28 16q2 0 10 -2q10 -3 33.5 -27.5t27.5 -35.5q7 13 22 15q-8 6 -25 37t-17 41q0 16 12.5 25.5t31.5 9.5
t31.5 -9.5t12.5 -25.5q0 -10 -17 -41t-25 -37q16 -2 22 -16q2 9 27 35t35 29q8 2 11 2q15 0 27 -15.5t12 -35.5q0 -14 -8 -25t-23 -11q-17 0 -45 6t-35 11q1 -2 1 -6q0 -10 -9 -19q11 0 43 -15.5t38 -23.5q6 -9 6 -18q0 -17 -17 -32t-36 -15q-16 0 -25 13q-5 6 -9 32t-4 45
q0 9 1 11q-5 -4 -14 -4q-7 0 -13 3q1 -3 1 -12q0 -58 -13 -75q-10 -13 -26 -13z" />
    <glyph glyph-name="plus" unicode="+" horiz-adv-x="404" 
d="M224 296v-141h-44v141h-141v44h141v141h44v-141h141v-44h-141z" />
    <glyph glyph-name="comma" unicode="," horiz-adv-x="230" 
d="M101 -6q-22 0 -36.5 13t-14.5 36q0 27 19 42t38 15q36 0 58.5 -31.5t22.5 -74.5q0 -84 -124 -123v28q25 3 51.5 27.5t26.5 55.5q0 18 -2 21.5t-8 3.5q-3 0 -11.5 -6.5t-19.5 -6.5z" />
    <glyph glyph-name="hyphen" unicode="-" horiz-adv-x="388" 
d="M62 340h264v-44h-264v44z" />
    <glyph glyph-name="period" unicode="." horiz-adv-x="220" 
d="M50 51q0 24 16.5 43.5t42.5 19.5q23 0 42 -18t19 -42t-17 -44t-43 -20q-23 0 -41.5 18.5t-18.5 42.5z" />
    <glyph glyph-name="slash" unicode="/" horiz-adv-x="458" 
d="M20 -10l389 622l29 -18l-389 -622z" />
    <glyph glyph-name="zero" unicode="0" horiz-adv-x="490" 
d="M124 292q0 -107 34.5 -189t86.5 -82t86.5 82t34.5 189t-34.5 189.5t-86.5 82.5t-86.5 -82.5t-34.5 -189.5zM34 292q0 127 56.5 215t154.5 88t154.5 -88t56.5 -215t-56.5 -214.5t-154.5 -87.5t-154.5 87.5t-56.5 214.5z" />
    <glyph glyph-name="one" unicode="1" horiz-adv-x="490" 
d="M322 585v-524q0 -21 40 -30.5t83 -9.5v-21h-338v21q43 0 83 9.5t40 30.5v383q-42 -25 -106 -73l-7 17l178 197h27z" />
    <glyph glyph-name="two" unicode="2" horiz-adv-x="490" 
d="M40 0q0 11 29.5 42.5l71.5 73.5t83.5 90t71 104t29.5 104q0 46 -25.5 83.5t-73.5 37.5q-41 0 -72 -10t-46.5 -24t-25.5 -28t-15.5 -24t-8.5 -10q-8 0 -8 10q0 11 10 33t30 48.5t59 45.5t88 19q93 0 139.5 -48.5t46.5 -119.5q0 -41 -41 -101.5t-90.5 -110.5l-90.5 -93
t-41 -52h211q41 18 59 63h20l-38 -133h-372z" />
    <glyph glyph-name="three" unicode="3" horiz-adv-x="490" 
d="M212 291q-7 0 -13 4t-6 9q0 4 7 7q52 16 90.5 48.5t38.5 86.5q0 41 -28 65t-79 24q-41 0 -70 -12t-39.5 -27t-18 -27t-11.5 -12q-8 0 -8 10q0 11 9 30t26.5 42t50 39.5t72.5 16.5q96 0 139 -34t43 -102q0 -72 -97 -128q49 -12 86.5 -60.5t37.5 -98.5q0 -39 -8.5 -69.5
t-30 -57t-64 -41t-103.5 -14.5q-41 0 -78 10t-60 24t-36.5 27.5t-13.5 20.5q0 30 7.5 42t28.5 12q10 0 17 -11t14 -26.5t18 -31t36 -26.5t61 -11q129 0 129 132q0 26 -8 57t-32 59t-58 28q-12 0 -25.5 -2.5t-23.5 -2.5z" />
    <glyph glyph-name="four" unicode="4" horiz-adv-x="490" 
d="M366 585v-379h81v-30h-81v-135q9 -20 63 -20v-21h-216v21q54 0 63 20v135h-237l275 409h52zM276 206v269l-182 -269h182z" />
    <glyph glyph-name="five" unicode="5" horiz-adv-x="490" 
d="M142 387q161 0 230.5 -54.5t69.5 -136.5q0 -39 -9 -73t-29 -65.5t-60 -49.5t-96 -18q-62 0 -111 17.5t-69 35.5t-20 29q0 30 7.5 42t28.5 12q10 0 16.5 -11t13.5 -26.5t19 -31t40 -26.5t69 -11q33 0 57.5 16t36.5 41.5t17.5 50t5.5 48.5q0 172 -257 172l33 237h279
l-24 -70h-230z" />
    <glyph glyph-name="six" unicode="6" horiz-adv-x="490" 
d="M249 336q-65 0 -100 -23q-6 -42 -6 -89q0 -104 30.5 -153t77.5 -49q43 0 69.5 48.5t26.5 125.5q0 34 -7.5 63.5t-31 53t-59.5 23.5zM154 346q41 24 93 24q108 0 149 -47t41 -135q0 -92 -49 -145t-137 -53q-95 0 -146.5 65t-51.5 169q0 84 29 156.5t73.5 118t91.5 72.5
t88 32l12 -18q-74 -19 -124 -80t-69 -159z" />
    <glyph glyph-name="seven" unicode="7" horiz-adv-x="490" 
d="M181 11q0 51 43.5 165.5t87.5 216t44 122.5h-219q-41 -18 -59 -63h-20l38 133h336q0 -15 -45 -123.5t-89.5 -242t-44.5 -208.5q0 -10 -12 -15.5t-25 -5.5q-35 0 -35 21z" />
    <glyph glyph-name="eight" unicode="8" horiz-adv-x="490" 
d="M275 324q84 46 84 141q0 47 -27 72.5t-67 25.5q-110 0 -110 -105q0 -22 19 -46.5t39.5 -41t61.5 -46.5zM306 301q61 -46 95 -87.5t34 -90.5q0 -57 -53 -95t-137 -38q-90 0 -140 38.5t-50 102.5q0 103 122 170q-110 86 -110 164q0 55 48.5 92.5t130.5 37.5
q89 0 134.5 -36.5t45.5 -101.5q0 -95 -120 -156zM208 277q-86 -51 -86 -154q0 -42 32 -71.5t72 -29.5q57 0 89 29.5t32 78.5q0 8 -2 16.5t-7.5 17t-11 15.5t-15 16.5l-16.5 16t-20.5 16.5l-21 15.5l-23 17z" />
    <glyph glyph-name="nine" unicode="9" horiz-adv-x="490" 
d="M241 249q65 0 100 23q6 42 6 89q0 104 -30.5 153t-77.5 49q-43 0 -69.5 -48.5t-26.5 -125.5q0 -34 7.5 -63.5t31 -53t59.5 -23.5zM336 239q-41 -24 -93 -24q-108 0 -149 47t-41 135q0 92 49 145t137 53q95 0 146.5 -65.5t51.5 -168.5q0 -84 -29 -156.5t-73.5 -118
t-91.5 -72.5t-88 -32l-12 18q74 19 124 80t69 159z" />
    <glyph glyph-name="colon" unicode=":" horiz-adv-x="244" 
d="M62 381q0 24 16.5 43.5t42.5 19.5q23 0 42 -18t19 -42t-17 -44t-43 -20q-23 0 -41.5 18.5t-18.5 42.5zM62 51q0 24 16.5 43.5t42.5 19.5q23 0 42 -18t19 -42t-17 -44t-43 -20q-23 0 -41.5 18.5t-18.5 42.5z" />
    <glyph glyph-name="semicolon" unicode=";" horiz-adv-x="262" 
d="M71 381q0 24 16.5 43.5t42.5 19.5q23 0 42 -18t19 -42t-17 -44t-43 -20q-23 0 -41.5 18.5t-18.5 42.5zM115 -6q-22 0 -36.5 13t-14.5 36q0 27 19 42t38 15q36 0 58.5 -31.5t22.5 -74.5q0 -84 -124 -123v28q25 3 51.5 27.5t26.5 55.5q0 18 -2 21.5t-8 3.5q-3 0 -11.5 -6.5
t-19.5 -6.5z" />
    <glyph glyph-name="less" unicode="&#x3c;" horiz-adv-x="465" 
d="M30 340l368 172v-40l-330 -154l330 -154v-40l-368 172v44z" />
    <glyph glyph-name="equal" unicode="=" horiz-adv-x="484" 
d="M65 280h354v-44h-354v44zM65 400h354v-44h-354v44z" />
    <glyph glyph-name="greater" unicode="&#x3e;" horiz-adv-x="465" 
d="M435 296l-368 -172v40l330 154l-330 154v40l368 -172v-44z" />
    <glyph glyph-name="question" unicode="?" horiz-adv-x="394" 
d="M122 51q0 24 16.5 43.5t42.5 19.5q23 0 42 -18t19 -42t-17 -44t-43 -20q-23 0 -41.5 18.5t-18.5 42.5zM167 200q0 38 16.5 74.5t36 62t36 64t16.5 79.5q0 63 -22 91.5t-73 28.5q-38 0 -63 -23t-25 -48q0 -12 7.5 -25.5t7.5 -24.5q0 -15 -9.5 -24.5t-23.5 -9.5
q-17 0 -29.5 12.5t-12.5 38.5q0 51 41 92.5t117 41.5q92 0 133.5 -47.5t41.5 -107.5q0 -39 -26.5 -80.5t-58 -71t-58 -63.5t-26.5 -60q0 -5 -4.5 -9.5t-8.5 -4.5t-8.5 4.5t-4.5 9.5z" />
    <glyph glyph-name="at" unicode="@" horiz-adv-x="626" 
d="M248 159q-38 0 -58.5 29t-20.5 71q0 66 45.5 122t95.5 56q59 0 75 -64l14 53h53l-59 -223q-1 -2 -1 -6q0 -15 23 -15q33 0 59 33.5t36 67.5t10 55q0 66 -15.5 111.5t-44 66.5t-57 29t-65.5 8q-101 0 -176.5 -71t-75.5 -194q0 -79 42 -140.5t98 -90t112 -28.5
q45 0 84.5 14t62.5 29.5t45.5 42.5t28.5 37.5l17 29.5l16 -8q-37 -84 -97 -134t-163 -50q-109 0 -198.5 83.5t-89.5 210.5q0 142 86 226.5t204 84.5q98 0 163 -64.5t65 -184.5q0 -27 -10.5 -59.5t-30 -65t-54 -54t-76.5 -21.5q-18 0 -34 12t-16 39q0 10 1 16
q-44 -54 -94 -54zM365 338q0 29 -13 49t-38 20q-37 0 -69 -43t-32 -94q0 -29 13 -48.5t38 -19.5q37 0 69 42t32 94z" />
    <glyph glyph-name="A" unicode="A" horiz-adv-x="546" 
d="M336 0v21q46 0 58 12l-56 153h-192l-52 -147q10 -18 62 -18v-21h-164v21q56 0 63 21l194 543h48l194 -543q7 -21 64 -21v-21h-219zM241 452l-83 -233h168z" />
    <glyph glyph-name="B" unicode="B" horiz-adv-x="558" 
d="M197 290v-256h85q140 0 140 136q0 47 -35 83.5t-117 36.5h-73zM197 551v-232h41q140 0 140 127q0 105 -152 105h-29zM42 0v21q54 0 63 20v503q-9 20 -63 20v21h184q125 0 188.5 -41t63.5 -97q0 -102 -106 -138q75 -17 112.5 -55.5t37.5 -82.5q0 -76 -60.5 -123.5
t-179.5 -47.5h-240z" />
    <glyph glyph-name="C" unicode="C" horiz-adv-x="562" 
d="M346 561q-86 0 -143 -71t-57 -184q0 -132 60 -207t144 -75q50 0 99 34.5t63 73.5l24 -12q-23 -55 -72.5 -92.5t-133.5 -37.5q-133 0 -210.5 86.5t-77.5 207.5q0 140 89.5 225.5t213.5 85.5q29 0 67 -15t44 -15q12 0 12 20h23l10 -127h-22q-7 45 -39.5 74t-93.5 29z" />
    <glyph glyph-name="D" unicode="D" horiz-adv-x="611" 
d="M42 0v21q54 0 63 20v503q-9 20 -63 20v21h230q133 0 214 -80.5t81 -210.5t-79 -212t-204 -82h-242zM197 556v-522h87q32 0 62.5 14.5t58.5 43.5t45 81t17 120q0 130 -58.5 196.5t-136.5 66.5h-75z" />
    <glyph glyph-name="E" unicode="E" horiz-adv-x="507" 
d="M42 0v21q54 0 63 20v503q-9 20 -63 20v21h403v-97h-21q0 54 -20 63h-207v-230h140q20 9 20 63h21v-160h-21q0 54 -20 63h-140v-253h228q25 11 45 63h20l-24 -97h-424z" />
    <glyph glyph-name="F" unicode="F" horiz-adv-x="470" 
d="M42 0v21q54 0 63 20v503q-9 20 -63 20v21h403v-97h-21q0 54 -20 63h-207v-230h140q20 9 20 63h21v-160h-21q0 54 -20 63h-140v-246q9 -20 63 -20v-21h-218z" />
    <glyph glyph-name="G" unicode="G" horiz-adv-x="617" 
d="M354 561q-86 0 -148 -80.5t-62 -194.5q0 -69 18 -122t48 -82.5t63 -43.5t67 -14q56 0 106 19v205q-9 20 -63 20v21h218v-21q-54 0 -63 -20v-168q-17 -32 -68.5 -61t-131.5 -29q-134 0 -216 87t-82 207q0 139 94 225t219 86q29 0 72 -15t49 -15q12 0 12 20h23l10 -127h-22
q-6 44 -44 73.5t-99 29.5z" />
    <glyph glyph-name="H" unicode="H" horiz-adv-x="650" 
d="M42 0v21q54 0 63 20v503q-9 20 -63 20v21h218v-21q-54 0 -63 -20v-223h256v223q-9 20 -63 20v21h218v-21q-54 0 -63 -20v-503q9 -20 63 -20v-21h-218v21q54 0 63 20v246h-256v-246q9 -20 63 -20v-21h-218z" />
    <glyph glyph-name="I" unicode="I" horiz-adv-x="302" 
d="M42 0v21q54 0 63 20v503q-9 20 -63 20v21h218v-21q-54 0 -63 -20v-503q9 -20 63 -20v-21h-218z" />
    <glyph glyph-name="J" unicode="J" horiz-adv-x="412" 
d="M323 172q0 -35 -8 -65t-25.5 -57.5t-51.5 -43.5t-81 -16q-71 0 -110.5 28.5t-39.5 61.5q0 23 12 36.5t31 13.5q18 0 31.5 -9t13.5 -26q0 -34 -25 -42q27 -27 77 -27q23 0 39 8.5t25 22t13.5 39t5.5 49t1 63.5v336q-9 20 -63 20v21h218v-21q-54 0 -63 -20v-372z" />
    <glyph glyph-name="K" unicode="K" horiz-adv-x="579" 
d="M42 0v21q54 0 63 20v503q-9 20 -63 20v21h216v-21q-54 0 -63 -20v-503q9 -20 63 -20v-21h-216zM391 0v21q23 0 37 3l-228 290l245 243q-14 7 -51 7v21h157v-21q-42 0 -62 -23l-201 -199l235 -305q16 -16 63 -16v-21h-195z" />
    <glyph glyph-name="L" unicode="L" horiz-adv-x="495" 
d="M42 0v21q54 0 63 20v503q-9 20 -63 20v21h218v-21q-54 0 -63 -20v-510h228q25 11 45 63h20l-24 -97h-424z" />
    <glyph glyph-name="M" unicode="M" horiz-adv-x="804" 
d="M42 0v21q54 0 63 20v503q-9 20 -63 20v21h146l213 -465l213 465h148v-21q-54 0 -63 -20v-503q9 -20 63 -20v-21h-218v21q54 0 63 20v449l-224 -490h-15l-229 496v-455q9 -20 63 -20v-21h-160z" />
    <glyph glyph-name="N" unicode="N" horiz-adv-x="637" 
d="M42 0v21q54 0 63 20v503q-9 20 -63 20v21h134l331 -409v368q-9 20 -63 20v21h160v-21q-54 0 -63 -20v-544h-9l-393 497v-456q9 -20 63 -20v-21h-160z" />
    <glyph glyph-name="O" unicode="O" horiz-adv-x="641" 
d="M144 300q0 -66 18.5 -126.5t61 -105t101.5 -44.5t99.5 42t57 98.5t16.5 119.5q0 65 -19 126.5t-61.5 106t-100.5 44.5q-45 0 -79.5 -24t-54 -63.5t-29.5 -83.5t-10 -90zM44 292q0 125 78 214t199 89t199 -89t78 -214t-78.5 -213.5t-198.5 -88.5q-122 0 -199.5 88
t-77.5 214z" />
    <glyph glyph-name="P" unicode="P" horiz-adv-x="538" 
d="M42 0v21q54 0 63 20v503q-9 20 -63 20v21h226q123 0 187.5 -47t64.5 -105q0 -75 -60 -121t-180 -46h-83v-225q9 -20 63 -20v-21h-218zM197 551v-251h83q77 0 108.5 30.5t31.5 101.5q0 119 -152 119h-71z" />
    <glyph glyph-name="Q" unicode="Q" horiz-adv-x="641" 
d="M44 292q0 125 78 214t199 89t199 -89t78 -214q0 -77 -31.5 -143.5t-87.5 -107.5l13.5 -26l14 -26t13.5 -21t16 -18.5t17 -10.5t21 -5q24 0 44 11.5t28 22.5l8 12l15 -11q-1 -3 -3.5 -7.5t-11 -17t-18.5 -22t-27 -17t-35 -7.5q-66 0 -103.5 28.5t-63.5 77.5
q-42 -14 -86 -14q-122 0 -199.5 88t-77.5 214zM231 61q40 -37 94 -37q37 0 65 15q-15 32 -29 47.5t-35 15.5q-56 0 -95 -41zM446 91q52 75 52 193q0 65 -19 126.5t-61.5 106t-100.5 44.5q-45 0 -79.5 -24t-54 -63.5t-29.5 -83.5t-10 -90q0 -140 70 -222q45 68 118 68
q69 0 114 -55z" />
    <glyph glyph-name="R" unicode="R" horiz-adv-x="581" 
d="M42 0v21q54 0 63 20v503q-9 20 -63 20v21h226q124 0 188 -45t64 -103q0 -55 -33 -96.5t-98 -60.5l133 -238q10 -21 66 -21v-21h-43q-70 0 -91 8t-42 44l-121 214h-94v-225q9 -20 63 -20v-21h-218zM197 551v-251h83q80 0 110 31t30 105q0 55 -33.5 85t-118.5 30h-71z" />
    <glyph glyph-name="S" unicode="S" horiz-adv-x="478" 
d="M249 -10q-49 0 -100 15t-53 15q-6 0 -14 -6t-8 -14h-23v139h22q11 -60 59.5 -87.5t110.5 -27.5q53 0 87 24t34 72q0 22 -9.5 40t-29 33.5t-37.5 26l-46.5 26t-43.5 24.5q-35 22 -52 33.5t-43.5 34.5t-38.5 48t-12 54q0 59 54 107t121 48q29 0 72 -15t49 -15q12 0 12 20
h23l10 -127h-22q-6 44 -44 73.5t-99 29.5q-46 0 -73.5 -29.5t-27.5 -59.5q0 -19 9 -35.5t28 -30.5t36 -24.5t45.5 -25.5t43.5 -24q41 -25 59 -37t46.5 -37t40 -51.5t11.5 -58.5q0 -74 -60 -116t-137 -42z" />
    <glyph glyph-name="T" unicode="T" horiz-adv-x="538" 
d="M18 585h502v-97h-21q0 54 -20 63h-164v-510q9 -20 63 -20v-21h-218v21q54 0 63 20v510h-164q-20 -9 -20 -63h-21v97z" />
    <glyph glyph-name="U" unicode="U" horiz-adv-x="618" 
d="M338 24q67 0 112.5 56t45.5 148v316q-9 20 -63 20v21h160v-21q-54 0 -63 -20v-296q0 -130 -57.5 -194t-144.5 -64q-240 0 -240 258v296q-9 20 -63 20v21h218v-21q-54 0 -63 -20v-310q0 -99 44 -154.5t114 -55.5z" />
    <glyph glyph-name="V" unicode="V" horiz-adv-x="544" 
d="M209 585v-21q-46 0 -58 -12l153 -419l147 413q-10 18 -62 18v21h164v-21q-56 0 -61 -16l-196 -548h-48l-194 543q-8 21 -64 21v21h219z" />
    <glyph glyph-name="W" unicode="W" horiz-adv-x="841" 
d="M506 585v-21q-46 0 -58 -12l153 -419l147 413q-10 18 -62 18v21h164v-21q-56 0 -63 -21l-194 -543h-48l-125 349l-124 -349h-48l-194 543q-8 21 -64 21v21h219v-21q-46 0 -58 -12l153 -418l96 271l-49 138q-7 21 -64 21v21h219z" />
    <glyph glyph-name="X" unicode="X" horiz-adv-x="519" 
d="M225 585v-21q-47 0 -58 -12l109 -191l119 187q-10 16 -61 16v21h164v-21q-49 0 -60 -17l-142 -221l163 -284q11 -21 64 -21v-21h-219v21q47 0 58 12l-119 209l-132 -205q10 -16 61 -16v-21h-164v21q50 0 64 22l150 234l-152 267q-11 20 -64 20v21h219z" />
    <glyph glyph-name="Y" unicode="Y" horiz-adv-x="563" 
d="M210 585v-21q-47 0 -58 -12l155 -271l160 265q-11 18 -62 18v21h164v-21q-42 0 -57 -13l-180 -299v-211q9 -20 63 -20v-21h-218v21q54 0 63 20v179l-185 324q-14 20 -64 20v21h219z" />
    <glyph glyph-name="Z" unicode="Z" horiz-adv-x="500" 
d="M449 0h-432l318 555h-243q-20 -9 -20 -63h-21v93h403l-318 -555h272q31 13 46 66h21z" />
    <glyph glyph-name="bracketleft" unicode="[" horiz-adv-x="288" 
d="M154 579v-699h116v-36h-196v771h196v-36h-116z" />
    <glyph glyph-name="backslash" unicode="\" horiz-adv-x="458" 
d="M438 -10l-29 -18l-389 622l29 18z" />
    <glyph glyph-name="bracketright" unicode="]" horiz-adv-x="288" 
d="M134 -120v699h-116v36h196v-771h-196v36h116z" />
    <glyph glyph-name="asciicircum" unicode="^" horiz-adv-x="456" 
d="M241 540l165 -196l-34 -28l-144 172l-144 -172l-34 28l164 196h27z" />
    <glyph glyph-name="underscore" unicode="_" horiz-adv-x="448" 
d="M42 -50h364v-44h-364v44z" />
    <glyph glyph-name="grave" unicode="`" horiz-adv-x="300" 
d="M166 662l74 -162h-26l-154 162h106z" />
    <glyph glyph-name="a" unicode="a" horiz-adv-x="483" 
d="M112 366q14 0 24.5 -10t10.5 -31q0 -17 -13.5 -26t-31.5 -9q-19 0 -31 13.5t-12 36.5q0 52 43 81t122 29q93 0 136.5 -46t43.5 -122v-198q0 -32 10.5 -47t25.5 -15q13 0 23.5 7t10.5 17h18q0 -28 -20.5 -41t-71.5 -13q-50 0 -71 41q-59 -43 -147 -43q-150 0 -150 122
q0 26 18.5 47t53.5 35t66 22.5t77.5 19t66.5 16.5q0 84 -22 123t-78 39q-90 0 -102 -48zM320 58q-6 22 -6 54v118q-11 -4 -37.5 -11t-43 -12t-39.5 -15t-36 -20t-23 -26.5t-10 -35.5q0 -48 18.5 -67t55.5 -19q66 0 121 34z" />
    <glyph glyph-name="b" unicode="b" horiz-adv-x="538" 
d="M68 559q-62 5 -63 5v23q19 0 74.5 21.5t78.5 21.5v-223q49 47 137 47q33 0 65.5 -11.5t65 -36t53 -72.5t20.5 -112q0 -112 -62.5 -172t-163.5 -60q-72 0 -119 38q-55 -38 -86 -38v569zM158 373v-314q40 -35 109 -35q55 0 96 52.5t41 145.5q0 88 -33 143t-86 55
q-84 0 -127 -47z" />
    <glyph glyph-name="c" unicode="c" horiz-adv-x="479" 
d="M272 420q-62 0 -100 -47t-38 -127q0 -85 47.5 -151.5t107.5 -66.5q87 0 140 66l24 -12q-29 -48 -75.5 -70t-122.5 -22q-38 0 -73 11.5t-69 38t-54 78.5t-20 124q0 87 61.5 147.5t161.5 60.5q79 0 122 -27t43 -79q0 -23 -12 -36.5t-31 -13.5q-18 0 -31.5 9t-13.5 26
q0 21 10.5 31t24.5 10q-13 50 -102 50z" />
    <glyph glyph-name="d" unicode="d" horiz-adv-x="537" 
d="M363 430v129l-63 5v23q19 0 74.5 21.5t78.5 21.5v-569l63 -5v-23q-19 0 -74.5 -21.5t-78.5 -21.5v33q-48 -33 -120 -33q-33 0 -65.5 11.5t-65 36t-53 72.5t-20.5 112q0 112 62.5 172t163.5 60q57 0 98 -24zM363 399q-36 21 -92 21q-55 0 -96 -53t-41 -145
q0 -61 35.5 -129.5t83.5 -68.5q66 0 110 32v343z" />
    <glyph glyph-name="e" unicode="e" horiz-adv-x="493" 
d="M134 241q1 -84 48.5 -148.5t106.5 -64.5q87 0 140 66l24 -12q-29 -48 -75.5 -70t-122.5 -22q-38 0 -73 11.5t-69 38t-54 78.5t-20 124q0 88 54.5 148t151.5 60q106 0 158 -59.5t52 -149.5h-321zM135 272h222q-6 72 -30.5 110t-85.5 38q-35 0 -67.5 -41t-38.5 -107z" />
    <glyph glyph-name="f" unicode="f" horiz-adv-x="271" 
d="M332 571q0 -17 -11.5 -27t-29.5 -10q-17 0 -25.5 10.5t-10 22.5t-9 22.5t-23.5 10.5q-19 0 -31.5 -29t-12.5 -83v-48h62v-30h-62v-369q9 -20 63 -20v-21h-216v21q54 0 63 20v369h-50v30h50v34q0 82 34 119t90 37q59 0 89 -18t30 -41z" />
    <glyph glyph-name="g" unicode="g" horiz-adv-x="520" 
d="M452 450v-421q0 -103 -49.5 -166t-144.5 -63q-85 0 -136.5 29t-51.5 61q0 23 12 36.5t31 13.5q18 0 31.5 -9t13.5 -26q0 -32 -25 -42q27 -27 115 -27q103 0 113 184q-46 -30 -118 -30q-33 0 -65.5 10.5t-65 34.5t-53 71.5t-20.5 111.5q0 112 62.5 172t163.5 60
q63 0 110 -32q51 32 77 32zM362 53v12v330q-36 21 -91 21t-96 -52.5t-41 -145.5q0 -88 33 -141t86 -53q66 0 109 29z" />
    <glyph glyph-name="h" unicode="h" horiz-adv-x="550" 
d="M21 0v21q54 0 63 20v518q-62 5 -63 5v23q19 0 74.5 21.5t78.5 21.5v-226q54 46 119 46q95 0 135.5 -31t40.5 -107v-271q9 -20 63 -20v-21h-216v21q54 0 63 20v278q0 97 -92 97q-63 0 -113 -44v-331q9 -20 63 -20v-21h-216z" />
    <glyph glyph-name="i" unicode="i" horiz-adv-x="268" 
d="M31 0v21q54 0 63 20v338q-62 5 -63 5v23q19 0 74.5 21.5t78.5 21.5v-409q9 -20 63 -20v-21h-216zM136 514q-22 0 -38.5 16.5t-16.5 42.5q0 23 14.5 40t37.5 17q22 0 39 -17t17 -43q0 -23 -15 -39.5t-38 -16.5z" />
    <glyph glyph-name="j" unicode="j" horiz-adv-x="243" 
d="M127 514q-22 0 -38.5 16.5t-16.5 42.5q0 23 14.5 40t37.5 17q22 0 39 -17t17 -43q0 -23 -15 -39.5t-38 -16.5zM85 379l-63 5v23q19 0 74.5 21.5t78.5 21.5v-494q0 -81 -38.5 -118.5t-95.5 -37.5q-130 0 -130 87q0 18 13.5 29t29.5 11t27.5 -11t11.5 -28q0 -14 -10 -24
q0 -17 14 -25.5t34 -8.5t37 29.5t17 82.5v437z" />
    <glyph glyph-name="k" unicode="k" horiz-adv-x="501" 
d="M21 0v21q54 0 63 20v518q-62 5 -63 5v23q19 0 74.5 21.5t78.5 21.5v-589q9 -20 63 -20v-21h-216zM310 0v21q24 0 38 3l-167 230l177 159q-15 6 -49 6v21h157v-21q-37 0 -54 -13l-142 -127l172 -239q14 -19 63 -19v-21h-195z" />
    <glyph glyph-name="l" unicode="l" horiz-adv-x="258" 
d="M21 0v21q54 0 63 20v518q-62 5 -63 5v23q19 0 74.5 21.5t78.5 21.5v-589q9 -20 63 -20v-21h-216z" />
    <glyph glyph-name="m" unicode="m" horiz-adv-x="823" 
d="M31 0v21q54 0 63 20v338q-62 5 -63 5v23q19 0 74.5 21.5t78.5 21.5v-45q53 45 111 45q120 0 154 -58q56 58 125 58q168 0 168 -114v-295q9 -20 63 -20v-21h-216v21q54 0 63 20v258q0 65 -19 91t-65 26q-59 0 -109 -48q4 -13 4 -32v-295q9 -20 63 -20v-21h-216v21
q54 0 63 20v258q0 65 -19 91t-65 26q-57 0 -105 -44v-331q9 -20 63 -20v-21h-216z" />
    <glyph glyph-name="n" unicode="n" horiz-adv-x="559" 
d="M31 0v21q54 0 63 20v338q-62 5 -63 5v23q19 0 74.5 21.5t78.5 21.5v-46q54 46 119 46q93 0 134.5 -34.5t41.5 -107.5v-267q9 -20 63 -20v-21h-216v21q54 0 63 20v274q0 101 -92 101q-63 0 -113 -44v-331q9 -20 63 -20v-21h-216z" />
    <glyph glyph-name="o" unicode="o" horiz-adv-x="545" 
d="M135 248q0 -114 43.5 -171t111.5 -57q54 0 87 48.5t33 124.5q0 226 -157 226q-53 0 -85.5 -50.5t-32.5 -120.5zM277 -10q-112 0 -175 65.5t-63 172.5q0 97 57 159.5t174 62.5q118 0 177 -62.5t59 -171.5q0 -97 -56.5 -161.5t-172.5 -64.5z" />
    <glyph glyph-name="p" unicode="p" horiz-adv-x="538" 
d="M22 -192v21q54 0 63 20v530l-63 5v23q19 0 74.5 21.5t78.5 21.5v-33q48 33 120 33q33 0 65.5 -11.5t65 -36t53 -72.5t20.5 -112q0 -111 -62 -169.5t-164 -58.5q-58 0 -98 22v-163q9 -20 63 -20v-21h-216zM175 44q38 -20 92 -20q55 0 96 51t41 143q0 61 -35.5 129.5
t-83.5 68.5q-69 0 -110 -32v-340z" />
    <glyph glyph-name="q" unicode="q" horiz-adv-x="523" 
d="M302 -192v21q54 0 63 20v174q-48 -33 -122 -33q-33 0 -65.5 10.5t-65 34.5t-53 71.5t-20.5 111.5q0 112 62.5 172t163.5 60q67 0 112 -33q52 33 78 33v-601q9 -20 63 -20v-21h-216zM365 55v338q-36 23 -94 23q-55 0 -96 -52.5t-41 -145.5q0 -88 33 -141t86 -53
q69 0 112 31z" />
    <glyph glyph-name="r" unicode="r" horiz-adv-x="395" 
d="M31 0v21q54 0 63 20v338q-62 5 -63 5v23q19 0 74.5 21.5t78.5 21.5v-44q50 44 99 44q45 0 75.5 -17t30.5 -38q0 -36 -40 -36q-21 0 -38 28.5t-39 28.5q-39 0 -88 -43v-332q9 -20 63 -20v-21h-216z" />
    <glyph glyph-name="s" unicode="s" horiz-adv-x="405" 
d="M207 20q28 0 61.5 18t33.5 54q0 58 -119 100q-29 10 -47.5 19t-40.5 25t-33 39t-11 54q0 56 41 88.5t99 32.5q34 0 69.5 -15t40.5 -15q12 0 12 20h23v-120h-22q-6 42 -40.5 71t-79.5 29q-32 0 -53.5 -15t-21.5 -41q0 -15 6 -27.5t12 -20t22.5 -16.5t25 -12.5t31 -11.5
l30.5 -11q52 -20 89 -56.5t37 -84.5q0 -61 -49 -97.5t-124 -36.5q-36 0 -70 17t-38 17q-6 0 -14 -8t-8 -16h-24v141h22q7 -51 47.5 -86t92.5 -35z" />
    <glyph glyph-name="t" unicode="t" horiz-adv-x="333" 
d="M180 585v-145h86v-30h-86v-318q0 -31 11 -47.5t41 -16.5q18 0 36.5 17.5t25.5 48.5l24 -12q-21 -92 -120 -92q-114 0 -114 110v310h-70v30q47 0 85 39t38 106h43z" />
    <glyph glyph-name="u" unicode="u" horiz-adv-x="550" 
d="M465 61l63 -5v-23q-19 0 -74.5 -21.5t-78.5 -21.5v46q-54 -46 -119 -46q-93 0 -134.5 34.5t-41.5 107.5v267q-9 20 -63 20v21h153v-315q0 -101 92 -101q63 0 113 44v331q-9 20 -63 20v21h153v-379z" />
    <glyph glyph-name="v" unicode="v" horiz-adv-x="483" 
d="M189 440v-21q-29 0 -42 -4l119 -293l114 286q-14 11 -56 11v21h164v-21q-55 0 -62 -19l-160 -400h-49l-159 399q-9 20 -63 20v21h194z" />
    <glyph glyph-name="w" unicode="w" horiz-adv-x="760" 
d="M189 440v-21q-29 0 -42 -4l119 -293l90 225l-21 52q-9 20 -63 20v21h194v-21q-29 0 -42 -4l119 -293l114 286q-14 11 -56 11v21h164v-21q-54 0 -62 -19l-160 -400h-49l-114 286l-114 -286h-49l-159 399q-9 20 -63 20v21h194z" />
    <glyph glyph-name="x" unicode="x" horiz-adv-x="467" 
d="M438 440v-21q-52 0 -67 -19l-98 -146l133 -214q11 -19 62 -19v-21h-194v21q24 0 38 3l-93 150l-98 -146q13 -7 50 -7v-21h-164v21q53 0 68 21l117 174l-116 187q-10 16 -59 16v21h194v-21q-24 0 -39 -3l74 -120l78 116q-13 7 -50 7v21h164z" />
    <glyph glyph-name="y" unicode="y" horiz-adv-x="483" 
d="M189 440v-21q-29 0 -42 -4l119 -293l114 286q-14 11 -56 11v21h164v-21q-54 0 -62 -18l-201 -503q-19 -47 -48.5 -68.5t-56.5 -21.5q-25 0 -39.5 13t-14.5 31q0 15 10.5 27t28.5 12q11 0 23 -8.5t18 -8.5q21 0 28 18l43 108l-159 399q-9 20 -63 20v21h194z" />
    <glyph glyph-name="z" unicode="z" horiz-adv-x="425" 
d="M387 0h-370l265 410h-192q-20 -9 -20 -63h-21v93h346l-265 -410h216q20 9 20 63h21v-93z" />
    <glyph glyph-name="braceleft" unicode="{" horiz-adv-x="262" 
d="M88 -61q0 26 4.5 110.5t4.5 100.5q0 34 -18 46.5t-57 12.5v23q38 0 56.5 13t18.5 47q0 16 -4.5 100t-4.5 110q0 92 146 92v-23q-39 0 -58 -13t-19 -47q0 -16 5.5 -100t5.5 -110q0 -59 -60 -80q60 -21 60 -80q0 -26 -5.5 -110.5t-5.5 -100.5q0 -34 19 -46.5t58 -12.5v-24
q-146 0 -146 92z" />
    <glyph glyph-name="bar" unicode="|" horiz-adv-x="188" 
d="M76 650h36v-680h-36v680z" />
    <glyph glyph-name="braceright" unicode="}" horiz-adv-x="262" 
d="M174 502q0 -26 -4.5 -110.5t-4.5 -100.5q0 -34 18 -46.5t57 -12.5v-23q-38 0 -56.5 -13t-18.5 -47q0 -16 4.5 -100t4.5 -110q0 -92 -146 -92v23q39 0 58 13t19 47q0 16 -5.5 100t-5.5 110q0 59 60 80q-60 21 -60 80q0 26 5.5 110.5t5.5 100.5q0 34 -19 46.5t-58 12.5v24
q146 0 146 -92z" />
    <glyph glyph-name="asciitilde" unicode="~" horiz-adv-x="545" 
d="M386 208q-29 0 -122.5 34.5t-111.5 34.5q-38 0 -52 -17t-14 -52h-26q0 132 102 132q29 0 123 -34.5t112 -34.5q38 0 52 17t14 52h26q0 -132 -103 -132z" />
    <glyph glyph-name="uni00A0" unicode="&#xa0;" horiz-adv-x="240" 
 />
    <glyph glyph-name="exclamdown" unicode="&#xa1;" horiz-adv-x="233" 
d="M176 469q0 -24 -16.5 -43.5t-42.5 -19.5q-23 0 -42 18t-19 42t17 44t43 20q23 0 41.5 -18.5t18.5 -42.5zM117 334q15 0 23 -68q3 -19 14.5 -157t11.5 -174q0 -22 -13.5 -33.5t-35.5 -11.5t-35.5 11.5t-13.5 33.5q0 36 11.5 175t14.5 156q8 68 23 68z" />
    <glyph glyph-name="cent" unicode="&#xa2;" horiz-adv-x="473" 
d="M290 573l36 -7l-21 -119q114 -16 114 -103q0 -23 -12 -36.5t-31 -13.5q-18 0 -31.5 9t-13.5 26q0 21 10.5 31t24.5 10q-11 40 -66 48l-66 -378q22 -12 47 -12q87 0 140 66l24 -12q-29 -48 -75.5 -70t-122.5 -22q-15 0 -22 1l-21 -119l-37 7l21 118q-68 17 -112.5 75.5
t-44.5 169.5q0 87 61.5 147.5t161.5 60.5h14zM200 64l63 356q-61 -1 -99 -48t-38 -126q0 -53 20.5 -102t53.5 -80z" />
    <glyph glyph-name="sterling" unicode="&#xa3;" horiz-adv-x="533" 
d="M343 72q44 0 75.5 9t44 20t21 20t10.5 9q10 0 10 -12q0 -5 -4.5 -17.5t-17 -31.5t-29 -36t-45 -29t-61.5 -12q-63 0 -124 53q-37 -55 -94 -55q-49 0 -74.5 27t-25.5 65q0 28 27.5 54t56.5 26q30 0 60 -15v5q0 30 -7.5 90.5t-8.5 102.5h-68v44h68q4 108 39.5 157t103.5 49
q66 0 108 -23t42 -64q0 -18 -13.5 -29t-29.5 -11t-27.5 11t-11.5 28q0 14 10 24q0 16 -22.5 25t-45.5 9q-62 0 -63 -176h106v-44h-105q1 -24 5 -77.5t4 -89.5q0 -44 -10 -78q47 -28 96 -28zM170 96q-32 32 -57 32q-19 0 -34.5 -14t-15.5 -33q0 -25 17.5 -41t44.5 -16
q36 0 45 72z" />
    <glyph glyph-name="currency" unicode="&#xa4;" horiz-adv-x="511" 
d="M113 262q0 -59 42 -101t101 -42t101 42t42 101t-42 101t-101 42t-101 -42t-42 -101zM107 147q-39 52 -39 115q0 65 41 117l-56 55l32 32l55 -56q51 40 116 40q63 0 115 -39l54 55l32 -32l-54 -54q41 -50 41 -118q0 -65 -40 -116l53 -52l-32 -32l-52 53q-52 -41 -117 -41
q-68 0 -118 41l-53 -53l-32 32z" />
    <glyph glyph-name="yen" unicode="&#xa5;" horiz-adv-x="541" 
d="M218 585v-21q-29 0 -42 -4l119 -293l114 286q-14 11 -56 11v21h164v-21q-55 0 -62 -19l-130 -325h79v-44h-85v-56h85v-44h-85v-35q9 -20 63 -20v-21h-218v21q54 0 63 20v35h-87v44h87v56h-87v44h76l-129 324q-9 20 -63 20v21h194z" />
    <glyph glyph-name="brokenbar" unicode="&#xa6;" horiz-adv-x="192" 
d="M78 650h36v-288h-36v288zM78 258h36v-288h-36v288z" />
    <glyph glyph-name="section" unicode="&#xa7;" horiz-adv-x="410" 
d="M310 458q-14 0 -25 11t-11 25q0 30 -16 56t-43 26q-73 0 -73 -60q0 -20 35.5 -61t78.5 -81.5t78.5 -90t35.5 -85.5q0 -123 -98 -156q72 -70 72 -126q0 -39 -45.5 -71.5t-111.5 -32.5q-45 0 -83 35.5t-38 62.5q0 16 9 28t25 12q14 0 25 -11t11 -25q0 -30 16 -56t43 -26
q73 0 73 60q0 20 -35.5 61t-78.5 81.5t-78.5 90t-35.5 85.5q0 123 98 156q-72 70 -72 126q0 39 45.5 71.5t111.5 32.5q45 0 83 -35.5t38 -62.5q0 -16 -9 -28t-25 -12zM244 69q66 20 66 71q0 14 -4 28t-8.5 25.5t-16 26.5l-18 24t-23 25l-23.5 22.5l-26.5 24.5t-24.5 23
q-66 -20 -66 -71q0 -14 4 -28t8.5 -25.5t16 -26.5l18 -24t23 -25l23.5 -22.5l26.5 -24.5t24.5 -23z" />
    <glyph glyph-name="dieresis" unicode="&#xa8;" horiz-adv-x="402" 
d="M244 549q0 20 14.5 34.5t34.5 14.5t34.5 -14.5t14.5 -34.5t-14.5 -34.5t-34.5 -14.5t-34.5 14.5t-14.5 34.5zM60 549q0 20 14.5 34.5t34.5 14.5t34.5 -14.5t14.5 -34.5t-14.5 -34.5t-34.5 -14.5t-34.5 14.5t-14.5 34.5z" />
    <glyph glyph-name="copyright" unicode="&#xa9;" horiz-adv-x="641" 
d="M72 268q0 -103 73 -176t176 -73t176 73t73 176t-73 176t-176 73t-176 -73t-73 -176zM45 268q0 114 81 195t195 81t195 -81t81 -195t-81 -195t-195 -81t-195 81t-81 195zM333 402q-41 0 -67.5 -34.5t-26.5 -88.5q0 -65 28.5 -100.5t67.5 -35.5q26 0 48.5 18t30.5 38
l21 -10q-28 -73 -110 -73q-69 0 -108.5 45t-39.5 107q0 73 46.5 117t109.5 44q13 0 25.5 -3.5t20.5 -7.5t9 -4t1 10h22l5 -74h-20q-10 52 -63 52z" />
    <glyph glyph-name="ordfeminine" unicode="&#xaa;" horiz-adv-x="363" 
d="M64 155h240v-26h-240v26zM116 412q16 -4 16 -25q0 -22 -28 -22q-13 0 -19.5 9t-6.5 21q0 30 23.5 45t63.5 15q49 0 72 -25t23 -64v-99q0 -26 13 -26q12 0 12 12h19q0 -21 -11.5 -29t-39.5 -8q-25 0 -37 18q-31 -19 -72 -19q-80 0 -80 66q0 15 9.5 26.5t28 19t33.5 12
t39 9.5t31 7q-1 41 -10.5 56.5t-34.5 15.5q-35 0 -44 -15zM207 256q-2 11 -2 25v52q-4 -1 -13 -3.5l-14 -4l-13 -4t-12.5 -5t-10.5 -5.5t-9 -6t-6.5 -7t-5 -8.5t-1.5 -9.5q0 -23 8 -30.5t24 -7.5q29 0 55 14z" />
    <glyph glyph-name="guillemotleft" unicode="&#xab;" horiz-adv-x="437" 
d="M52 324l162 94v-26l-87 -93l87 -93v-26l-162 94q-13 7 -13 25t13 25zM212 324l162 94v-26l-87 -93l87 -93v-26l-162 94q-13 7 -13 25t13 25z" />
    <glyph glyph-name="logicalnot" unicode="&#xac;" horiz-adv-x="424" 
d="M315 296h-250v44h292v-132h-42v88z" />
    <glyph glyph-name="uni00AD" unicode="&#xad;" horiz-adv-x="388" 
d="M62 340h264v-44h-264v44z" />
    <glyph glyph-name="registered" unicode="&#xae;" horiz-adv-x="641" 
d="M72 268q0 -103 73 -176t176 -73t176 73t73 176t-73 176t-176 73t-176 -73t-73 -176zM45 268q0 114 81 195t195 81t195 -81t81 -195t-81 -195t-195 -81t-195 81t-81 195zM189 122v20q26 0 31 7v249q-3 6 -31 6v20h118q64 0 97 -23.5t33 -54.5q0 -60 -63 -82l64 -114
q3 -8 33 -8v-20h-26q-36 0 -48 5t-23 24l-59 104h-39v-106q3 -7 31 -7v-20h-118zM276 398v-116h37q39 0 51.5 13.5t12.5 49.5q0 26 -15 39.5t-55 13.5h-31z" />
    <glyph glyph-name="macron" unicode="&#xaf;" horiz-adv-x="384" 
d="M60 558h264v-44h-264v44z" />
    <glyph glyph-name="degree" unicode="&#xb0;" horiz-adv-x="312" 
d="M83 516q0 -30 21.5 -51t51.5 -21t51.5 21t21.5 51t-21.5 51.5t-51.5 21.5t-51.5 -21.5t-21.5 -51.5zM42 516q0 46 34 80t80 34t80 -34t34 -80t-33.5 -79.5t-80.5 -33.5t-80.5 33.5t-33.5 79.5z" />
    <glyph glyph-name="plusminus" unicode="&#xb1;" horiz-adv-x="416" 
d="M65 178h286v-44h-286v44zM230 348v-101h-44v101h-121v44h121v101h44v-101h121v-44h-121z" />
    <glyph glyph-name="uni00B2" unicode="&#xb2;" horiz-adv-x="360" 
d="M263 336q26 10 38 43h22l-28 -99h-259v5q0 12 30 41.5t66.5 61.5t66.5 77t30 83q0 27 -16.5 44.5t-46.5 17.5q-35 0 -57.5 -10t-29.5 -22t-13.5 -22t-12.5 -10q-10 0 -10 11q0 26 34.5 64.5t96.5 38.5q67 0 98.5 -27.5t31.5 -75.5q0 -35 -37.5 -81.5t-85 -89.5t-52.5 -50
h134z" />
    <glyph glyph-name="uni00B3" unicode="&#xb3;" horiz-adv-x="354" 
d="M152 460q-7 0 -12.5 4t-5.5 9q0 9 8 9q53 16 67 30q17 16 17 42t-18 41t-50 15q-29 0 -47 -8.5t-23.5 -18t-11 -18t-11.5 -8.5q-10 0 -10 12q0 24 29.5 57.5t81.5 33.5q127 0 127 -97q0 -43 -49 -72q30 -12 48.5 -36t18.5 -53q0 -58 -31.5 -92t-111.5 -34q-37 0 -69 12
t-47 25.5t-15 22.5q0 23 6 32t22 9q11 0 18.5 -11t12.5 -24.5t22 -24.5t46 -11q82 0 82 82q0 28 -15.5 52t-45.5 24q-8 0 -17.5 -2t-15.5 -2z" />
    <glyph glyph-name="acute" unicode="&#xb4;" horiz-adv-x="300" 
d="M134 662h106l-154 -162h-26z" />
    <glyph glyph-name="uni00B5" unicode="&#xb5;" horiz-adv-x="580" 
d="M468 440v-357q0 -32 10.5 -47.5t25.5 -15.5q13 0 23.5 7.5t10.5 17.5h18q0 -29 -21 -42t-71 -13q-66 0 -81 71q-58 -71 -138 -71q-85 0 -126 34v-57q0 -29 10.5 -47t22.5 -24.5t22.5 -19t10.5 -31.5q0 -22 -15 -33.5t-35 -11.5q-21 0 -39.5 15.5t-18.5 50.5v574h90v-315
q0 -101 92 -101q63 0 119 72v15v329h90z" />
    <glyph glyph-name="paragraph" unicode="&#xb6;" horiz-adv-x="532" 
d="M127 0v21q54 0 63 20v227q-76 7 -118 50t-42 108q0 27 11.5 53.5t35.5 51t68.5 39.5t102.5 15h240v-21q-54 0 -63 -20v-503q9 -20 63 -20v-21h-155v551h-51v-551h-155z" />
    <glyph glyph-name="periodcentered" unicode="&#xb7;" horiz-adv-x="228" 
d="M54 301q0 24 16.5 43.5t42.5 19.5q23 0 42 -18t19 -42t-17 -44t-43 -20q-23 0 -41.5 18.5t-18.5 42.5z" />
    <glyph glyph-name="cedilla" unicode="&#xb8;" horiz-adv-x="304" 
d="M124 12h38l-18 -67q32 0 66 -16.5t34 -50.5q0 -77 -110 -77q-33 0 -74 7v17q18 -2 25 -2q38 0 55 14.5t17 32.5q0 44 -61 44z" />
    <glyph glyph-name="uni00B9" unicode="&#xb9;" horiz-adv-x="242" 
d="M40 508q3 6 17.5 31.5l23.5 40.5l22 35t22.5 30t15.5 10h18v-342q5 -10 43 -10v-23h-156v23q36 0 42 10v217q-7 -4 -31 -31z" />
    <glyph glyph-name="ordmasculine" unicode="&#xba;" horiz-adv-x="367" 
d="M62 155h243v-26h-243v26zM120 349q0 -57 20 -83t52 -26q25 0 40 22.5t15 58.5q0 108 -73 108q-24 0 -39 -24t-15 -56zM186 215q-59 0 -91.5 34.5t-32.5 89.5q0 51 30 83.5t90 32.5q62 0 92.5 -33.5t30.5 -88.5q0 -51 -29.5 -84.5t-89.5 -33.5z" />
    <glyph glyph-name="guillemotright" unicode="&#xbb;" horiz-adv-x="437" 
d="M225 274l-162 -94v26l87 93l-87 93v26l162 -94q13 -7 13 -25t-13 -25zM385 274l-162 -94v26l87 93l-87 93v26l162 -94q13 -7 13 -25t-13 -25z" />
    <glyph glyph-name="onequarter" unicode="&#xbc;" horiz-adv-x="650" 
d="M104 -10l389 622l29 -18l-389 -622zM566 375v-241h55v-29h-55v-72q6 -10 42 -10v-23h-154v23q37 0 42 10v72h-161l189 270h42zM496 134v150l-105 -150h105zM34 508q3 6 17.5 31.5l23.5 40.5l22 35t22.5 30t15.5 10h18v-342q5 -10 43 -10v-23h-156v23q36 0 42 10v217
q-7 -4 -31 -31z" />
    <glyph glyph-name="onehalf" unicode="&#xbd;" horiz-adv-x="678" 
d="M82 -10l389 622l29 -18l-389 -622zM589 56q26 10 38 43h22l-28 -99h-259v5q0 12 30 41.5t66.5 61.5t66.5 77t30 83q0 27 -16.5 44.5t-46.5 17.5q-35 0 -57.5 -10t-29.5 -22t-13.5 -22t-12.5 -10q-10 0 -10 11q0 26 34.5 64.5t96.5 38.5q67 0 98.5 -27.5t31.5 -75.5
q0 -35 -37.5 -81.5t-85 -89.5t-52.5 -50h134zM36 508q3 6 17.5 31.5l23.5 40.5l22 35t22.5 30t15.5 10h18v-342q5 -10 43 -10v-23h-156v23q36 0 42 10v217q-7 -4 -31 -31z" />
    <glyph glyph-name="threequarters" unicode="&#xbe;" horiz-adv-x="687" 
d="M150 -10l389 622l29 -18l-389 -622zM602 375v-241h55v-29h-55v-72q6 -10 42 -10v-23h-154v23q37 0 42 10v72h-161l189 270h42zM532 134v150l-105 -150h105zM144 460q-7 0 -12.5 4t-5.5 9q0 9 8 9q53 16 67 30q17 16 17 42t-18 41t-50 15q-29 0 -47 -8.5t-23.5 -18
t-11 -18t-11.5 -8.5q-10 0 -10 12q0 24 29.5 57.5t81.5 33.5q127 0 127 -97q0 -43 -49 -72q30 -12 48.5 -36t18.5 -53q0 -58 -31.5 -92t-111.5 -34q-37 0 -69 12t-47 25.5t-15 22.5q0 23 6 32t22 9q11 0 18.5 -11t12.5 -24.5t22 -24.5t46 -11q82 0 82 82q0 28 -15.5 52
t-45.5 24q-8 0 -17.5 -2t-15.5 -2z" />
    <glyph glyph-name="questiondown" unicode="&#xbf;" horiz-adv-x="394" 
d="M272 469q0 -24 -16.5 -43.5t-42.5 -19.5q-23 0 -42 18t-19 42t17 44t43 20q23 0 41.5 -18.5t18.5 -42.5zM227 320q0 -38 -16.5 -74.5t-36 -62t-36 -64t-16.5 -79.5q0 -63 22 -91.5t73 -28.5q38 0 63 23t25 48q0 12 -7.5 25.5t-7.5 24.5q0 15 9.5 24.5t23.5 9.5
q17 0 29.5 -12.5t12.5 -38.5q0 -51 -41 -92.5t-117 -41.5q-92 0 -133.5 47.5t-41.5 107.5q0 39 26.5 80.5t58 71t58 63.5t26.5 60q0 5 4.5 9.5t8.5 4.5t8.5 -4.5t4.5 -9.5z" />
    <glyph glyph-name="Agrave" unicode="&#xc0;" horiz-adv-x="546" 
d="M228 782l74 -162h-26l-154 162h106zM336 0v21q46 0 58 12l-56 153h-192l-52 -147q10 -18 62 -18v-21h-164v21q56 0 63 21l194 543h48l194 -543q7 -21 64 -21v-21h-219zM241 452l-83 -233h168z" />
    <glyph glyph-name="Aacute" unicode="&#xc1;" horiz-adv-x="546" 
d="M337 782h106l-154 -162h-26zM336 0v21q46 0 58 12l-56 153h-192l-52 -147q10 -18 62 -18v-21h-164v21q56 0 63 21l194 543h48l194 -543q7 -21 64 -21v-21h-219zM241 452l-83 -233h168z" />
    <glyph glyph-name="Acircumflex" unicode="&#xc2;" horiz-adv-x="546" 
d="M301 782l94 -162h-26l-93 87l-93 -87h-26l94 162h50zM336 0v21q46 0 58 12l-56 153h-192l-52 -147q10 -18 62 -18v-21h-164v21q56 0 63 21l194 543h48l194 -543q7 -21 64 -21v-21h-219zM241 452l-83 -233h168z" />
    <glyph glyph-name="Atilde" unicode="&#xc3;" horiz-adv-x="546" 
d="M351 620q-22 0 -81.5 29.5t-73.5 29.5q-28 0 -39 -14.5t-11 -44.5h-19q0 112 76 112q22 0 82 -29.5t74 -29.5q28 0 39 14.5t11 44.5h19q0 -112 -77 -112zM336 0v21q46 0 58 12l-56 153h-192l-52 -147q10 -18 62 -18v-21h-164v21q56 0 63 21l194 543h48l194 -543
q7 -21 64 -21v-21h-219zM241 452l-83 -233h168z" />
    <glyph glyph-name="Adieresis" unicode="&#xc4;" horiz-adv-x="546" 
d="M319 669q0 20 14.5 34.5t34.5 14.5t34.5 -14.5t14.5 -34.5t-14.5 -34.5t-34.5 -14.5t-34.5 14.5t-14.5 34.5zM135 669q0 20 14.5 34.5t34.5 14.5t34.5 -14.5t14.5 -34.5t-14.5 -34.5t-34.5 -14.5t-34.5 14.5t-14.5 34.5zM336 0v21q46 0 58 12l-56 153h-192l-52 -147
q10 -18 62 -18v-21h-164v21q56 0 63 21l194 543h48l194 -543q7 -21 64 -21v-21h-219zM241 452l-83 -233h168z" />
    <glyph glyph-name="Aring" unicode="&#xc5;" horiz-adv-x="546" 
d="M229 689q0 -19 13.5 -33t33.5 -14t33.5 14t13.5 33t-13.5 33t-33.5 14t-33.5 -14t-13.5 -33zM186 689q0 38 26 64t64 26t64 -26t26 -64t-26 -64t-64 -26t-64 26t-26 64zM336 0v21q46 0 58 12l-56 153h-192l-52 -147q10 -18 62 -18v-21h-164v21q56 0 63 21l194 543h48
l194 -543q7 -21 64 -21v-21h-219zM241 452l-83 -233h168z" />
    <glyph glyph-name="AE" unicode="&#xc6;" horiz-adv-x="757" 
d="M142 0h-164v21q51 0 63 20l287 512q-12 11 -57 11v21h424v-97h-21q0 54 -20 63h-207v-230h140q20 9 20 63h21v-160h-21q0 54 -20 63h-140v-253h228q25 11 45 63h20l-24 -97h-424v21q54 0 63 20v145h-193l-82 -147q10 -18 62 -18v-21zM181 219h174v311z" />
    <glyph glyph-name="Ccedilla" unicode="&#xc7;" horiz-adv-x="564" 
d="M348 561l-1 1q-86 0 -143 -71t-57 -184q0 -132 60 -207t144 -75q50 0 99 34.5t63 73.5l24 -12q-52 -125 -194 -130l-12 -45q32 0 66 -16.5t34 -50.5q0 -77 -110 -77q-33 0 -74 7v17q18 -2 25 -2q38 0 55 14.5t17 32.5q0 44 -61 44l22 77q-81 6 -141.5 49t-90 106
t-29.5 137q0 140 89.5 225.5t213.5 85.5q29 0 67 -15t44 -15q12 0 12 20h23l10 -127h-22q-7 45 -39.5 74t-93.5 29z" />
    <glyph glyph-name="Egrave" unicode="&#xc8;" horiz-adv-x="507" 
d="M220 782l74 -162h-26l-154 162h106zM42 0v21q54 0 63 20v503q-9 20 -63 20v21h403v-97h-21q0 54 -20 63h-207v-230h140q20 9 20 63h21v-160h-21q0 54 -20 63h-140v-253h228q25 11 45 63h20l-24 -97h-424z" />
    <glyph glyph-name="Eacute" unicode="&#xc9;" horiz-adv-x="507" 
d="M329 782h106l-154 -162h-26zM42 0v21q54 0 63 20v503q-9 20 -63 20v21h403v-97h-21q0 54 -20 63h-207v-230h140q20 9 20 63h21v-160h-21q0 54 -20 63h-140v-253h228q25 11 45 63h20l-24 -97h-424z" />
    <glyph glyph-name="Ecircumflex" unicode="&#xca;" horiz-adv-x="507" 
d="M293 782l94 -162h-26l-93 87l-93 -87h-26l94 162h50zM42 0v21q54 0 63 20v503q-9 20 -63 20v21h403v-97h-21q0 54 -20 63h-207v-230h140q20 9 20 63h21v-160h-21q0 54 -20 63h-140v-253h228q25 11 45 63h20l-24 -97h-424z" />
    <glyph glyph-name="Edieresis" unicode="&#xcb;" horiz-adv-x="507" 
d="M311 669q0 20 14.5 34.5t34.5 14.5t34.5 -14.5t14.5 -34.5t-14.5 -34.5t-34.5 -14.5t-34.5 14.5t-14.5 34.5zM127 669q0 20 14.5 34.5t34.5 14.5t34.5 -14.5t14.5 -34.5t-14.5 -34.5t-34.5 -14.5t-34.5 14.5t-14.5 34.5zM42 0v21q54 0 63 20v503q-9 20 -63 20v21h403v-97
h-21q0 54 -20 63h-207v-230h140q20 9 20 63h21v-160h-21q0 54 -20 63h-140v-253h228q25 11 45 63h20l-24 -97h-424z" />
    <glyph glyph-name="Igrave" unicode="&#xcc;" horiz-adv-x="302" 
d="M101 782l74 -162h-26l-154 162h106zM42 0v21q54 0 63 20v503q-9 20 -63 20v21h218v-21q-54 0 -63 -20v-503q9 -20 63 -20v-21h-218z" />
    <glyph glyph-name="Iacute" unicode="&#xcd;" horiz-adv-x="302" 
d="M210 782h106l-154 -162h-26zM42 0v21q54 0 63 20v503q-9 20 -63 20v21h218v-21q-54 0 -63 -20v-503q9 -20 63 -20v-21h-218z" />
    <glyph glyph-name="Icircumflex" unicode="&#xce;" horiz-adv-x="302" 
d="M174 782l94 -162h-26l-93 87l-93 -87h-26l94 162h50zM42 0v21q54 0 63 20v503q-9 20 -63 20v21h218v-21q-54 0 -63 -20v-503q9 -20 63 -20v-21h-218z" />
    <glyph glyph-name="Idieresis" unicode="&#xcf;" horiz-adv-x="302" 
d="M192 669q0 20 14.5 34.5t34.5 14.5t34.5 -14.5t14.5 -34.5t-14.5 -34.5t-34.5 -14.5t-34.5 14.5t-14.5 34.5zM8 669q0 20 14.5 34.5t34.5 14.5t34.5 -14.5t14.5 -34.5t-14.5 -34.5t-34.5 -14.5t-34.5 14.5t-14.5 34.5zM42 0v21q54 0 63 20v503q-9 20 -63 20v21h218v-21
q-54 0 -63 -20v-503q9 -20 63 -20v-21h-218z" />
    <glyph glyph-name="Eth" unicode="&#xd0;" horiz-adv-x="607" 
d="M38 -1v21q54 0 63 20v114q0 137 76 215t249 88q-27 49 -69.5 73.5t-88.5 24.5h-75v-85h-40v85h-98q-20 -9 -20 -63h-21v93h139v70h40v-70h75q133 0 214 -81t81 -211t-79 -212t-204 -82h-242zM440 427q-129 -8 -188 -72.5t-59 -162.5v-159h87q32 0 62.5 14.5t58.5 43.5
t45 81t17 120q0 76 -23 135z" />
    <glyph glyph-name="Ntilde" unicode="&#xd1;" horiz-adv-x="637" 
d="M393 620q-22 0 -81.5 29.5t-73.5 29.5q-28 0 -39 -14.5t-11 -44.5h-19q0 112 76 112q22 0 82 -29.5t74 -29.5q28 0 39 14.5t11 44.5h19q0 -112 -77 -112zM42 0v21q54 0 63 20v503q-9 20 -63 20v21h134l331 -409v368q-9 20 -63 20v21h160v-21q-54 0 -63 -20v-544h-9
l-393 497v-456q9 -20 63 -20v-21h-160z" />
    <glyph glyph-name="Ograve" unicode="&#xd2;" horiz-adv-x="641" 
d="M273 782l74 -162h-26l-154 162h106zM144 300q0 -66 18.5 -126.5t61 -105t101.5 -44.5t99.5 42t57 98.5t16.5 119.5q0 65 -19 126.5t-61.5 106t-100.5 44.5q-45 0 -79.5 -24t-54 -63.5t-29.5 -83.5t-10 -90zM44 292q0 125 78 214t199 89t199 -89t78 -214t-78.5 -213.5
t-198.5 -88.5q-122 0 -199.5 88t-77.5 214z" />
    <glyph glyph-name="Oacute" unicode="&#xd3;" horiz-adv-x="641" 
d="M382 782h106l-154 -162h-26zM144 300q0 -66 18.5 -126.5t61 -105t101.5 -44.5t99.5 42t57 98.5t16.5 119.5q0 65 -19 126.5t-61.5 106t-100.5 44.5q-45 0 -79.5 -24t-54 -63.5t-29.5 -83.5t-10 -90zM44 292q0 125 78 214t199 89t199 -89t78 -214t-78.5 -213.5
t-198.5 -88.5q-122 0 -199.5 88t-77.5 214z" />
    <glyph glyph-name="Ocircumflex" unicode="&#xd4;" horiz-adv-x="641" 
d="M346 782l94 -162h-26l-93 87l-93 -87h-26l94 162h50zM144 300q0 -66 18.5 -126.5t61 -105t101.5 -44.5t99.5 42t57 98.5t16.5 119.5q0 65 -19 126.5t-61.5 106t-100.5 44.5q-45 0 -79.5 -24t-54 -63.5t-29.5 -83.5t-10 -90zM44 292q0 125 78 214t199 89t199 -89t78 -214
t-78.5 -213.5t-198.5 -88.5q-122 0 -199.5 88t-77.5 214z" />
    <glyph glyph-name="Otilde" unicode="&#xd5;" horiz-adv-x="641" 
d="M396 620q-22 0 -81.5 29.5t-73.5 29.5q-28 0 -39 -14.5t-11 -44.5h-19q0 112 76 112q22 0 82 -29.5t74 -29.5q28 0 39 14.5t11 44.5h19q0 -112 -77 -112zM144 300q0 -66 18.5 -126.5t61 -105t101.5 -44.5t99.5 42t57 98.5t16.5 119.5q0 65 -19 126.5t-61.5 106
t-100.5 44.5q-45 0 -79.5 -24t-54 -63.5t-29.5 -83.5t-10 -90zM44 292q0 125 78 214t199 89t199 -89t78 -214t-78.5 -213.5t-198.5 -88.5q-122 0 -199.5 88t-77.5 214z" />
    <glyph glyph-name="Odieresis" unicode="&#xd6;" horiz-adv-x="641" 
d="M364 669q0 20 14.5 34.5t34.5 14.5t34.5 -14.5t14.5 -34.5t-14.5 -34.5t-34.5 -14.5t-34.5 14.5t-14.5 34.5zM180 669q0 20 14.5 34.5t34.5 14.5t34.5 -14.5t14.5 -34.5t-14.5 -34.5t-34.5 -14.5t-34.5 14.5t-14.5 34.5zM144 300q0 -66 18.5 -126.5t61 -105t101.5 -44.5
t99.5 42t57 98.5t16.5 119.5q0 65 -19 126.5t-61.5 106t-100.5 44.5q-45 0 -79.5 -24t-54 -63.5t-29.5 -83.5t-10 -90zM44 292q0 125 78 214t199 89t199 -89t78 -214t-78.5 -213.5t-198.5 -88.5q-122 0 -199.5 88t-77.5 214z" />
    <glyph glyph-name="multiply" unicode="&#xd7;" horiz-adv-x="420" 
d="M241 318l128 -128l-31 -31l-128 128l-128 -128l-31 31l128 128l-128 128l31 31l128 -128l128 128l31 -31z" />
    <glyph glyph-name="Oslash" unicode="&#xd8;" horiz-adv-x="641" 
d="M432 501q-48 60 -115 60q-45 0 -79.5 -24t-54 -63.5t-29.5 -83.5t-10 -90q0 -109 45 -187zM453 470l-243 -388q46 -58 115 -58q59 0 99.5 42t57 98.5t16.5 119.5q0 108 -45 186zM44 292q0 125 78 214t199 89q79 0 144 -41l36 58l29 -18l-38 -61q50 -42 78 -105t28 -136
q0 -125 -78.5 -213.5t-198.5 -88.5q-80 0 -143 40l-37 -58l-29 18l38 61q-50 42 -78 105t-28 136z" />
    <glyph glyph-name="Ugrave" unicode="&#xd9;" horiz-adv-x="618" 
d="M288 782l74 -162h-26l-154 162h106zM338 24q67 0 112.5 56t45.5 148v316q-9 20 -63 20v21h160v-21q-54 0 -63 -20v-296q0 -130 -57.5 -194t-144.5 -64q-240 0 -240 258v296q-9 20 -63 20v21h218v-21q-54 0 -63 -20v-310q0 -99 44 -154.5t114 -55.5z" />
    <glyph glyph-name="Uacute" unicode="&#xda;" horiz-adv-x="618" 
d="M397 782h106l-154 -162h-26zM338 24q67 0 112.5 56t45.5 148v316q-9 20 -63 20v21h160v-21q-54 0 -63 -20v-296q0 -130 -57.5 -194t-144.5 -64q-240 0 -240 258v296q-9 20 -63 20v21h218v-21q-54 0 -63 -20v-310q0 -99 44 -154.5t114 -55.5z" />
    <glyph glyph-name="Ucircumflex" unicode="&#xdb;" horiz-adv-x="618" 
d="M361 782l94 -162h-26l-93 87l-93 -87h-26l94 162h50zM338 24q67 0 112.5 56t45.5 148v316q-9 20 -63 20v21h160v-21q-54 0 -63 -20v-296q0 -130 -57.5 -194t-144.5 -64q-240 0 -240 258v296q-9 20 -63 20v21h218v-21q-54 0 -63 -20v-310q0 -99 44 -154.5t114 -55.5z" />
    <glyph glyph-name="Udieresis" unicode="&#xdc;" horiz-adv-x="618" 
d="M379 669q0 20 14.5 34.5t34.5 14.5t34.5 -14.5t14.5 -34.5t-14.5 -34.5t-34.5 -14.5t-34.5 14.5t-14.5 34.5zM195 669q0 20 14.5 34.5t34.5 14.5t34.5 -14.5t14.5 -34.5t-14.5 -34.5t-34.5 -14.5t-34.5 14.5t-14.5 34.5zM338 24q67 0 112.5 56t45.5 148v316q-9 20 -63 20
v21h160v-21q-54 0 -63 -20v-296q0 -130 -57.5 -194t-144.5 -64q-240 0 -240 258v296q-9 20 -63 20v21h218v-21q-54 0 -63 -20v-310q0 -99 44 -154.5t114 -55.5z" />
    <glyph glyph-name="Yacute" unicode="&#xdd;" horiz-adv-x="563" 
d="M369 782h106l-154 -162h-26zM210 585v-21q-47 0 -58 -12l155 -271l160 265q-11 18 -62 18v21h164v-21q-42 0 -57 -13l-180 -299v-211q9 -20 63 -20v-21h-218v21q54 0 63 20v179l-185 324q-14 20 -64 20v21h219z" />
    <glyph glyph-name="Thorn" unicode="&#xde;" horiz-adv-x="522" 
d="M42 0v21q54 0 63 20v503q-9 20 -63 20v21h218v-21q-54 0 -63 -20v-84h52q127 0 189.5 -43t62.5 -109q0 -75 -60 -121t-180 -46h-64v-100q9 -20 63 -20v-21h-218zM197 426v-251h64q77 0 108.5 30.5t31.5 101.5q0 59 -33 89t-119 30h-52z" />
    <glyph glyph-name="germandbls" unicode="&#xdf;" horiz-adv-x="514" 
d="M237 368q27 10 53.5 51.5t26.5 79.5q0 31 -18.5 66t-54.5 35q-27 0 -48.5 -29.5t-21.5 -82.5v-488h-153v21q54 0 63 20v433q0 81 43.5 118.5t102.5 37.5q93 0 130 -33.5t37 -96.5q0 -42 -27.5 -81.5t-69.5 -59.5q74 -13 129.5 -63.5t55.5 -105.5q0 -92 -42.5 -146
t-119.5 -54q-60 0 -90 29.5t-30 52.5q0 30 7.5 42t28.5 12q12 0 17.5 -16.5t7 -36.5t14.5 -36.5t39 -16.5q33 0 59 42.5t26 107.5q0 62 -50 118t-113 56h-2q-16 0 -16 10q0 9 16 14z" />
    <glyph glyph-name="agrave" unicode="&#xe0;" horiz-adv-x="483" 
d="M174 677l74 -162h-26l-154 162h106zM112 366q14 0 24.5 -10t10.5 -31q0 -17 -13.5 -26t-31.5 -9q-19 0 -31 13.5t-12 36.5q0 52 43 81t122 29q93 0 136.5 -46t43.5 -122v-198q0 -32 10.5 -47t25.5 -15q13 0 23.5 7t10.5 17h18q0 -28 -20.5 -41t-71.5 -13q-50 0 -71 41
q-59 -43 -147 -43q-150 0 -150 122q0 26 18.5 47t53.5 35t66 22.5t77.5 19t66.5 16.5q0 84 -22 123t-78 39q-90 0 -102 -48zM320 58q-6 22 -6 54v118q-11 -4 -37.5 -11t-43 -12t-39.5 -15t-36 -20t-23 -26.5t-10 -35.5q0 -48 18.5 -67t55.5 -19q66 0 121 34z" />
    <glyph glyph-name="aacute" unicode="&#xe1;" horiz-adv-x="483" 
d="M283 677h106l-154 -162h-26zM112 366q14 0 24.5 -10t10.5 -31q0 -17 -13.5 -26t-31.5 -9q-19 0 -31 13.5t-12 36.5q0 52 43 81t122 29q93 0 136.5 -46t43.5 -122v-198q0 -32 10.5 -47t25.5 -15q13 0 23.5 7t10.5 17h18q0 -28 -20.5 -41t-71.5 -13q-50 0 -71 41
q-59 -43 -147 -43q-150 0 -150 122q0 26 18.5 47t53.5 35t66 22.5t77.5 19t66.5 16.5q0 84 -22 123t-78 39q-90 0 -102 -48zM320 58q-6 22 -6 54v118q-11 -4 -37.5 -11t-43 -12t-39.5 -15t-36 -20t-23 -26.5t-10 -35.5q0 -48 18.5 -67t55.5 -19q66 0 121 34z" />
    <glyph glyph-name="acircumflex" unicode="&#xe2;" horiz-adv-x="483" 
d="M247 677l94 -162h-26l-93 87l-93 -87h-26l94 162h50zM112 366q14 0 24.5 -10t10.5 -31q0 -17 -13.5 -26t-31.5 -9q-19 0 -31 13.5t-12 36.5q0 52 43 81t122 29q93 0 136.5 -46t43.5 -122v-198q0 -32 10.5 -47t25.5 -15q13 0 23.5 7t10.5 17h18q0 -28 -20.5 -41t-71.5 -13
q-50 0 -71 41q-59 -43 -147 -43q-150 0 -150 122q0 26 18.5 47t53.5 35t66 22.5t77.5 19t66.5 16.5q0 84 -22 123t-78 39q-90 0 -102 -48zM320 58q-6 22 -6 54v118q-11 -4 -37.5 -11t-43 -12t-39.5 -15t-36 -20t-23 -26.5t-10 -35.5q0 -48 18.5 -67t55.5 -19q66 0 121 34z
" />
    <glyph glyph-name="atilde" unicode="&#xe3;" horiz-adv-x="483" 
d="M297 515q-22 0 -81.5 29.5t-73.5 29.5q-28 0 -39 -14.5t-11 -44.5h-19q0 112 76 112q22 0 82 -29.5t74 -29.5q28 0 39 14.5t11 44.5h19q0 -112 -77 -112zM112 366q14 0 24.5 -10t10.5 -31q0 -17 -13.5 -26t-31.5 -9q-19 0 -31 13.5t-12 36.5q0 52 43 81t122 29
q93 0 136.5 -46t43.5 -122v-198q0 -32 10.5 -47t25.5 -15q13 0 23.5 7t10.5 17h18q0 -28 -20.5 -41t-71.5 -13q-50 0 -71 41q-59 -43 -147 -43q-150 0 -150 122q0 26 18.5 47t53.5 35t66 22.5t77.5 19t66.5 16.5q0 84 -22 123t-78 39q-90 0 -102 -48zM320 58q-6 22 -6 54
v118q-11 -4 -37.5 -11t-43 -12t-39.5 -15t-36 -20t-23 -26.5t-10 -35.5q0 -48 18.5 -67t55.5 -19q66 0 121 34z" />
    <glyph glyph-name="adieresis" unicode="&#xe4;" horiz-adv-x="483" 
d="M265 564q0 20 14.5 34.5t34.5 14.5t34.5 -14.5t14.5 -34.5t-14.5 -34.5t-34.5 -14.5t-34.5 14.5t-14.5 34.5zM81 564q0 20 14.5 34.5t34.5 14.5t34.5 -14.5t14.5 -34.5t-14.5 -34.5t-34.5 -14.5t-34.5 14.5t-14.5 34.5zM112 366q14 0 24.5 -10t10.5 -31q0 -17 -13.5 -26
t-31.5 -9q-19 0 -31 13.5t-12 36.5q0 52 43 81t122 29q93 0 136.5 -46t43.5 -122v-198q0 -32 10.5 -47t25.5 -15q13 0 23.5 7t10.5 17h18q0 -28 -20.5 -41t-71.5 -13q-50 0 -71 41q-59 -43 -147 -43q-150 0 -150 122q0 26 18.5 47t53.5 35t66 22.5t77.5 19t66.5 16.5
q0 84 -22 123t-78 39q-90 0 -102 -48zM320 58q-6 22 -6 54v118q-11 -4 -37.5 -11t-43 -12t-39.5 -15t-36 -20t-23 -26.5t-10 -35.5q0 -48 18.5 -67t55.5 -19q66 0 121 34z" />
    <glyph glyph-name="aring" unicode="&#xe5;" horiz-adv-x="483" 
d="M175 584q0 -19 13.5 -33t33.5 -14t33.5 14t13.5 33t-13.5 33t-33.5 14t-33.5 -14t-13.5 -33zM132 584q0 38 26 64t64 26t64 -26t26 -64t-26 -64t-64 -26t-64 26t-26 64zM112 366q14 0 24.5 -10t10.5 -31q0 -17 -13.5 -26t-31.5 -9q-19 0 -31 13.5t-12 36.5q0 52 43 81
t122 29q93 0 136.5 -46t43.5 -122v-198q0 -32 10.5 -47t25.5 -15q13 0 23.5 7t10.5 17h18q0 -28 -20.5 -41t-71.5 -13q-50 0 -71 41q-59 -43 -147 -43q-150 0 -150 122q0 26 18.5 47t53.5 35t66 22.5t77.5 19t66.5 16.5q0 84 -22 123t-78 39q-90 0 -102 -48zM320 58
q-6 22 -6 54v118q-11 -4 -37.5 -11t-43 -12t-39.5 -15t-36 -20t-23 -26.5t-10 -35.5q0 -48 18.5 -67t55.5 -19q66 0 121 34z" />
    <glyph glyph-name="ae" unicode="&#xe6;" horiz-adv-x="708" 
d="M298 247q0 89 -18 128t-66 39q-90 0 -102 -48q14 0 24.5 -10t10.5 -31q0 -17 -13.5 -26t-31.5 -9q-19 0 -31 13.5t-12 36.5q0 52 43 81t122 29q89 0 131 -55q49 55 127 55q97 0 142.5 -59t45.5 -150h-278v-21q0 -192 134 -192q37 0 62.5 14.5t55.5 51.5l24 -12
q-30 -49 -68.5 -70.5t-107.5 -21.5q-94 0 -144 56q-69 -56 -166 -56q-150 0 -150 122q0 21 13.5 39t32 29.5t50 22.5t55 16.5l61 14t54.5 13.5zM298 226q-4 -1 -24 -6.5l-27 -7.5t-25 -8t-26 -10l-22 -11t-20.5 -14l-14.5 -16t-11 -20t-3 -23q0 -48 18.5 -67t55.5 -19
q30 0 69.5 12t65.5 29q-36 58 -36 151v10zM395 272h177q-6 75 -24.5 111.5t-70.5 36.5q-26 0 -50 -40t-32 -108z" />
    <glyph glyph-name="ccedilla" unicode="&#xe7;" horiz-adv-x="479" 
d="M272 420q-62 0 -100 -47t-38 -127q0 -85 47.5 -151.5t107.5 -66.5q87 0 140 66l24 -12q-53 -86 -174 -91l-12 -46q32 0 66 -16.5t34 -50.5q0 -77 -110 -77q-33 0 -74 7v17q18 -2 25 -2q38 0 55 14.5t17 32.5q0 44 -61 44l22 76q-37 2 -70 15t-64 40t-49.5 78t-18.5 119
q0 87 61.5 147.5t161.5 60.5q79 0 122 -27t43 -79q0 -23 -12 -36.5t-31 -13.5q-18 0 -31.5 9t-13.5 26q0 21 10.5 31t24.5 10q-13 50 -102 50z" />
    <glyph glyph-name="egrave" unicode="&#xe8;" horiz-adv-x="493" 
d="M196 677l74 -162h-26l-154 162h106zM134 241q1 -84 48.5 -148.5t106.5 -64.5q87 0 140 66l24 -12q-29 -48 -75.5 -70t-122.5 -22q-38 0 -73 11.5t-69 38t-54 78.5t-20 124q0 88 54.5 148t151.5 60q106 0 158 -59.5t52 -149.5h-321zM135 272h222q-6 72 -30.5 110t-85.5 38
q-35 0 -67.5 -41t-38.5 -107z" />
    <glyph glyph-name="eacute" unicode="&#xe9;" horiz-adv-x="493" 
d="M305 677h106l-154 -162h-26zM134 241q1 -84 48.5 -148.5t106.5 -64.5q87 0 140 66l24 -12q-29 -48 -75.5 -70t-122.5 -22q-38 0 -73 11.5t-69 38t-54 78.5t-20 124q0 88 54.5 148t151.5 60q106 0 158 -59.5t52 -149.5h-321zM135 272h222q-6 72 -30.5 110t-85.5 38
q-35 0 -67.5 -41t-38.5 -107z" />
    <glyph glyph-name="ecircumflex" unicode="&#xea;" horiz-adv-x="493" 
d="M269 677l94 -162h-26l-93 87l-93 -87h-26l94 162h50zM134 241q1 -84 48.5 -148.5t106.5 -64.5q87 0 140 66l24 -12q-29 -48 -75.5 -70t-122.5 -22q-38 0 -73 11.5t-69 38t-54 78.5t-20 124q0 88 54.5 148t151.5 60q106 0 158 -59.5t52 -149.5h-321zM135 272h222
q-6 72 -30.5 110t-85.5 38q-35 0 -67.5 -41t-38.5 -107z" />
    <glyph glyph-name="edieresis" unicode="&#xeb;" horiz-adv-x="493" 
d="M287 564q0 20 14.5 34.5t34.5 14.5t34.5 -14.5t14.5 -34.5t-14.5 -34.5t-34.5 -14.5t-34.5 14.5t-14.5 34.5zM103 564q0 20 14.5 34.5t34.5 14.5t34.5 -14.5t14.5 -34.5t-14.5 -34.5t-34.5 -14.5t-34.5 14.5t-14.5 34.5zM134 241q1 -84 48.5 -148.5t106.5 -64.5
q87 0 140 66l24 -12q-29 -48 -75.5 -70t-122.5 -22q-38 0 -73 11.5t-69 38t-54 78.5t-20 124q0 88 54.5 148t151.5 60q106 0 158 -59.5t52 -149.5h-321zM135 272h222q-6 72 -30.5 110t-85.5 38q-35 0 -67.5 -41t-38.5 -107z" />
    <glyph glyph-name="igrave" unicode="&#xec;" horiz-adv-x="268" 
d="M93 677l74 -162h-26l-154 162h106zM31 0v21q54 0 63 20v338q-62 5 -63 5v23q19 0 74.5 21.5t78.5 21.5v-409q9 -20 63 -20v-21h-216z" />
    <glyph glyph-name="iacute" unicode="&#xed;" horiz-adv-x="268" 
d="M202 677h106l-154 -162h-26zM31 0v21q54 0 63 20v338q-62 5 -63 5v23q19 0 74.5 21.5t78.5 21.5v-409q9 -20 63 -20v-21h-216z" />
    <glyph glyph-name="icircumflex" unicode="&#xee;" horiz-adv-x="268" 
d="M166 677l94 -162h-26l-93 87l-93 -87h-26l94 162h50zM31 0v21q54 0 63 20v338q-62 5 -63 5v23q19 0 74.5 21.5t78.5 21.5v-409q9 -20 63 -20v-21h-216z" />
    <glyph glyph-name="idieresis" unicode="&#xef;" horiz-adv-x="268" 
d="M184 564q0 20 14.5 34.5t34.5 14.5t34.5 -14.5t14.5 -34.5t-14.5 -34.5t-34.5 -14.5t-34.5 14.5t-14.5 34.5zM0 564q0 20 14.5 34.5t34.5 14.5t34.5 -14.5t14.5 -34.5t-14.5 -34.5t-34.5 -14.5t-34.5 14.5t-14.5 34.5zM31 0v21q54 0 63 20v338q-62 5 -63 5v23
q19 0 74.5 21.5t78.5 21.5v-409q9 -20 63 -20v-21h-216z" />
    <glyph glyph-name="eth" unicode="&#xf0;" horiz-adv-x="527" 
d="M267 -10q-111 0 -169.5 64.5t-58.5 173.5q0 98 52.5 160t168.5 62q36 0 66 -6q-29 46 -71 88l-84 -48l-17 29l75 43q-20 17 -39.5 31t-29.5 19l-10 6l11 18q46 -17 104 -53l88 51l17 -29l-73 -43q189 -136 189 -340q0 -99 -52 -162.5t-167 -63.5zM135 248
q0 -115 39 -171.5t106 -56.5q53 0 81.5 47.5t28.5 125.5q0 118 -35.5 172t-111.5 54q-52 0 -80 -49.5t-28 -121.5z" />
    <glyph glyph-name="ntilde" unicode="&#xf1;" horiz-adv-x="559" 
d="M363 516q-22 0 -81.5 29.5t-73.5 29.5q-28 0 -39 -14.5t-11 -44.5h-19q0 112 76 112q22 0 82 -29.5t74 -29.5q28 0 39 14.5t11 44.5h19q0 -112 -77 -112zM31 0v21q54 0 63 20v338q-62 5 -63 5v23q19 0 74.5 21.5t78.5 21.5v-46q54 46 119 46q93 0 134.5 -34.5
t41.5 -107.5v-267q9 -20 63 -20v-21h-216v21q54 0 63 20v274q0 101 -92 101q-63 0 -113 -44v-331q9 -20 63 -20v-21h-216z" />
    <glyph glyph-name="ograve" unicode="&#xf2;" horiz-adv-x="545" 
d="M226 677l74 -162h-26l-154 162h106zM135 248q0 -114 43.5 -171t111.5 -57q54 0 87 48.5t33 124.5q0 226 -157 226q-53 0 -85.5 -50.5t-32.5 -120.5zM277 -10q-112 0 -175 65.5t-63 172.5q0 97 57 159.5t174 62.5q118 0 177 -62.5t59 -171.5q0 -97 -56.5 -161.5
t-172.5 -64.5z" />
    <glyph glyph-name="oacute" unicode="&#xf3;" horiz-adv-x="545" 
d="M335 677h106l-154 -162h-26zM135 248q0 -114 43.5 -171t111.5 -57q54 0 87 48.5t33 124.5q0 226 -157 226q-53 0 -85.5 -50.5t-32.5 -120.5zM277 -10q-112 0 -175 65.5t-63 172.5q0 97 57 159.5t174 62.5q118 0 177 -62.5t59 -171.5q0 -97 -56.5 -161.5t-172.5 -64.5z
" />
    <glyph glyph-name="ocircumflex" unicode="&#xf4;" horiz-adv-x="545" 
d="M299 677l94 -162h-26l-93 87l-93 -87h-26l94 162h50zM135 248q0 -114 43.5 -171t111.5 -57q54 0 87 48.5t33 124.5q0 226 -157 226q-53 0 -85.5 -50.5t-32.5 -120.5zM277 -10q-112 0 -175 65.5t-63 172.5q0 97 57 159.5t174 62.5q118 0 177 -62.5t59 -171.5
q0 -97 -56.5 -161.5t-172.5 -64.5z" />
    <glyph glyph-name="otilde" unicode="&#xf5;" horiz-adv-x="545" 
d="M349 515q-22 0 -81.5 29.5t-73.5 29.5q-28 0 -39 -14.5t-11 -44.5h-19q0 112 76 112q22 0 82 -29.5t74 -29.5q28 0 39 14.5t11 44.5h19q0 -112 -77 -112zM135 248q0 -114 43.5 -171t111.5 -57q54 0 87 48.5t33 124.5q0 226 -157 226q-53 0 -85.5 -50.5t-32.5 -120.5z
M277 -10q-112 0 -175 65.5t-63 172.5q0 97 57 159.5t174 62.5q118 0 177 -62.5t59 -171.5q0 -97 -56.5 -161.5t-172.5 -64.5z" />
    <glyph glyph-name="odieresis" unicode="&#xf6;" horiz-adv-x="545" 
d="M317 564q0 20 14.5 34.5t34.5 14.5t34.5 -14.5t14.5 -34.5t-14.5 -34.5t-34.5 -14.5t-34.5 14.5t-14.5 34.5zM133 564q0 20 14.5 34.5t34.5 14.5t34.5 -14.5t14.5 -34.5t-14.5 -34.5t-34.5 -14.5t-34.5 14.5t-14.5 34.5zM135 248q0 -114 43.5 -171t111.5 -57
q54 0 87 48.5t33 124.5q0 226 -157 226q-53 0 -85.5 -50.5t-32.5 -120.5zM277 -10q-112 0 -175 65.5t-63 172.5q0 97 57 159.5t174 62.5q118 0 177 -62.5t59 -171.5q0 -97 -56.5 -161.5t-172.5 -64.5z" />
    <glyph glyph-name="divide" unicode="&#xf7;" horiz-adv-x="482" 
d="M184 457q0 23 15.5 41.5t40.5 18.5q22 0 40 -17t18 -40t-16 -42t-41 -19q-21 0 -39 17.5t-18 40.5zM184 177q0 23 15.5 41.5t40.5 18.5q22 0 40 -17t18 -40t-16 -42t-41 -19q-21 0 -39 17.5t-18 40.5zM44 340h394v-44h-394v44z" />
    <glyph glyph-name="oslash" unicode="&#xf8;" horiz-adv-x="545" 
d="M360 377q-38 42 -107 42q-53 0 -85.5 -50.5t-32.5 -120.5q0 -92 30 -149zM380 348l-195 -279q42 -49 105 -49q54 0 87 48.5t33 124.5q0 101 -30 155zM422 408q84 -59 84 -192q0 -97 -56.5 -161.5t-172.5 -64.5q-74 0 -127 29l-38 -54l-27 20l37 52q-83 65 -83 191
q0 97 57 159.5t174 62.5q71 0 123 -25l35 50l27 -20z" />
    <glyph glyph-name="ugrave" unicode="&#xf9;" horiz-adv-x="550" 
d="M223 677l74 -162h-26l-154 162h106zM465 61l63 -5v-23q-19 0 -74.5 -21.5t-78.5 -21.5v46q-54 -46 -119 -46q-93 0 -134.5 34.5t-41.5 107.5v267q-9 20 -63 20v21h153v-315q0 -101 92 -101q63 0 113 44v331q-9 20 -63 20v21h153v-379z" />
    <glyph glyph-name="uacute" unicode="&#xfa;" horiz-adv-x="550" 
d="M332 677h106l-154 -162h-26zM465 61l63 -5v-23q-19 0 -74.5 -21.5t-78.5 -21.5v46q-54 -46 -119 -46q-93 0 -134.5 34.5t-41.5 107.5v267q-9 20 -63 20v21h153v-315q0 -101 92 -101q63 0 113 44v331q-9 20 -63 20v21h153v-379z" />
    <glyph glyph-name="ucircumflex" unicode="&#xfb;" horiz-adv-x="550" 
d="M296 677l94 -162h-26l-93 87l-93 -87h-26l94 162h50zM465 61l63 -5v-23q-19 0 -74.5 -21.5t-78.5 -21.5v46q-54 -46 -119 -46q-93 0 -134.5 34.5t-41.5 107.5v267q-9 20 -63 20v21h153v-315q0 -101 92 -101q63 0 113 44v331q-9 20 -63 20v21h153v-379z" />
    <glyph glyph-name="udieresis" unicode="&#xfc;" horiz-adv-x="550" 
d="M314 564q0 20 14.5 34.5t34.5 14.5t34.5 -14.5t14.5 -34.5t-14.5 -34.5t-34.5 -14.5t-34.5 14.5t-14.5 34.5zM130 564q0 20 14.5 34.5t34.5 14.5t34.5 -14.5t14.5 -34.5t-14.5 -34.5t-34.5 -14.5t-34.5 14.5t-14.5 34.5zM465 61l63 -5v-23q-19 0 -74.5 -21.5t-78.5 -21.5
v46q-54 -46 -119 -46q-93 0 -134.5 34.5t-41.5 107.5v267q-9 20 -63 20v21h153v-315q0 -101 92 -101q63 0 113 44v331q-9 20 -63 20v21h153v-379z" />
    <glyph glyph-name="yacute" unicode="&#xfd;" horiz-adv-x="483" 
d="M321 677h106l-154 -162h-26zM189 440v-21q-29 0 -42 -4l119 -293l114 286q-14 11 -56 11v21h164v-21q-54 0 -62 -18l-201 -503q-19 -47 -48.5 -68.5t-56.5 -21.5q-25 0 -39.5 13t-14.5 31q0 15 10.5 27t28.5 12q11 0 23 -8.5t18 -8.5q21 0 28 18l43 108l-159 399
q-9 20 -63 20v21h194z" />
    <glyph glyph-name="thorn" unicode="&#xfe;" horiz-adv-x="519" 
d="M5 -192v21q54 0 63 20v710q-62 5 -63 5v23q19 0 74.5 21.5t78.5 21.5v-240q56 60 138 60q88 0 136 -55t48 -128q0 -142 -84 -210.5t-238 -68.5v-139q9 -20 63 -20v-21h-216zM158 354v-337q227 4 227 225q0 79 -27.5 126.5t-71.5 47.5q-78 0 -128 -62z" />
    <glyph glyph-name="ydieresis" unicode="&#xff;" horiz-adv-x="483" 
d="M303 564q0 20 14.5 34.5t34.5 14.5t34.5 -14.5t14.5 -34.5t-14.5 -34.5t-34.5 -14.5t-34.5 14.5t-14.5 34.5zM119 564q0 20 14.5 34.5t34.5 14.5t34.5 -14.5t14.5 -34.5t-14.5 -34.5t-34.5 -14.5t-34.5 14.5t-14.5 34.5zM189 440v-21q-29 0 -42 -4l119 -293l114 286
q-14 11 -56 11v21h164v-21q-54 0 -62 -18l-201 -503q-19 -47 -48.5 -68.5t-56.5 -21.5q-25 0 -39.5 13t-14.5 31q0 15 10.5 27t28.5 12q11 0 23 -8.5t18 -8.5q21 0 28 18l43 108l-159 399q-9 20 -63 20v21h194z" />
    <glyph glyph-name="Amacron" unicode="&#x100;" horiz-adv-x="546" 
d="M138 678h264v-44h-264v44zM336 0v21q46 0 58 12l-56 153h-192l-52 -147q10 -18 62 -18v-21h-164v21q56 0 63 21l194 543h48l194 -543q7 -21 64 -21v-21h-219zM241 452l-83 -233h168z" />
    <glyph glyph-name="amacron" unicode="&#x101;" horiz-adv-x="483" 
d="M84 573h264v-44h-264v44zM112 366q14 0 24.5 -10t10.5 -31q0 -17 -13.5 -26t-31.5 -9q-19 0 -31 13.5t-12 36.5q0 52 43 81t122 29q93 0 136.5 -46t43.5 -122v-198q0 -32 10.5 -47t25.5 -15q13 0 23.5 7t10.5 17h18q0 -28 -20.5 -41t-71.5 -13q-50 0 -71 41
q-59 -43 -147 -43q-150 0 -150 122q0 26 18.5 47t53.5 35t66 22.5t77.5 19t66.5 16.5q0 84 -22 123t-78 39q-90 0 -102 -48zM320 58q-6 22 -6 54v118q-11 -4 -37.5 -11t-43 -12t-39.5 -15t-36 -20t-23 -26.5t-10 -35.5q0 -48 18.5 -67t55.5 -19q66 0 121 34z" />
    <glyph glyph-name="Abreve" unicode="&#x102;" horiz-adv-x="546" 
d="M276 630q-61 0 -93.5 40.5t-32.5 83.5h28q0 -20 25.5 -36t72.5 -16t72.5 15.5t25.5 36.5h28q0 -44 -32 -84t-94 -40zM336 0v21q46 0 58 12l-56 153h-192l-52 -147q10 -18 62 -18v-21h-164v21q56 0 63 21l194 543h48l194 -543q7 -21 64 -21v-21h-219zM241 452l-83 -233
h168z" />
    <glyph glyph-name="abreve" unicode="&#x103;" horiz-adv-x="483" 
d="M222 525q-61 0 -93.5 40.5t-32.5 83.5h28q0 -20 25.5 -36t72.5 -16t72.5 15.5t25.5 36.5h28q0 -44 -32 -84t-94 -40zM112 366q14 0 24.5 -10t10.5 -31q0 -17 -13.5 -26t-31.5 -9q-19 0 -31 13.5t-12 36.5q0 52 43 81t122 29q93 0 136.5 -46t43.5 -122v-198
q0 -32 10.5 -47t25.5 -15q13 0 23.5 7t10.5 17h18q0 -28 -20.5 -41t-71.5 -13q-50 0 -71 41q-59 -43 -147 -43q-150 0 -150 122q0 26 18.5 47t53.5 35t66 22.5t77.5 19t66.5 16.5q0 84 -22 123t-78 39q-90 0 -102 -48zM320 58q-6 22 -6 54v118q-11 -4 -37.5 -11t-43 -12
t-39.5 -15t-36 -20t-23 -26.5t-10 -35.5q0 -48 18.5 -67t55.5 -19q66 0 121 34z" />
    <glyph glyph-name="Aogonek" unicode="&#x104;" horiz-adv-x="546" 
d="M241 452l-83 -233h168zM336 0v21q46 0 58 12l-56 153h-192l-52 -147q10 -18 62 -18v-21h-164v21q56 0 63 21l194 543h48l194 -543q7 -21 64 -21v-21h-53q-27 -34 -27 -59q0 -49 27 -78t61 -29q6 0 14 4t13 8l4 4l11 -18q-2 -4 -7 -9t-25.5 -14t-46.5 -9q-49 0 -74.5 25.5
t-25.5 71.5q0 58 48 103h-138z" />
    <glyph glyph-name="aogonek" unicode="&#x105;" horiz-adv-x="482" 
d="M320 58q-6 22 -6 54v118q-11 -4 -37.5 -11t-43 -12t-39.5 -15t-36 -20t-23 -26.5t-10 -35.5q0 -48 18.5 -67t55.5 -19q66 0 121 34zM112 366h-1q14 0 24.5 -10t10.5 -31q0 -17 -13.5 -26t-31.5 -9q-19 0 -31 13.5t-12 36.5q0 52 43 81t122 29q93 0 136.5 -46t43.5 -122
v-198q0 -32 10.5 -47t25.5 -15q13 0 23.5 7t10.5 17h18q0 -26 -17 -39t-57 -15q-21 -29 -21 -51q0 -49 27 -78t61 -29q6 0 14 4t12 8l5 4l11 -18q-2 -4 -7 -9t-25.5 -14t-46.5 -9q-49 0 -74.5 25.5t-25.5 71.5q0 53 41 96q-41 3 -59 40q-59 -43 -147 -43q-150 0 -150 122
q0 26 18.5 47t53.5 35t66 22.5t77.5 19t66.5 16.5q0 84 -22 123t-78 39q-90 0 -102 -48z" />
    <glyph glyph-name="Cacute" unicode="&#x106;" horiz-adv-x="562" 
d="M405 782h106l-154 -162h-26zM346 561q-86 0 -143 -71t-57 -184q0 -132 60 -207t144 -75q50 0 99 34.5t63 73.5l24 -12q-23 -55 -72.5 -92.5t-133.5 -37.5q-133 0 -210.5 86.5t-77.5 207.5q0 140 89.5 225.5t213.5 85.5q29 0 67 -15t44 -15q12 0 12 20h23l10 -127h-22
q-7 45 -39.5 74t-93.5 29z" />
    <glyph glyph-name="cacute" unicode="&#x107;" horiz-adv-x="479" 
d="M328 677h106l-154 -162h-26zM272 420q-62 0 -100 -47t-38 -127q0 -85 47.5 -151.5t107.5 -66.5q87 0 140 66l24 -12q-29 -48 -75.5 -70t-122.5 -22q-38 0 -73 11.5t-69 38t-54 78.5t-20 124q0 87 61.5 147.5t161.5 60.5q79 0 122 -27t43 -79q0 -23 -12 -36.5t-31 -13.5
q-18 0 -31.5 9t-13.5 26q0 21 10.5 31t24.5 10q-13 50 -102 50z" />
    <glyph glyph-name="Ccircumflex" unicode="&#x108;" horiz-adv-x="562" 
d="M369 782l94 -162h-26l-93 87l-93 -87h-26l94 162h50zM346 561q-86 0 -143 -71t-57 -184q0 -132 60 -207t144 -75q50 0 99 34.5t63 73.5l24 -12q-23 -55 -72.5 -92.5t-133.5 -37.5q-133 0 -210.5 86.5t-77.5 207.5q0 140 89.5 225.5t213.5 85.5q29 0 67 -15t44 -15
q12 0 12 20h23l10 -127h-22q-7 45 -39.5 74t-93.5 29z" />
    <glyph glyph-name="ccircumflex" unicode="&#x109;" horiz-adv-x="479" 
d="M292 677l94 -162h-26l-93 87l-93 -87h-26l94 162h50zM272 420q-62 0 -100 -47t-38 -127q0 -85 47.5 -151.5t107.5 -66.5q87 0 140 66l24 -12q-29 -48 -75.5 -70t-122.5 -22q-38 0 -73 11.5t-69 38t-54 78.5t-20 124q0 87 61.5 147.5t161.5 60.5q79 0 122 -27t43 -79
q0 -23 -12 -36.5t-31 -13.5q-18 0 -31.5 9t-13.5 26q0 21 10.5 31t24.5 10q-13 50 -102 50z" />
    <glyph glyph-name="Cdotaccent" unicode="&#x10a;" horiz-adv-x="562" 
d="M293 672q0 21 15 36t36 15t36 -15t15 -36t-15 -36t-36 -15t-36 15t-15 36zM346 561q-86 0 -143 -71t-57 -184q0 -132 60 -207t144 -75q50 0 99 34.5t63 73.5l24 -12q-23 -55 -72.5 -92.5t-133.5 -37.5q-133 0 -210.5 86.5t-77.5 207.5q0 140 89.5 225.5t213.5 85.5
q29 0 67 -15t44 -15q12 0 12 20h23l10 -127h-22q-7 45 -39.5 74t-93.5 29z" />
    <glyph glyph-name="cdotaccent" unicode="&#x10b;" horiz-adv-x="479" 
d="M216 567q0 21 15 36t36 15t36 -15t15 -36t-15 -36t-36 -15t-36 15t-15 36zM272 420q-62 0 -100 -47t-38 -127q0 -85 47.5 -151.5t107.5 -66.5q87 0 140 66l24 -12q-29 -48 -75.5 -70t-122.5 -22q-38 0 -73 11.5t-69 38t-54 78.5t-20 124q0 87 61.5 147.5t161.5 60.5
q79 0 122 -27t43 -79q0 -23 -12 -36.5t-31 -13.5q-18 0 -31.5 9t-13.5 26q0 21 10.5 31t24.5 10q-13 50 -102 50z" />
    <glyph glyph-name="Ccaron" unicode="&#x10c;" horiz-adv-x="562" 
d="M320 620l-94 162h26l93 -87l93 87h26l-94 -162h-50zM346 561q-86 0 -143 -71t-57 -184q0 -132 60 -207t144 -75q50 0 99 34.5t63 73.5l24 -12q-23 -55 -72.5 -92.5t-133.5 -37.5q-133 0 -210.5 86.5t-77.5 207.5q0 140 89.5 225.5t213.5 85.5q29 0 67 -15t44 -15
q12 0 12 20h23l10 -127h-22q-7 45 -39.5 74t-93.5 29z" />
    <glyph glyph-name="ccaron" unicode="&#x10d;" horiz-adv-x="479" 
d="M243 515l-94 162h26l93 -87l93 87h26l-94 -162h-50zM272 420q-62 0 -100 -47t-38 -127q0 -85 47.5 -151.5t107.5 -66.5q87 0 140 66l24 -12q-29 -48 -75.5 -70t-122.5 -22q-38 0 -73 11.5t-69 38t-54 78.5t-20 124q0 87 61.5 147.5t161.5 60.5q79 0 122 -27t43 -79
q0 -23 -12 -36.5t-31 -13.5q-18 0 -31.5 9t-13.5 26q0 21 10.5 31t24.5 10q-13 50 -102 50z" />
    <glyph glyph-name="Dcaron" unicode="&#x10e;" horiz-adv-x="611" 
d="M244 620l-94 162h26l93 -87l93 87h26l-94 -162h-50zM42 0v21q54 0 63 20v503q-9 20 -63 20v21h230q133 0 214 -80.5t81 -210.5t-79 -212t-204 -82h-242zM197 556v-522h87q32 0 62.5 14.5t58.5 43.5t45 81t17 120q0 130 -58.5 196.5t-136.5 66.5h-75z" />
    <glyph glyph-name="dcaron" unicode="&#x10f;" horiz-adv-x="567" 
d="M547 543q-51 0 -51 44q0 18 10.5 28.5t19.5 12.5t16 2q38 0 65 -23.5t27 -63.5q0 -84 -124 -123v28q25 3 51.5 27.5t26.5 55.5q0 18 -2 21.5t-8 3.5q-3 0 -11.5 -6.5t-19.5 -6.5zM363 430v129l-63 5v23q19 0 74.5 21.5t78.5 21.5v-569l63 -5v-23q-19 0 -74.5 -21.5
t-78.5 -21.5v33q-48 -33 -120 -33q-33 0 -65.5 11.5t-65 36t-53 72.5t-20.5 112q0 112 62.5 172t163.5 60q57 0 98 -24zM363 399q-36 21 -92 21q-55 0 -96 -53t-41 -145q0 -61 35.5 -129.5t83.5 -68.5q66 0 110 32v343z" />
    <glyph glyph-name="Dcroat" unicode="&#x110;" horiz-adv-x="611" 
d="M197 275v-241h87q32 0 62.5 14.5t58.5 43.5t45 81t17 120q0 130 -58.5 196.5t-136.5 66.5h-75v-247h102v-34h-102zM42 0v21q54 0 63 20v234h-70v34h70v235q-9 20 -63 20v21h230q133 0 214 -80.5t81 -210.5t-79 -212t-204 -82h-242z" />
    <glyph glyph-name="dcroat" unicode="&#x111;" horiz-adv-x="537" 
d="M363 399q-36 21 -92 21q-55 0 -96 -53t-41 -145q0 -61 35.5 -129.5t83.5 -68.5q66 0 110 32v343zM453 491v-430l63 -5v-23q-19 0 -74.5 -21.5t-78.5 -21.5v33q-48 -33 -120 -33q-33 0 -65.5 11.5t-65 36t-53 72.5t-20.5 112q0 112 62.5 172t163.5 60q57 0 98 -24v61h-113
v34h113v34l-63 5v23q19 0 74.5 21.5t78.5 21.5v-105h61v-34h-61z" />
    <glyph glyph-name="Emacron" unicode="&#x112;" horiz-adv-x="507" 
d="M130 678h264v-44h-264v44zM42 0v21q54 0 63 20v503q-9 20 -63 20v21h403v-97h-21q0 54 -20 63h-207v-230h140q20 9 20 63h21v-160h-21q0 54 -20 63h-140v-253h228q25 11 45 63h20l-24 -97h-424z" />
    <glyph glyph-name="emacron" unicode="&#x113;" horiz-adv-x="493" 
d="M120 573h264v-44h-264v44zM134 241q1 -84 48.5 -148.5t106.5 -64.5q87 0 140 66l24 -12q-29 -48 -75.5 -70t-122.5 -22q-38 0 -73 11.5t-69 38t-54 78.5t-20 124q0 88 54.5 148t151.5 60q106 0 158 -59.5t52 -149.5h-321zM135 272h222q-6 72 -30.5 110t-85.5 38
q-35 0 -67.5 -41t-38.5 -107z" />
    <glyph glyph-name="Ebreve" unicode="&#x114;" horiz-adv-x="507" 
d="M268 630q-61 0 -93.5 40.5t-32.5 83.5h28q0 -20 25.5 -36t72.5 -16t72.5 15.5t25.5 36.5h28q0 -44 -32 -84t-94 -40zM42 0v21q54 0 63 20v503q-9 20 -63 20v21h403v-97h-21q0 54 -20 63h-207v-230h140q20 9 20 63h21v-160h-21q0 54 -20 63h-140v-253h228q25 11 45 63h20
l-24 -97h-424z" />
    <glyph glyph-name="ebreve" unicode="&#x115;" horiz-adv-x="493" 
d="M244 525q-61 0 -93.5 40.5t-32.5 83.5h28q0 -20 25.5 -36t72.5 -16t72.5 15.5t25.5 36.5h28q0 -44 -32 -84t-94 -40zM134 241q1 -84 48.5 -148.5t106.5 -64.5q87 0 140 66l24 -12q-29 -48 -75.5 -70t-122.5 -22q-38 0 -73 11.5t-69 38t-54 78.5t-20 124q0 88 54.5 148
t151.5 60q106 0 158 -59.5t52 -149.5h-321zM135 272h222q-6 72 -30.5 110t-85.5 38q-35 0 -67.5 -41t-38.5 -107z" />
    <glyph glyph-name="Edotaccent" unicode="&#x116;" horiz-adv-x="507" 
d="M217 672q0 21 15 36t36 15t36 -15t15 -36t-15 -36t-36 -15t-36 15t-15 36zM42 0v21q54 0 63 20v503q-9 20 -63 20v21h403v-97h-21q0 54 -20 63h-207v-230h140q20 9 20 63h21v-160h-21q0 54 -20 63h-140v-253h228q25 11 45 63h20l-24 -97h-424z" />
    <glyph glyph-name="edotaccent" unicode="&#x117;" horiz-adv-x="493" 
d="M193 567q0 21 15 36t36 15t36 -15t15 -36t-15 -36t-36 -15t-36 15t-15 36zM134 241q1 -84 48.5 -148.5t106.5 -64.5q87 0 140 66l24 -12q-29 -48 -75.5 -70t-122.5 -22q-38 0 -73 11.5t-69 38t-54 78.5t-20 124q0 88 54.5 148t151.5 60q106 0 158 -59.5t52 -149.5h-321z
M135 272h222q-6 72 -30.5 110t-85.5 38q-35 0 -67.5 -41t-38.5 -107z" />
    <glyph glyph-name="Eogonek" unicode="&#x118;" horiz-adv-x="507" 
d="M42 0v21q54 0 63 20v503q-9 20 -63 20v21h403v-97h-21q0 54 -20 63h-207v-230h140q20 9 20 63h21v-160h-21q0 54 -20 63h-140v-253h228q25 11 45 63h20l-24 -97h-48q-27 -34 -27 -59q0 -49 27 -78t61 -29q6 0 14 4t13 8l4 4l11 -18q-2 -4 -7 -9t-25.5 -14t-46.5 -9
q-49 0 -74.5 25.5t-25.5 71.5q0 58 48 103h-348z" />
    <glyph glyph-name="eogonek" unicode="&#x119;" horiz-adv-x="494" 
d="M136 272h222q-6 72 -30.5 110t-85.5 38q-35 0 -67.5 -41t-38.5 -107zM135 241l-1 -1q1 -84 48.5 -148.5t106.5 -64.5q87 0 140 66l24 -12q-46 -76 -148 -89q-21 -29 -21 -51q0 -49 27 -78t61 -29q6 0 14 4t12 8l5 4l11 -18q-2 -4 -7 -9t-25.5 -14t-46.5 -9
q-49 0 -74.5 25.5t-25.5 71.5q0 52 39 93h-18q-38 0 -73 11.5t-69 38t-54 78.5t-20 124q0 88 54.5 148t151.5 60q106 0 158 -59.5t52 -149.5h-321z" />
    <glyph glyph-name="Ecaron" unicode="&#x11a;" horiz-adv-x="507" 
d="M244 620l-94 162h26l93 -87l93 87h26l-94 -162h-50zM42 0v21q54 0 63 20v503q-9 20 -63 20v21h403v-97h-21q0 54 -20 63h-207v-230h140q20 9 20 63h21v-160h-21q0 54 -20 63h-140v-253h228q25 11 45 63h20l-24 -97h-424z" />
    <glyph glyph-name="ecaron" unicode="&#x11b;" horiz-adv-x="493" 
d="M220 515l-94 162h26l93 -87l93 87h26l-94 -162h-50zM134 241q1 -84 48.5 -148.5t106.5 -64.5q87 0 140 66l24 -12q-29 -48 -75.5 -70t-122.5 -22q-38 0 -73 11.5t-69 38t-54 78.5t-20 124q0 88 54.5 148t151.5 60q106 0 158 -59.5t52 -149.5h-321zM135 272h222
q-6 72 -30.5 110t-85.5 38q-35 0 -67.5 -41t-38.5 -107z" />
    <glyph glyph-name="Gcircumflex" unicode="&#x11c;" horiz-adv-x="617" 
d="M367 782l94 -162h-26l-93 87l-93 -87h-26l94 162h50zM354 561q-86 0 -148 -80.5t-62 -194.5q0 -69 18 -122t48 -82.5t63 -43.5t67 -14q56 0 106 19v205q-9 20 -63 20v21h218v-21q-54 0 -63 -20v-168q-17 -32 -68.5 -61t-131.5 -29q-134 0 -216 87t-82 207q0 139 94 225
t219 86q29 0 72 -15t49 -15q12 0 12 20h23l10 -127h-22q-6 44 -44 73.5t-99 29.5z" />
    <glyph glyph-name="gcircumflex" unicode="&#x11d;" horiz-adv-x="520" 
d="M295 677l94 -162h-26l-93 87l-93 -87h-26l94 162h50zM452 450v-421q0 -103 -49.5 -166t-144.5 -63q-85 0 -136.5 29t-51.5 61q0 23 12 36.5t31 13.5q18 0 31.5 -9t13.5 -26q0 -32 -25 -42q27 -27 115 -27q103 0 113 184q-46 -30 -118 -30q-33 0 -65.5 10.5t-65 34.5
t-53 71.5t-20.5 111.5q0 112 62.5 172t163.5 60q63 0 110 -32q51 32 77 32zM362 53v12v330q-36 21 -91 21t-96 -52.5t-41 -145.5q0 -88 33 -141t86 -53q66 0 109 29z" />
    <glyph glyph-name="Gbreve" unicode="&#x11e;" horiz-adv-x="617" 
d="M342 630q-61 0 -93.5 40.5t-32.5 83.5h28q0 -20 25.5 -36t72.5 -16t72.5 15.5t25.5 36.5h28q0 -44 -32 -84t-94 -40zM354 561q-86 0 -148 -80.5t-62 -194.5q0 -69 18 -122t48 -82.5t63 -43.5t67 -14q56 0 106 19v205q-9 20 -63 20v21h218v-21q-54 0 -63 -20v-168
q-17 -32 -68.5 -61t-131.5 -29q-134 0 -216 87t-82 207q0 139 94 225t219 86q29 0 72 -15t49 -15q12 0 12 20h23l10 -127h-22q-6 44 -44 73.5t-99 29.5z" />
    <glyph glyph-name="gbreve" unicode="&#x11f;" horiz-adv-x="520" 
d="M270 525q-61 0 -93.5 40.5t-32.5 83.5h28q0 -20 25.5 -36t72.5 -16t72.5 15.5t25.5 36.5h28q0 -44 -32 -84t-94 -40zM452 450v-421q0 -103 -49.5 -166t-144.5 -63q-85 0 -136.5 29t-51.5 61q0 23 12 36.5t31 13.5q18 0 31.5 -9t13.5 -26q0 -32 -25 -42q27 -27 115 -27
q103 0 113 184q-46 -30 -118 -30q-33 0 -65.5 10.5t-65 34.5t-53 71.5t-20.5 111.5q0 112 62.5 172t163.5 60q63 0 110 -32q51 32 77 32zM362 53v12v330q-36 21 -91 21t-96 -52.5t-41 -145.5q0 -88 33 -141t86 -53q66 0 109 29z" />
    <glyph glyph-name="Gdotaccent" unicode="&#x120;" horiz-adv-x="617" 
d="M291 672q0 21 15 36t36 15t36 -15t15 -36t-15 -36t-36 -15t-36 15t-15 36zM354 561q-86 0 -148 -80.5t-62 -194.5q0 -69 18 -122t48 -82.5t63 -43.5t67 -14q56 0 106 19v205q-9 20 -63 20v21h218v-21q-54 0 -63 -20v-168q-17 -32 -68.5 -61t-131.5 -29q-134 0 -216 87
t-82 207q0 139 94 225t219 86q29 0 72 -15t49 -15q12 0 12 20h23l10 -127h-22q-6 44 -44 73.5t-99 29.5z" />
    <glyph glyph-name="gdotaccent" unicode="&#x121;" horiz-adv-x="520" 
d="M219 567q0 21 15 36t36 15t36 -15t15 -36t-15 -36t-36 -15t-36 15t-15 36zM452 450v-421q0 -103 -49.5 -166t-144.5 -63q-85 0 -136.5 29t-51.5 61q0 23 12 36.5t31 13.5q18 0 31.5 -9t13.5 -26q0 -32 -25 -42q27 -27 115 -27q103 0 113 184q-46 -30 -118 -30
q-33 0 -65.5 10.5t-65 34.5t-53 71.5t-20.5 111.5q0 112 62.5 172t163.5 60q63 0 110 -32q51 32 77 32zM362 53v12v330q-36 21 -91 21t-96 -52.5t-41 -145.5q0 -88 33 -141t86 -53q66 0 109 29z" />
    <glyph glyph-name="Gcommaaccent" unicode="&#x122;" horiz-adv-x="617" 
d="M327 -125q-51 0 -51 44q0 18 10.5 28.5t19.5 12.5t16 2q38 0 65 -23.5t27 -63.5q0 -84 -124 -123v28q25 3 51.5 27.5t26.5 55.5q0 18 -2 21.5t-8 3.5q-3 0 -11.5 -6.5t-19.5 -6.5zM354 561q-86 0 -148 -80.5t-62 -194.5q0 -69 18 -122t48 -82.5t63 -43.5t67 -14
q56 0 106 19v205q-9 20 -63 20v21h218v-21q-54 0 -63 -20v-168q-17 -32 -68.5 -61t-131.5 -29q-134 0 -216 87t-82 207q0 139 94 225t219 86q29 0 72 -15t49 -15q12 0 12 20h23l10 -127h-22q-6 44 -44 73.5t-99 29.5z" />
    <glyph glyph-name="gcommaaccent" unicode="&#x123;" horiz-adv-x="520" 
d="M265 603q51 0 51 -44q0 -18 -10.5 -28.5t-19.5 -12.5t-16 -2q-38 0 -65 23.5t-27 63.5q0 84 124 123v-28q-25 -3 -51.5 -27.5t-26.5 -55.5q0 -18 2 -21.5t8 -3.5q3 0 11.5 6.5t19.5 6.5zM452 450v-421q0 -103 -49.5 -166t-144.5 -63q-85 0 -136.5 29t-51.5 61
q0 23 12 36.5t31 13.5q18 0 31.5 -9t13.5 -26q0 -32 -25 -42q27 -27 115 -27q103 0 113 184q-46 -30 -118 -30q-33 0 -65.5 10.5t-65 34.5t-53 71.5t-20.5 111.5q0 112 62.5 172t163.5 60q63 0 110 -32q51 32 77 32zM362 53v12v330q-36 21 -91 21t-96 -52.5t-41 -145.5
q0 -88 33 -141t86 -53q66 0 109 29z" />
    <glyph glyph-name="Hcircumflex" unicode="&#x124;" horiz-adv-x="650" 
d="M351 782l94 -162h-26l-93 87l-93 -87h-26l94 162h50zM42 0v21q54 0 63 20v503q-9 20 -63 20v21h218v-21q-54 0 -63 -20v-223h256v223q-9 20 -63 20v21h218v-21q-54 0 -63 -20v-503q9 -20 63 -20v-21h-218v21q54 0 63 20v246h-256v-246q9 -20 63 -20v-21h-218z" />
    <glyph glyph-name="hcircumflex" unicode="&#x125;" horiz-adv-x="550" 
d="M156 817l94 -162h-26l-93 87l-93 -87h-26l94 162h50zM21 0v21q54 0 63 20v518q-62 5 -63 5v23q19 0 74.5 21.5t78.5 21.5v-226q54 46 119 46q95 0 135.5 -31t40.5 -107v-271q9 -20 63 -20v-21h-216v21q54 0 63 20v278q0 97 -92 97q-63 0 -113 -44v-331q9 -20 63 -20v-21
h-216z" />
    <glyph glyph-name="Hbar" unicode="&#x126;" horiz-adv-x="650" 
d="M42 0v21q54 0 63 20v362h-35v34h35v107q-9 20 -63 20v21h218v-21q-54 0 -63 -20v-107h256v107q-9 20 -63 20v21h218v-21q-54 0 -63 -20v-107h33v-34h-33v-362q9 -20 63 -20v-21h-218v21q54 0 63 20v246h-256v-246q9 -20 63 -20v-21h-218zM453 403h-256v-82h256v82z" />
    <glyph glyph-name="hbar" unicode="&#x127;" horiz-adv-x="550" 
d="M21 0v21q54 0 63 20v458h-60v34h60v26q-62 5 -63 5v23q19 0 74.5 21.5t78.5 21.5v-97h114v-34h-114v-95q54 46 119 46q95 0 135.5 -31t40.5 -107v-271q9 -20 63 -20v-21h-216v21q54 0 63 20v278q0 97 -92 97q-63 0 -113 -44v-331q9 -20 63 -20v-21h-216z" />
    <glyph glyph-name="Itilde" unicode="&#x128;" horiz-adv-x="302" 
d="M224 620q-22 0 -81.5 29.5t-73.5 29.5q-28 0 -39 -14.5t-11 -44.5h-19q0 112 76 112q22 0 82 -29.5t74 -29.5q28 0 39 14.5t11 44.5h19q0 -112 -77 -112zM42 0v21q54 0 63 20v503q-9 20 -63 20v21h218v-21q-54 0 -63 -20v-503q9 -20 63 -20v-21h-218z" />
    <glyph glyph-name="itilde" unicode="&#x129;" horiz-adv-x="268" 
d="M216 515q-22 0 -81.5 29.5t-73.5 29.5q-28 0 -39 -14.5t-11 -44.5h-19q0 112 76 112q22 0 82 -29.5t74 -29.5q28 0 39 14.5t11 44.5h19q0 -112 -77 -112zM31 0v21q54 0 63 20v338q-62 5 -63 5v23q19 0 74.5 21.5t78.5 21.5v-409q9 -20 63 -20v-21h-216z" />
    <glyph glyph-name="Imacron" unicode="&#x12a;" horiz-adv-x="302" 
d="M18 678h264v-44h-264v44zM42 0v21q54 0 63 20v503q-9 20 -63 20v21h218v-21q-54 0 -63 -20v-503q9 -20 63 -20v-21h-218z" />
    <glyph glyph-name="imacron" unicode="&#x12b;" horiz-adv-x="268" 
d="M3 573h264v-44h-264v44zM31 0v21q54 0 63 20v338q-62 5 -63 5v23q19 0 74.5 21.5t78.5 21.5v-409q9 -20 63 -20v-21h-216z" />
    <glyph glyph-name="Ibreve" unicode="&#x12c;" horiz-adv-x="302" 
d="M149 630q-61 0 -93.5 40.5t-32.5 83.5h28q0 -20 25.5 -36t72.5 -16t72.5 15.5t25.5 36.5h28q0 -44 -32 -84t-94 -40zM42 0v21q54 0 63 20v503q-9 20 -63 20v21h218v-21q-54 0 -63 -20v-503q9 -20 63 -20v-21h-218z" />
    <glyph glyph-name="ibreve" unicode="&#x12d;" horiz-adv-x="268" 
d="M141 525q-61 0 -93.5 40.5t-32.5 83.5h28q0 -20 25.5 -36t72.5 -16t72.5 15.5t25.5 36.5h28q0 -44 -32 -84t-94 -40zM31 0v21q54 0 63 20v338q-62 5 -63 5v23q19 0 74.5 21.5t78.5 21.5v-409q9 -20 63 -20v-21h-216z" />
    <glyph glyph-name="Iogonek" unicode="&#x12e;" horiz-adv-x="302" 
d="M42 0v21q54 0 63 20v503q-9 20 -63 20v21h218v-21q-54 0 -63 -20v-503q9 -20 63 -20v-21h-47q-27 -34 -27 -59q0 -49 27 -78t61 -29q6 0 14 4t12 8l5 4l11 -18q-2 -4 -7 -9t-25.5 -14t-46.5 -9q-49 0 -74.5 25.5t-25.5 71.5q0 58 48 103h-143z" />
    <glyph glyph-name="iogonek" unicode="&#x12f;" horiz-adv-x="268" 
d="M136 514q-22 0 -38.5 16.5t-16.5 42.5q0 23 14.5 40t37.5 17q22 0 39 -17t17 -43q0 -23 -15 -39.5t-38 -16.5zM31 0v21q54 0 63 20v338q-62 5 -63 5v23q19 0 74.5 21.5t78.5 21.5v-409q9 -20 63 -20v-21h-59q-27 -34 -27 -59q0 -49 27 -78t61 -29q6 0 14 4t13 8l4 4
l11 -18q-2 -4 -7 -9t-25.5 -14t-46.5 -9q-49 0 -74.5 25.5t-25.5 71.5q0 58 48 103h-129z" />
    <glyph glyph-name="Idotaccent" unicode="&#x130;" horiz-adv-x="302" 
d="M98 672q0 21 15 36t36 15t36 -15t15 -36t-15 -36t-36 -15t-36 15t-15 36zM42 0v21q54 0 63 20v503q-9 20 -63 20v21h218v-21q-54 0 -63 -20v-503q9 -20 63 -20v-21h-218z" />
    <glyph glyph-name="dotlessi" unicode="&#x131;" horiz-adv-x="268" 
d="M31 0v21q54 0 63 20v338q-62 5 -63 5v23q19 0 74.5 21.5t78.5 21.5v-409q9 -20 63 -20v-21h-216z" />
    <glyph glyph-name="IJ" unicode="&#x132;" horiz-adv-x="687" 
d="M598 172q0 -35 -8 -65t-25.5 -57.5t-51.5 -43.5t-81 -16q-71 0 -110.5 28.5t-39.5 61.5q0 23 12 36.5t31 13.5q18 0 31.5 -9t13.5 -26q0 -34 -25 -42q27 -27 77 -27q23 0 39 8.5t25 22t13.5 39t5.5 49t1 63.5v336q-9 20 -63 20v21h218v-21q-54 0 -63 -20v-372zM42 0v21
q54 0 63 20v503q-9 20 -63 20v21h218v-21q-54 0 -63 -20v-503q9 -20 63 -20v-21h-218z" />
    <glyph glyph-name="ij" unicode="&#x133;" horiz-adv-x="509" 
d="M393 514q-22 0 -38.5 16.5t-16.5 42.5q0 23 14.5 40t37.5 17q22 0 39 -17t17 -43q0 -23 -15 -39.5t-38 -16.5zM351 379l-63 5v23q19 0 74.5 21.5t78.5 21.5v-494q0 -81 -38.5 -118.5t-95.5 -37.5q-130 0 -130 87q0 18 13.5 29t29.5 11t27.5 -11t11.5 -28q0 -14 -10 -24
q0 -17 14 -25.5t34 -8.5t37 29.5t17 82.5v437zM31 0v21q54 0 63 20v338q-62 5 -63 5v23q19 0 74.5 21.5t78.5 21.5v-409q9 -20 63 -20v-21h-216zM136 514q-22 0 -38.5 16.5t-16.5 42.5q0 23 14.5 40t37.5 17q22 0 39 -17t17 -43q0 -23 -15 -39.5t-38 -16.5z" />
    <glyph glyph-name="Jcircumflex" unicode="&#x134;" horiz-adv-x="412" 
d="M303 782l94 -162h-26l-93 87l-93 -87h-26l94 162h50zM323 172q0 -35 -8 -65t-25.5 -57.5t-51.5 -43.5t-81 -16q-71 0 -110.5 28.5t-39.5 61.5q0 23 12 36.5t31 13.5q18 0 31.5 -9t13.5 -26q0 -34 -25 -42q27 -27 77 -27q23 0 39 8.5t25 22t13.5 39t5.5 49t1 63.5v336
q-9 20 -63 20v21h218v-21q-54 0 -63 -20v-372z" />
    <glyph glyph-name="jcircumflex" unicode="&#x135;" horiz-adv-x="243" 
d="M152 677l94 -162h-26l-93 87l-93 -87h-26l94 162h50zM85 379l-63 5v23q19 0 74.5 21.5t78.5 21.5v-494q0 -81 -38.5 -118.5t-95.5 -37.5q-130 0 -130 87q0 18 13.5 29t29.5 11t27.5 -11t11.5 -28q0 -14 -10 -24q0 -17 14 -25.5t34 -8.5t37 29.5t17 82.5v437z" />
    <glyph glyph-name="Kcommaaccent" unicode="&#x136;" horiz-adv-x="579" 
d="M315 -125q-51 0 -51 44q0 18 10.5 28.5t19.5 12.5t16 2q38 0 65 -23.5t27 -63.5q0 -84 -124 -123v28q25 3 51.5 27.5t26.5 55.5q0 18 -2 21.5t-8 3.5q-3 0 -11.5 -6.5t-19.5 -6.5zM41 0v21q54 0 63 20v503q-9 20 -63 20v21h216v-21q-54 0 -63 -20v-503q9 -20 63 -20v-21
h-216zM390 0v21q24 0 37 3l-228 290l245 243q-14 7 -51 7v21h157v-21q-42 0 -62 -23l-201 -199l235 -305q16 -16 63 -16v-21h-195z" />
    <glyph glyph-name="kcommaaccent" unicode="&#x137;" horiz-adv-x="503" 
d="M274 -125q-51 0 -51 44q0 18 10.5 28.5t19.5 12.5t16 2q38 0 65 -23.5t27 -63.5q0 -84 -124 -123v28q25 3 51.5 27.5t26.5 55.5q0 18 -1.5 21.5t-8.5 3.5q-3 0 -11.5 -6.5t-19.5 -6.5zM21 0v21q54 0 63 20v518q-62 5 -63 5v23q19 0 74.5 21.5t78.5 21.5v-589
q9 -20 63 -20v-21h-216zM310 0v21q24 0 38 3l-167 230l177 159q-15 6 -49 6v21h157v-21q-37 0 -54 -13l-142 -127l172 -239q14 -19 63 -19v-21h-195z" />
    <glyph glyph-name="Lacute" unicode="&#x139;" horiz-adv-x="495" 
d="M212 782h106l-154 -162h-26zM42 0v21q54 0 63 20v503q-9 20 -63 20v21h218v-21q-54 0 -63 -20v-510h228q25 11 45 63h20l-24 -97h-424z" />
    <glyph glyph-name="lacute" unicode="&#x13a;" horiz-adv-x="258" 
d="M192 817h106l-154 -162h-26zM21 0v21q54 0 63 20v518q-62 5 -63 5v23q19 0 74.5 21.5t78.5 21.5v-589q9 -20 63 -20v-21h-216z" />
    <glyph glyph-name="Lcommaaccent" unicode="&#x13b;" horiz-adv-x="493" 
d="M269 -125q-51 0 -51 44q0 18 10.5 28.5t19.5 12.5t16 2q38 0 65 -23.5t27 -63.5q0 -84 -124 -123v28q25 3 51.5 27.5t26.5 55.5q0 18 -2 21.5t-8 3.5q-3 0 -11.5 -6.5t-19.5 -6.5zM41 0v21q54 0 63 20v503q-9 20 -63 20v21h218v-21q-54 0 -63 -20v-510h228q25 11 45 63
h20l-24 -97h-424z" />
    <glyph glyph-name="lcommaaccent" unicode="&#x13c;" horiz-adv-x="258" 
d="M134 -125q-51 0 -51 44q0 18 10.5 28.5t19.5 12.5t16 2q38 0 65 -23.5t27 -63.5q0 -84 -124 -123v28q25 3 51.5 27.5t26.5 55.5q0 18 -1.5 21.5t-8.5 3.5q-3 0 -11.5 -6.5t-19.5 -6.5zM21 0v21q54 0 63 20v518q-62 5 -63 5v23q19 0 74.5 21.5t78.5 21.5v-589
q9 -20 63 -20v-21h-216z" />
    <glyph glyph-name="Lcaron" unicode="&#x13d;" horiz-adv-x="498" 
d="M347 508q-51 0 -51 44q0 18 10.5 28.5t19.5 12.5t16 2q38 0 65 -23.5t27 -63.5q0 -84 -124 -123v28q25 3 51.5 27.5t26.5 55.5q0 18 -2 21.5t-8 3.5q-3 0 -11.5 -6.5t-19.5 -6.5zM42 0v21q54 0 63 20v503q-9 20 -63 20v21h218v-21q-54 0 -63 -20v-510h228q25 11 45 63h20
l-24 -97h-424z" />
    <glyph glyph-name="lcaron" unicode="&#x13e;" horiz-adv-x="287" 
d="M270 543q-51 0 -51 44q0 18 10.5 28.5t19.5 12.5t16 2q38 0 65 -23.5t27 -63.5q0 -84 -124 -123v28q25 3 51.5 27.5t26.5 55.5q0 18 -1.5 21.5t-8.5 3.5q-3 0 -11.5 -6.5t-19.5 -6.5zM21 0v21q54 0 63 20v518q-62 5 -63 5v23q19 0 74.5 21.5t78.5 21.5v-589q9 -20 63 -20
v-21h-216z" />
    <glyph glyph-name="Ldot" unicode="&#x13f;" horiz-adv-x="496" 
d="M305 308q0 21 15 36t36 15t36 -15t15 -36t-15 -36t-36 -15t-36 15t-15 36zM42 0v21q54 0 63 20v503q-9 20 -63 20v21h218v-21q-54 0 -63 -20v-510h228q25 11 45 63h20l-24 -97h-424z" />
    <glyph glyph-name="ldot" unicode="&#x140;" horiz-adv-x="284" 
d="M221 308q0 21 15 36t36 15t36 -15t15 -36t-15 -36t-36 -15t-36 15t-15 36zM21 0v21q54 0 63 20v518q-62 5 -63 5v23q19 0 74.5 21.5t78.5 21.5v-589q9 -20 63 -20v-21h-216z" />
    <glyph glyph-name="Lslash" unicode="&#x141;" horiz-adv-x="495" 
d="M42 0v21q54 0 63 20v239l-44 -37l-22 26l66 56v219q-9 20 -63 20v21h218v-21q-54 0 -63 -20v-142l44 37l22 -26l-66 -56v-323h228q25 11 45 63h20l-24 -97h-424z" />
    <glyph glyph-name="lslash" unicode="&#x142;" horiz-adv-x="259" 
d="M22 0v21q54 0 63 20v240l-45 -38l-22 26l67 56v234l-63 5v23q19 0 74.5 21.5t78.5 21.5v-229l45 38l22 -26l-67 -56v-316q9 -20 63 -20v-21h-216z" />
    <glyph glyph-name="Nacute" unicode="&#x143;" horiz-adv-x="638" 
d="M379 782h106l-154 -162h-26zM42 0v21q54 0 63 20v503q-9 20 -63 20v21h134l331 -409v368q-9 20 -63 20v21h160v-21q-54 0 -63 -20v-544h-9l-393 497v-456q9 -20 63 -20v-21h-160z" />
    <glyph glyph-name="nacute" unicode="&#x144;" horiz-adv-x="559" 
d="M349 678h106l-154 -162h-26zM31 0v21q54 0 63 20v338q-62 5 -63 5v23q19 0 74.5 21.5t78.5 21.5v-46q54 46 119 46q93 0 134.5 -34.5t41.5 -107.5v-267q9 -20 63 -20v-21h-216v21q54 0 63 20v274q0 101 -92 101q-63 0 -113 -44v-331q9 -20 63 -20v-21h-216z" />
    <glyph glyph-name="Ncommaaccent" unicode="&#x145;" horiz-adv-x="637" 
d="M321 -125q-51 0 -51 44q0 18 10.5 28.5t19.5 12.5t16 2q38 0 65 -23.5t27 -63.5q0 -84 -124 -123v28q25 3 51.5 27.5t26.5 55.5q0 18 -2 21.5t-8 3.5q-3 0 -11.5 -6.5t-19.5 -6.5zM41 0v21q54 0 63 20v503q-9 20 -63 20v21h134l331 -409v368q-9 20 -63 20v21h160v-21
q-54 0 -63 -20v-544h-9l-393 497v-456q9 -20 63 -20v-21h-160z" />
    <glyph glyph-name="ncommaaccent" unicode="&#x146;" horiz-adv-x="559" 
d="M288 -125q-51 0 -51 44q0 18 10.5 28.5t19.5 12.5t16 2q38 0 65 -23.5t27 -63.5q0 -84 -124 -123v28q25 3 51.5 27.5t26.5 55.5q0 18 -1.5 21.5t-8.5 3.5q-3 0 -11.5 -6.5t-19.5 -6.5zM31 0v21q54 0 63 20v338q-62 5 -63 5v23q19 0 74.5 21.5t78.5 21.5v-46q54 46 119 46
q93 0 134.5 -34.5t41.5 -107.5v-267q9 -20 63 -20v-21h-216v21q54 0 63 20v274q0 101 -92 101q-63 0 -113 -44v-331q9 -20 63 -20v-21h-216z" />
    <glyph glyph-name="Ncaron" unicode="&#x147;" horiz-adv-x="638" 
d="M294 620l-94 162h26l93 -87l93 87h26l-94 -162h-50zM42 0v21q54 0 63 20v503q-9 20 -63 20v21h134l331 -409v368q-9 20 -63 20v21h160v-21q-54 0 -63 -20v-544h-9l-393 497v-456q9 -20 63 -20v-21h-160z" />
    <glyph glyph-name="ncaron" unicode="&#x148;" horiz-adv-x="559" 
d="M264 516l-94 162h26l93 -87l93 87h26l-94 -162h-50zM31 0v21q54 0 63 20v338q-62 5 -63 5v23q19 0 74.5 21.5t78.5 21.5v-46q54 46 119 46q93 0 134.5 -34.5t41.5 -107.5v-267q9 -20 63 -20v-21h-216v21q54 0 63 20v274q0 101 -92 101q-63 0 -113 -44v-331q9 -20 63 -20
v-21h-216z" />
    <glyph glyph-name="napostrophe" unicode="&#x149;" horiz-adv-x="559" 
d="M31 0v21q54 0 63 20v338q-62 5 -63 5v23q19 0 74.5 21.5t78.5 21.5v-46q54 46 119 46q93 0 134.5 -34.5t41.5 -107.5v-267q9 -20 63 -20v-21h-216v21q54 0 63 20v274q0 101 -92 101q-63 0 -113 -44v-331q9 -20 63 -20v-21h-216zM27 578q-51 0 -51 44q0 18 10.5 28.5
t19.5 12.5t16 2q38 0 65 -23.5t27 -63.5q0 -84 -124 -123v28q25 3 51.5 27.5t26.5 55.5q0 18 -2 21.5t-8 3.5q-3 0 -11.5 -6.5t-19.5 -6.5z" />
    <glyph glyph-name="Eng" unicode="&#x14a;" horiz-adv-x="646" 
d="M42 0v21q54 0 63 20v503q-9 20 -63 20v21h155v-94q35 49 81 76.5t90 27.5q228 0 228 -285q0 -157 -46.5 -238.5t-127.5 -81.5q-48 0 -90 18t-42 50q0 14 13 25t29 11q23 0 46 -44l9.5 -17.5t8.5 -8.5t16 -4q92 0 92 262q0 135 -33.5 207t-112.5 72q-43 0 -87.5 -38.5
t-73.5 -96.5v-385q9 -20 63 -20v-21h-218z" />
    <glyph glyph-name="eng" unicode="&#x14b;" horiz-adv-x="542" 
d="M31 0v21q54 0 63 20v338q-62 5 -63 5v23q19 0 74.5 21.5t78.5 21.5v-46q54 46 119 46q93 0 134.5 -34.5t41.5 -107.5v-352q0 -82 -34 -119t-90 -37q-48 0 -90 18t-42 50q0 14 13 25t29 11q23 0 46 -44l9.5 -17.5t8.5 -8.5t16 -4q19 0 31.5 29t12.5 83v373q0 101 -92 101
q-63 0 -113 -44v-331q9 -20 63 -20v-21h-216z" />
    <glyph glyph-name="Omacron" unicode="&#x14c;" horiz-adv-x="641" 
d="M190 678h264v-44h-264v44zM144 300q0 -66 18.5 -126.5t61 -105t101.5 -44.5t99.5 42t57 98.5t16.5 119.5q0 65 -19 126.5t-61.5 106t-100.5 44.5q-45 0 -79.5 -24t-54 -63.5t-29.5 -83.5t-10 -90zM44 292q0 125 78 214t199 89t199 -89t78 -214t-78.5 -213.5t-198.5 -88.5
q-122 0 -199.5 88t-77.5 214z" />
    <glyph glyph-name="omacron" unicode="&#x14d;" horiz-adv-x="545" 
d="M140 573h264v-44h-264v44zM135 248q0 -114 43.5 -171t111.5 -57q54 0 87 48.5t33 124.5q0 226 -157 226q-53 0 -85.5 -50.5t-32.5 -120.5zM277 -10q-112 0 -175 65.5t-63 172.5q0 97 57 159.5t174 62.5q118 0 177 -62.5t59 -171.5q0 -97 -56.5 -161.5t-172.5 -64.5z" />
    <glyph glyph-name="Obreve" unicode="&#x14e;" horiz-adv-x="641" 
d="M321 630q-61 0 -93.5 40.5t-32.5 83.5h28q0 -20 25.5 -36t72.5 -16t72.5 15.5t25.5 36.5h28q0 -44 -32 -84t-94 -40zM144 300q0 -66 18.5 -126.5t61 -105t101.5 -44.5t99.5 42t57 98.5t16.5 119.5q0 65 -19 126.5t-61.5 106t-100.5 44.5q-45 0 -79.5 -24t-54 -63.5
t-29.5 -83.5t-10 -90zM44 292q0 125 78 214t199 89t199 -89t78 -214t-78.5 -213.5t-198.5 -88.5q-122 0 -199.5 88t-77.5 214z" />
    <glyph glyph-name="obreve" unicode="&#x14f;" horiz-adv-x="545" 
d="M274 525q-61 0 -93.5 40.5t-32.5 83.5h28q0 -20 25.5 -36t72.5 -16t72.5 15.5t25.5 36.5h28q0 -44 -32 -84t-94 -40zM135 248q0 -114 43.5 -171t111.5 -57q54 0 87 48.5t33 124.5q0 226 -157 226q-53 0 -85.5 -50.5t-32.5 -120.5zM277 -10q-112 0 -175 65.5t-63 172.5
q0 97 57 159.5t174 62.5q118 0 177 -62.5t59 -171.5q0 -97 -56.5 -161.5t-172.5 -64.5z" />
    <glyph glyph-name="Ohungarumlaut" unicode="&#x150;" horiz-adv-x="641" 
d="M456 782h106l-154 -162h-26zM296 782h106l-154 -162h-26zM144 300q0 -66 18.5 -126.5t61 -105t101.5 -44.5t99.5 42t57 98.5t16.5 119.5q0 65 -19 126.5t-61.5 106t-100.5 44.5q-45 0 -79.5 -24t-54 -63.5t-29.5 -83.5t-10 -90zM44 292q0 125 78 214t199 89t199 -89
t78 -214t-78.5 -213.5t-198.5 -88.5q-122 0 -199.5 88t-77.5 214z" />
    <glyph glyph-name="ohungarumlaut" unicode="&#x151;" horiz-adv-x="545" 
d="M409 677h106l-154 -162h-26zM249 677h106l-154 -162h-26zM135 248q0 -114 43.5 -171t111.5 -57q54 0 87 48.5t33 124.5q0 226 -157 226q-53 0 -85.5 -50.5t-32.5 -120.5zM277 -10q-112 0 -175 65.5t-63 172.5q0 97 57 159.5t174 62.5q118 0 177 -62.5t59 -171.5
q0 -97 -56.5 -161.5t-172.5 -64.5z" />
    <glyph glyph-name="OE" unicode="&#x152;" horiz-adv-x="820" 
d="M394 0q-33 -10 -73 -10q-122 0 -199.5 88t-77.5 214q0 125 78 214t199 89q41 0 74 -10h363v-97h-21q0 54 -20 63h-207v-230h140q20 9 20 63h21v-160h-21q0 54 -20 63h-140v-253h228q25 11 45 63h20l-24 -97h-385zM418 59v458q-44 44 -101 44q-45 0 -79.5 -24t-54 -63.5
t-29.5 -83.5t-10 -90q0 -66 18.5 -126.5t61 -105t101.5 -44.5q53 0 93 35z" />
    <glyph glyph-name="oe" unicode="&#x153;" horiz-adv-x="864" 
d="M277 -10q-112 0 -175 65.5t-63 172.5q0 97 57 159.5t174 62.5q124 0 185 -72q57 72 162 72q106 0 158 -59.5t52 -149.5h-321q1 -84 48.5 -148.5t106.5 -64.5q87 0 140 66l24 -12q-29 -48 -75.5 -70t-122.5 -22q-108 0 -167 77q-60 -77 -183 -77zM135 248
q0 -114 43.5 -171t111.5 -57q54 0 87 48.5t33 124.5q0 226 -157 226q-53 0 -85.5 -50.5t-32.5 -120.5zM507 272h222q-6 72 -30.5 110t-85.5 38q-35 0 -67.5 -41t-38.5 -107z" />
    <glyph glyph-name="Racute" unicode="&#x154;" horiz-adv-x="581" 
d="M345 782h106l-154 -162h-26zM42 0v21q54 0 63 20v503q-9 20 -63 20v21h226q124 0 188 -45t64 -103q0 -55 -33 -96.5t-98 -60.5l133 -238q10 -21 66 -21v-21h-43q-70 0 -91 8t-42 44l-121 214h-94v-225q9 -20 63 -20v-21h-218zM197 551v-251h83q80 0 110 31t30 105
q0 55 -33.5 85t-118.5 30h-71z" />
    <glyph glyph-name="racute" unicode="&#x155;" horiz-adv-x="395" 
d="M274 677h106l-154 -162h-26zM31 0v21q54 0 63 20v338q-62 5 -63 5v23q19 0 74.5 21.5t78.5 21.5v-44q50 44 99 44q45 0 75.5 -17t30.5 -38q0 -36 -40 -36q-21 0 -38 28.5t-39 28.5q-39 0 -88 -43v-332q9 -20 63 -20v-21h-216z" />
    <glyph glyph-name="Rcommaaccent" unicode="&#x156;" horiz-adv-x="580" 
d="M325 -125q-51 0 -51 44q0 18 10.5 28.5t19.5 12.5t16 2q38 0 65 -23.5t27 -63.5q0 -84 -124 -123v28q25 3 51.5 27.5t26.5 55.5q0 18 -2 21.5t-8 3.5q-3 0 -11.5 -6.5t-19.5 -6.5zM41 0v21q54 0 63 20v503q-9 20 -63 20v21h226q124 0 188 -45t64 -103q0 -55 -33 -96.5
t-98 -60.5l133 -238q11 -21 66 -21v-21h-43q-70 0 -91 8t-42 44l-121 214h-94v-225q9 -20 63 -20v-21h-218zM196 551v-251h83q80 0 110 31t30 105q0 55 -33.5 85t-118.5 30h-71z" />
    <glyph glyph-name="rcommaaccent" unicode="&#x157;" horiz-adv-x="395" 
d="M145 -125q-51 0 -51 44q0 18 10.5 28.5t19.5 12.5t16 2q38 0 65 -23.5t27 -63.5q0 -84 -124 -123v28q25 3 51.5 27.5t26.5 55.5q0 18 -2 21.5t-8 3.5q-3 0 -11.5 -6.5t-19.5 -6.5zM31 0v21q54 0 63 20v338q-62 5 -63 5v23q19 0 74.5 21.5t78.5 21.5v-44q50 44 99 44
q45 0 75.5 -17t30.5 -38q0 -36 -40 -36q-21 0 -38 28.5t-39 28.5q-39 0 -88 -43v-332q9 -20 63 -20v-21h-216z" />
    <glyph glyph-name="Rcaron" unicode="&#x158;" horiz-adv-x="581" 
d="M260 620l-94 162h26l93 -87l93 87h26l-94 -162h-50zM42 0v21q54 0 63 20v503q-9 20 -63 20v21h226q124 0 188 -45t64 -103q0 -55 -33 -96.5t-98 -60.5l133 -238q10 -21 66 -21v-21h-43q-70 0 -91 8t-42 44l-121 214h-94v-225q9 -20 63 -20v-21h-218zM197 551v-251h83
q80 0 110 31t30 105q0 55 -33.5 85t-118.5 30h-71z" />
    <glyph glyph-name="rcaron" unicode="&#x159;" horiz-adv-x="395" 
d="M219 515l-94 162h26l93 -87l93 87h26l-94 -162h-50zM31 0v21q54 0 63 20v338q-62 5 -63 5v23q19 0 74.5 21.5t78.5 21.5v-44q50 44 99 44q45 0 75.5 -17t30.5 -38q0 -36 -40 -36q-21 0 -38 28.5t-39 28.5q-39 0 -88 -43v-332q9 -20 63 -20v-21h-216z" />
    <glyph glyph-name="Sacute" unicode="&#x15a;" horiz-adv-x="478" 
d="M288 782h106l-154 -162h-26zM249 -10q-49 0 -100 15t-53 15q-6 0 -14 -6t-8 -14h-23v139h22q11 -60 59.5 -87.5t110.5 -27.5q53 0 87 24t34 72q0 22 -9.5 40t-29 33.5t-37.5 26l-46.5 26t-43.5 24.5q-35 22 -52 33.5t-43.5 34.5t-38.5 48t-12 54q0 59 54 107t121 48
q29 0 72 -15t49 -15q12 0 12 20h23l10 -127h-22q-6 44 -44 73.5t-99 29.5q-46 0 -73.5 -29.5t-27.5 -59.5q0 -19 9 -35.5t28 -30.5t36 -24.5t45.5 -25.5t43.5 -24q41 -25 59 -37t46.5 -37t40 -51.5t11.5 -58.5q0 -74 -60 -116t-137 -42z" />
    <glyph glyph-name="sacute" unicode="&#x15b;" horiz-adv-x="405" 
d="M257 677h106l-154 -162h-26zM207 20q28 0 61.5 18t33.5 54q0 58 -119 100q-29 10 -47.5 19t-40.5 25t-33 39t-11 54q0 56 41 88.5t99 32.5q34 0 69.5 -15t40.5 -15q12 0 12 20h23v-120h-22q-6 42 -40.5 71t-79.5 29q-32 0 -53.5 -15t-21.5 -41q0 -15 6 -27.5t12 -20
t22.5 -16.5t25 -12.5t31 -11.5l30.5 -11q52 -20 89 -56.5t37 -84.5q0 -61 -49 -97.5t-124 -36.5q-36 0 -70 17t-38 17q-6 0 -14 -8t-8 -16h-24v141h22q7 -51 47.5 -86t92.5 -35z" />
    <glyph glyph-name="Scircumflex" unicode="&#x15c;" horiz-adv-x="478" 
d="M252 782l94 -162h-26l-93 87l-93 -87h-26l94 162h50zM249 -10q-49 0 -100 15t-53 15q-6 0 -14 -6t-8 -14h-23v139h22q11 -60 59.5 -87.5t110.5 -27.5q53 0 87 24t34 72q0 22 -9.5 40t-29 33.5t-37.5 26l-46.5 26t-43.5 24.5q-35 22 -52 33.5t-43.5 34.5t-38.5 48t-12 54
q0 59 54 107t121 48q29 0 72 -15t49 -15q12 0 12 20h23l10 -127h-22q-6 44 -44 73.5t-99 29.5q-46 0 -73.5 -29.5t-27.5 -59.5q0 -19 9 -35.5t28 -30.5t36 -24.5t45.5 -25.5t43.5 -24q41 -25 59 -37t46.5 -37t40 -51.5t11.5 -58.5q0 -74 -60 -116t-137 -42z" />
    <glyph glyph-name="scircumflex" unicode="&#x15d;" horiz-adv-x="405" 
d="M235 677l94 -162h-26l-93 87l-93 -87h-26l94 162h50zM207 20q28 0 61.5 18t33.5 54q0 58 -119 100q-29 10 -47.5 19t-40.5 25t-33 39t-11 54q0 56 41 88.5t99 32.5q34 0 69.5 -15t40.5 -15q12 0 12 20h23v-120h-22q-6 42 -40.5 71t-79.5 29q-32 0 -53.5 -15t-21.5 -41
q0 -15 6 -27.5t12 -20t22.5 -16.5t25 -12.5t31 -11.5l30.5 -11q52 -20 89 -56.5t37 -84.5q0 -61 -49 -97.5t-124 -36.5q-36 0 -70 17t-38 17q-6 0 -14 -8t-8 -16h-24v141h22q7 -51 47.5 -86t92.5 -35z" />
    <glyph glyph-name="Scedilla" unicode="&#x15e;" horiz-adv-x="478" 
d="M255 -10l-12 -45q32 0 66 -16.5t34 -50.5q0 -77 -110 -77q-33 0 -74 7v17q18 -2 25 -2q38 0 55 14.5t17 32.5q0 44 -61 44l22 78q-37 3 -77 15.5t-44 12.5q-6 0 -14 -6t-8 -14h-23v139h22q11 -60 59.5 -87.5t110.5 -27.5q53 0 87 24t34 72q0 22 -9.5 40t-29 33.5
t-37.5 26l-46.5 26t-43.5 24.5q-35 22 -52 33.5t-43.5 34.5t-38.5 48t-12 54q0 59 54 107t121 48q29 0 72 -15t49 -15q12 0 12 20h23l10 -127h-22q-6 44 -44 73.5t-99 29.5q-46 0 -73.5 -29.5t-27.5 -59.5q0 -19 9 -35.5t28 -30.5t36 -24.5t45.5 -25.5t43.5 -24
q41 -25 59 -37t46.5 -37t40 -51.5t11.5 -58.5q0 -73 -58 -114.5t-133 -43.5z" />
    <glyph glyph-name="scedilla" unicode="&#x15f;" horiz-adv-x="406" 
d="M207 20q28 0 61.5 18t33.5 54q0 58 -119 100q-29 10 -47.5 19t-40.5 25t-33 39t-11 54q0 56 41 88.5t99 32.5q34 0 69.5 -15t40.5 -15q12 0 12 20h23v-120h-22q-6 42 -40.5 71t-79.5 29q-32 0 -53.5 -15t-21.5 -41q0 -15 6 -27.5t12 -20t22.5 -16.5t25 -12.5t31 -11.5
l30.5 -11q52 -20 89 -56.5t37 -84.5q0 -59 -45.5 -95t-116.5 -39l-12 -45q32 0 66 -16.5t34 -50.5q0 -77 -110 -77q-33 0 -74 7v17q18 -2 25 -2q38 0 55 14.5t17 32.5q0 44 -61 44l22 78q-24 4 -49.5 18t-31.5 14t-14 -8t-8 -16h-24v141h22q7 -51 47.5 -86t92.5 -35z" />
    <glyph glyph-name="Scaron" unicode="&#x160;" horiz-adv-x="478" 
d="M203 620l-94 162h26l93 -87l93 87h26l-94 -162h-50zM249 -10q-49 0 -100 15t-53 15q-6 0 -14 -6t-8 -14h-23v139h22q11 -60 59.5 -87.5t110.5 -27.5q53 0 87 24t34 72q0 22 -9.5 40t-29 33.5t-37.5 26l-46.5 26t-43.5 24.5q-35 22 -52 33.5t-43.5 34.5t-38.5 48t-12 54
q0 59 54 107t121 48q29 0 72 -15t49 -15q12 0 12 20h23l10 -127h-22q-6 44 -44 73.5t-99 29.5q-46 0 -73.5 -29.5t-27.5 -59.5q0 -19 9 -35.5t28 -30.5t36 -24.5t45.5 -25.5t43.5 -24q41 -25 59 -37t46.5 -37t40 -51.5t11.5 -58.5q0 -74 -60 -116t-137 -42z" />
    <glyph glyph-name="scaron" unicode="&#x161;" horiz-adv-x="405" 
d="M184 515l-94 162h26l93 -87l93 87h26l-94 -162h-50zM207 20q28 0 61.5 18t33.5 54q0 58 -119 100q-29 10 -47.5 19t-40.5 25t-33 39t-11 54q0 56 41 88.5t99 32.5q34 0 69.5 -15t40.5 -15q12 0 12 20h23v-120h-22q-6 42 -40.5 71t-79.5 29q-32 0 -53.5 -15t-21.5 -41
q0 -15 6 -27.5t12 -20t22.5 -16.5t25 -12.5t31 -11.5l30.5 -11q52 -20 89 -56.5t37 -84.5q0 -61 -49 -97.5t-124 -36.5q-36 0 -70 17t-38 17q-6 0 -14 -8t-8 -16h-24v141h22q7 -51 47.5 -86t92.5 -35z" />
    <glyph glyph-name="Tcommaaccent" unicode="&#x162;" horiz-adv-x="538" 
d="M18 585h502v-97h-21q0 54 -20 63h-164v-510q9 -20 63 -20v-21h-89l-15 -55q32 0 66 -16.5t34 -50.5q0 -77 -110 -77q-33 0 -74 7v17q18 -2 25 -2q38 0 55 14.5t17 32.5q0 44 -61 44l25 86h-91v21q54 0 63 20v510h-164q-20 -9 -20 -63h-21v97z" />
    <glyph glyph-name="tcommaaccent" unicode="&#x163;" horiz-adv-x="333" 
d="M181 585l-1 -145h86v-30h-86v-318q0 -31 11 -47.5t41 -16.5q18 0 36.5 17.5t25.5 48.5l24 -12q-21 -91 -118 -92l-12 -45q32 0 66 -16.5t34 -50.5q0 -77 -110 -77q-33 0 -74 7v17q18 -2 25 -2q38 0 55 14.5t17 32.5q0 44 -61 44l23 79q-78 15 -78 107v310h-70v30
q47 0 85 39t38 106h43z" />
    <glyph glyph-name="Tcaron" unicode="&#x164;" horiz-adv-x="538" 
d="M18 585h502v-97h-21q0 54 -20 63h-164v-510q9 -20 63 -20v-21h-218v21q54 0 63 20v510h-164q-20 -9 -20 -63h-21v97zM244 655l-94 162h26l93 -87l93 87h26l-94 -162h-50z" />
    <glyph glyph-name="tcaron" unicode="&#x165;" horiz-adv-x="333" 
d="M271 623q-51 0 -51 44q0 18 10.5 28.5t19.5 12.5t16 2q38 0 65 -23.5t27 -63.5q0 -84 -124 -123v28q25 3 51.5 27.5t26.5 55.5q0 18 -2 21.5t-8 3.5q-3 0 -11.5 -6.5t-19.5 -6.5zM180 585v-145h86v-30h-86v-318q0 -31 11 -47.5t41 -16.5q18 0 36.5 17.5t25.5 48.5l24 -12
q-21 -92 -120 -92q-114 0 -114 110v310h-70v30q47 0 85 39t38 106h43z" />
    <glyph glyph-name="Tbar" unicode="&#x166;" horiz-adv-x="538" 
d="M18 585h502v-97h-21q0 54 -20 63h-164v-218h79v-34h-79v-258q9 -20 63 -20v-21h-218v21q54 0 63 20v258h-93v34h93v218h-164q-20 -9 -20 -63h-21v97z" />
    <glyph glyph-name="tbar" unicode="&#x167;" horiz-adv-x="337" 
d="M183 585v-145h86v-30h-86v-125h98v-34h-98v-159q0 -31 11 -47.5t41 -16.5q18 0 36.5 17.5t25.5 48.5l24 -12q-21 -92 -120 -92q-114 0 -114 110v151h-70v34h70v125h-70v30q47 0 85 39t38 106h43z" />
    <glyph glyph-name="Utilde" unicode="&#x168;" horiz-adv-x="618" 
d="M411 620q-22 0 -81.5 29.5t-73.5 29.5q-28 0 -39 -14.5t-11 -44.5h-19q0 112 76 112q22 0 82 -29.5t74 -29.5q28 0 39 14.5t11 44.5h19q0 -112 -77 -112zM338 24q67 0 112.5 56t45.5 148v316q-9 20 -63 20v21h160v-21q-54 0 -63 -20v-296q0 -130 -57.5 -194t-144.5 -64
q-240 0 -240 258v296q-9 20 -63 20v21h218v-21q-54 0 -63 -20v-310q0 -99 44 -154.5t114 -55.5z" />
    <glyph glyph-name="utilde" unicode="&#x169;" horiz-adv-x="550" 
d="M346 515q-22 0 -81.5 29.5t-73.5 29.5q-28 0 -39 -14.5t-11 -44.5h-19q0 112 76 112q22 0 82 -29.5t74 -29.5q28 0 39 14.5t11 44.5h19q0 -112 -77 -112zM465 61l63 -5v-23q-19 0 -74.5 -21.5t-78.5 -21.5v46q-54 -46 -119 -46q-93 0 -134.5 34.5t-41.5 107.5v267
q-9 20 -63 20v21h153v-315q0 -101 92 -101q63 0 113 44v331q-9 20 -63 20v21h153v-379z" />
    <glyph glyph-name="Umacron" unicode="&#x16a;" horiz-adv-x="618" 
d="M198 678h264v-44h-264v44zM338 24q67 0 112.5 56t45.5 148v316q-9 20 -63 20v21h160v-21q-54 0 -63 -20v-296q0 -130 -57.5 -194t-144.5 -64q-240 0 -240 258v296q-9 20 -63 20v21h218v-21q-54 0 -63 -20v-310q0 -99 44 -154.5t114 -55.5z" />
    <glyph glyph-name="umacron" unicode="&#x16b;" horiz-adv-x="550" 
d="M133 573h264v-44h-264v44zM465 61l63 -5v-23q-19 0 -74.5 -21.5t-78.5 -21.5v46q-54 -46 -119 -46q-93 0 -134.5 34.5t-41.5 107.5v267q-9 20 -63 20v21h153v-315q0 -101 92 -101q63 0 113 44v331q-9 20 -63 20v21h153v-379z" />
    <glyph glyph-name="Ubreve" unicode="&#x16c;" horiz-adv-x="618" 
d="M336 630q-61 0 -93.5 40.5t-32.5 83.5h28q0 -20 25.5 -36t72.5 -16t72.5 15.5t25.5 36.5h28q0 -44 -32 -84t-94 -40zM338 24q67 0 112.5 56t45.5 148v316q-9 20 -63 20v21h160v-21q-54 0 -63 -20v-296q0 -130 -57.5 -194t-144.5 -64q-240 0 -240 258v296q-9 20 -63 20v21
h218v-21q-54 0 -63 -20v-310q0 -99 44 -154.5t114 -55.5z" />
    <glyph glyph-name="ubreve" unicode="&#x16d;" horiz-adv-x="550" 
d="M271 525q-61 0 -93.5 40.5t-32.5 83.5h28q0 -20 25.5 -36t72.5 -16t72.5 15.5t25.5 36.5h28q0 -44 -32 -84t-94 -40zM465 61l63 -5v-23q-19 0 -74.5 -21.5t-78.5 -21.5v46q-54 -46 -119 -46q-93 0 -134.5 34.5t-41.5 107.5v267q-9 20 -63 20v21h153v-315q0 -101 92 -101
q63 0 113 44v331q-9 20 -63 20v21h153v-379z" />
    <glyph glyph-name="Uring" unicode="&#x16e;" horiz-adv-x="618" 
d="M289 689q0 -19 13.5 -33t33.5 -14t33.5 14t13.5 33t-13.5 33t-33.5 14t-33.5 -14t-13.5 -33zM246 689q0 38 26 64t64 26t64 -26t26 -64t-26 -64t-64 -26t-64 26t-26 64zM338 24q67 0 112.5 56t45.5 148v316q-9 20 -63 20v21h160v-21q-54 0 -63 -20v-296
q0 -130 -57.5 -194t-144.5 -64q-240 0 -240 258v296q-9 20 -63 20v21h218v-21q-54 0 -63 -20v-310q0 -99 44 -154.5t114 -55.5z" />
    <glyph glyph-name="uring" unicode="&#x16f;" horiz-adv-x="550" 
d="M224 584q0 -20 14 -33.5t33 -13.5t33 13.5t14 33.5t-14 33.5t-33 13.5t-33 -13.5t-14 -33.5zM181 584q0 38 26 64t64 26t64 -26t26 -64t-26 -64t-64 -26t-64 26t-26 64zM465 61l63 -5v-23q-19 0 -74.5 -21.5t-78.5 -21.5v46q-54 -46 -119 -46q-93 0 -134.5 34.5
t-41.5 107.5v267q-9 20 -63 20v21h153v-315q0 -101 92 -101q63 0 113 44v331q-9 20 -63 20v21h153v-379z" />
    <glyph glyph-name="Uhungarumlaut" unicode="&#x170;" horiz-adv-x="618" 
d="M471 782h106l-154 -162h-26zM311 782h106l-154 -162h-26zM338 24q67 0 112.5 56t45.5 148v316q-9 20 -63 20v21h160v-21q-54 0 -63 -20v-296q0 -130 -57.5 -194t-144.5 -64q-240 0 -240 258v296q-9 20 -63 20v21h218v-21q-54 0 -63 -20v-310q0 -99 44 -154.5t114 -55.5z
" />
    <glyph glyph-name="uhungarumlaut" unicode="&#x171;" horiz-adv-x="550" 
d="M406 677h106l-154 -162h-26zM246 677h106l-154 -162h-26zM465 61l63 -5v-23q-19 0 -74.5 -21.5t-78.5 -21.5v46q-54 -46 -119 -46q-93 0 -134.5 34.5t-41.5 107.5v267q-9 20 -63 20v21h153v-315q0 -101 92 -101q63 0 113 44v331q-9 20 -63 20v21h153v-379z" />
    <glyph glyph-name="Uogonek" unicode="&#x172;" horiz-adv-x="620" 
d="M339 24v-1q67 0 112.5 56t45.5 148v316q-9 20 -63 20v21h160v-21q-54 0 -63 -20v-296q0 -127 -55 -191.5t-140 -66.5q-20 -28 -20 -49q0 -49 27 -78t61 -29q6 0 14 4t12 8l5 4l11 -18q-2 -4 -7 -9t-25.5 -14t-46.5 -9q-49 0 -74.5 25.5t-25.5 71.5q0 53 39 94
q-217 12 -217 258v296q-9 20 -63 20v21h218v-21q-54 0 -63 -20v-310q0 -99 44 -154.5t114 -55.5z" />
    <glyph glyph-name="uogonek" unicode="&#x173;" horiz-adv-x="551" 
d="M465 61l63 -5v-23q-19 0 -67.5 -18.5t-66.5 -22.5q-21 -29 -21 -51q0 -49 27 -78t61 -29q6 0 14 4t13 8l4 4l11 -18q-2 -4 -7 -9t-25.5 -14t-46.5 -9q-49 0 -74.5 25.5t-25.5 71.5q0 63 51 105v34q-54 -46 -119 -46q-93 0 -134.5 34.5t-41.5 107.5v267q-9 20 -63 20v21
h153v-315q0 -101 92 -101q63 0 113 44v331q-9 20 -63 20v21h153v-379z" />
    <glyph glyph-name="Wcircumflex" unicode="&#x174;" horiz-adv-x="841" 
d="M425 782l94 -162h-26l-93 87l-93 -87h-26l94 162h50zM506 585v-21q-46 0 -58 -12l153 -419l147 413q-10 18 -62 18v21h164v-21q-56 0 -63 -21l-194 -543h-48l-125 349l-124 -349h-48l-194 543q-8 21 -64 21v21h219v-21q-46 0 -58 -12l153 -418l96 271l-49 138
q-7 21 -64 21v21h219z" />
    <glyph glyph-name="wcircumflex" unicode="&#x175;" horiz-adv-x="760" 
d="M402 677l94 -162h-26l-93 87l-93 -87h-26l94 162h50zM189 440v-21q-29 0 -42 -4l119 -293l90 225l-21 52q-9 20 -63 20v21h194v-21q-29 0 -42 -4l119 -293l114 286q-14 11 -56 11v21h164v-21q-54 0 -62 -19l-160 -400h-49l-114 286l-114 -286h-49l-159 399q-9 20 -63 20
v21h194z" />
    <glyph glyph-name="Ycircumflex" unicode="&#x176;" horiz-adv-x="563" 
d="M333 782l94 -162h-26l-93 87l-93 -87h-26l94 162h50zM210 585v-21q-47 0 -58 -12l155 -271l160 265q-11 18 -62 18v21h164v-21q-42 0 -57 -13l-180 -299v-211q9 -20 63 -20v-21h-218v21q54 0 63 20v179l-185 324q-14 20 -64 20v21h219z" />
    <glyph glyph-name="ycircumflex" unicode="&#x177;" horiz-adv-x="483" 
d="M285 677l94 -162h-26l-93 87l-93 -87h-26l94 162h50zM189 440v-21q-29 0 -42 -4l119 -293l114 286q-14 11 -56 11v21h164v-21q-54 0 -62 -18l-201 -503q-19 -47 -48.5 -68.5t-56.5 -21.5q-25 0 -39.5 13t-14.5 31q0 15 10.5 27t28.5 12q11 0 23 -8.5t18 -8.5q21 0 28 18
l43 108l-159 399q-9 20 -63 20v21h194z" />
    <glyph glyph-name="Ydieresis" unicode="&#x178;" horiz-adv-x="563" 
d="M351 669q0 20 14.5 34.5t34.5 14.5t34.5 -14.5t14.5 -34.5t-14.5 -34.5t-34.5 -14.5t-34.5 14.5t-14.5 34.5zM167 669q0 20 14.5 34.5t34.5 14.5t34.5 -14.5t14.5 -34.5t-14.5 -34.5t-34.5 -14.5t-34.5 14.5t-14.5 34.5zM210 585v-21q-47 0 -58 -12l155 -271l160 265
q-11 18 -62 18v21h164v-21q-42 0 -57 -13l-180 -299v-211q9 -20 63 -20v-21h-218v21q54 0 63 20v179l-185 324q-14 20 -64 20v21h219z" />
    <glyph glyph-name="Zacute" unicode="&#x179;" horiz-adv-x="500" 
d="M308 782h106l-154 -162h-26zM449 0h-432l318 555h-243q-20 -9 -20 -63h-21v93h403l-318 -555h272q31 13 46 66h21z" />
    <glyph glyph-name="zacute" unicode="&#x17a;" horiz-adv-x="425" 
d="M277 677h106l-154 -162h-26zM387 0h-370l265 410h-192q-20 -9 -20 -63h-21v93h346l-265 -410h216q20 9 20 63h21v-93z" />
    <glyph glyph-name="Zdotaccent" unicode="&#x17b;" horiz-adv-x="500" 
d="M196 672q0 21 15 36t36 15t36 -15t15 -36t-15 -36t-36 -15t-36 15t-15 36zM449 0h-432l318 555h-243q-20 -9 -20 -63h-21v93h403l-318 -555h272q31 13 46 66h21z" />
    <glyph glyph-name="zdotaccent" unicode="&#x17c;" horiz-adv-x="425" 
d="M165 567q0 21 15 36t36 15t36 -15t15 -36t-15 -36t-36 -15t-36 15t-15 36zM387 0h-370l265 410h-192q-20 -9 -20 -63h-21v93h346l-265 -410h216q20 9 20 63h21v-93z" />
    <glyph glyph-name="Zcaron" unicode="&#x17d;" horiz-adv-x="500" 
d="M228 655l-94 162h26l93 -87l93 87h26l-94 -162h-50zM449 0h-432l318 555h-243q-20 -9 -20 -63h-21v93h403l-318 -555h272q31 13 46 66h21z" />
    <glyph glyph-name="zcaron" unicode="&#x17e;" horiz-adv-x="425" 
d="M197 510l-94 162h26l93 -87l93 87h26l-94 -162h-50zM387 0h-370l265 410h-192q-20 -9 -20 -63h-21v93h346l-265 -410h216q20 9 20 63h21v-93z" />
    <glyph glyph-name="longs" unicode="&#x17f;" horiz-adv-x="258" 
d="M21 0v21q54 0 63 20v433q0 81 38 118.5t96 37.5q130 0 130 -87q0 -18 -13.5 -29t-29.5 -11t-27.5 11t-11.5 28q0 14 10 24q0 17 -14 25.5t-34 8.5t-37 -29.5t-17 -82.5v-447q9 -20 63 -20v-21h-216z" />
    <glyph glyph-name="uni0180" unicode="&#x180;" horiz-adv-x="538" 
d="M158 373v-314q40 -35 109 -35q55 0 96 52.5t41 145.5q0 88 -33 143t-86 55q-84 0 -127 -47zM68 559q-62 5 -63 5v23q19 0 74.5 21.5t78.5 21.5v-103h99v-34h-99v-86q49 47 137 47q33 0 65.5 -11.5t65 -36t53 -72.5t20.5 -112q0 -112 -62.5 -172t-163.5 -60q-72 0 -119 38
q-55 -38 -86 -38v503h-75v34h75v32z" />
    <glyph glyph-name="uni0181" unicode="&#x181;" horiz-adv-x="674" 
d="M158 0v21q54 0 63 20v510q-95 0 -112 -19q-11 -11 -11 -31q0 -21 15 -29q19 -11 19 -33q0 -21 -13.5 -34t-33.5 -13q-34 0 -52.5 28t-18.5 60q0 18 9 39t24 31q21 14 34.5 20t47.5 10.5t92 4.5h121q125 0 188.5 -41t63.5 -97q0 -102 -106 -138q75 -17 112.5 -55.5
t37.5 -82.5q0 -76 -60.5 -123.5t-179.5 -47.5h-240zM313 551v-232h41q140 0 140 127q0 105 -152 105h-29zM313 290v-256h85q140 0 140 136q0 47 -35 83.5t-117 36.5h-73z" />
    <glyph glyph-name="Oopen" unicode="&#x186;" horiz-adv-x="580" 
d="M239 20q79 0 139.5 67t60.5 192q0 72 -20.5 129t-52.5 89t-66 48t-66 16q-52 0 -98.5 -30t-70.5 -77l-24 12q25 56 76 92.5t130 36.5q31 0 66 -8t75.5 -29.5t72.5 -53t53.5 -84.5t21.5 -119q0 -142 -84 -226.5t-195 -84.5q-107 0 -161.5 39t-54.5 96q0 23 12 36.5
t31 13.5q18 0 31.5 -9t13.5 -26q0 -21 -10.5 -31t-24.5 -10q8 -31 49 -55t96 -24z" />
    <glyph glyph-name="uni0187" unicode="&#x187;" horiz-adv-x="677" 
d="M449 546q33 49 90 49q48 0 90 -18t42 -50q0 -14 -13 -25t-29 -11q-23 0 -46 44l-9.5 17.5t-8.5 8.5t-16 4q-19 0 -32.5 -33t-13.5 -88h-22q-8 50 -54 83.5t-110 33.5q-83 0 -126 -68.5t-43 -186.5q0 -132 60 -207t144 -75q50 0 99 34.5t63 73.5l24 -12
q-23 -55 -72.5 -92.5t-133.5 -37.5q-133 0 -210.5 86.5t-77.5 207.5q0 143 76 227t196 84q77 0 133 -49z" />
    <glyph glyph-name="uni0188" unicode="&#x188;" horiz-adv-x="603" 
d="M395 300q0 49 -36.5 84.5t-86.5 35.5q-62 0 -100 -47t-38 -127q0 -85 47.5 -151.5t107.5 -66.5q87 0 140 66l24 -12q-29 -48 -75.5 -70t-122.5 -22q-38 0 -73 11.5t-69 38t-54 78.5t-20 124q0 87 61.5 147.5t161.5 60.5q70 0 116 -43q38 43 86 43t90 -18t42 -50
q0 -14 -13 -25t-29 -11q-23 0 -46 44l-9.5 17.5t-8.5 8.5t-16 4q-19 0 -33 -32.5t-14 -87.5h-32z" />
    <glyph glyph-name="uni0189" unicode="&#x189;" horiz-adv-x="614" 
d="M200 275v-241h87q32 0 62.5 14.5t58.5 43.5t45 81t17 120q0 130 -58.5 196.5t-136.5 66.5h-75v-247h102v-34h-102zM45 0v21q54 0 63 20v234h-70v34h70v235q-9 20 -63 20v21h230q133 0 214 -80.5t81 -210.5t-79 -212t-204 -82h-242z" />
    <glyph glyph-name="uni018A" unicode="&#x18a;" horiz-adv-x="727" 
d="M158 -1v21q54 0 63 20v511q-95 0 -112 -19q-11 -11 -11 -31q0 -21 15 -29q19 -11 19 -33q0 -21 -13.5 -34t-33.5 -13q-34 0 -52.5 28t-18.5 60q0 18 9 39t24 31q21 14 34.5 20t47.5 10.5t92 4.5h167q133 0 214 -81t81 -211t-79 -212t-204 -82h-242zM313 551v-518h87
q32 0 62.5 14.5t58.5 43.5t45 81t17 120q0 67 -17.5 119t-46 81.5t-62 44t-69.5 14.5h-75z" />
    <glyph glyph-name="Eturned" unicode="&#x18e;" horiz-adv-x="507" 
d="M465 0h-424l-24 97h20q20 -52 45 -63h228v253h-140q-20 -9 -20 -63h-21v160h21q0 -54 20 -63h140v230h-207q-20 -9 -20 -63h-21v97h403v-21q-54 0 -63 -20v-503q9 -20 63 -20v-21z" />
    <glyph glyph-name="Schwa" unicode="&#x18f;" horiz-adv-x="620" 
d="M472 246h-337q10 -99 53 -160.5t101 -61.5q79 0 127.5 60t55.5 162zM473 280q0 132 -60 206.5t-144 74.5q-50 0 -99 -34.5t-63 -73.5l-24 12q23 55 72.5 92.5t133.5 37.5q133 0 210.5 -86.5t77.5 -207.5q0 -141 -82.5 -226t-204.5 -85q-111 0 -186.5 81.5t-75.5 208.5
h445z" />
    <glyph glyph-name="Eopen" unicode="&#x190;" horiz-adv-x="522" 
d="M325 308q-85 0 -129.5 -35t-44.5 -99q0 -71 43 -110.5t115 -39.5q53 0 101.5 34.5t62.5 73.5l24 -12q-11 -26 -24.5 -46t-37 -40.5t-61 -32t-85.5 -11.5q-70 0 -121 18t-75.5 47t-35 55t-10.5 51q0 123 130 163q-116 34 -116 120t62 118.5t178 32.5q36 0 68 -15t36 -15
q12 0 12 20h23l10 -127h-22q-6 40 -45.5 71.5t-80.5 31.5q-69 0 -103 -27t-34 -68q0 -124 160 -124v-34z" />
    <glyph glyph-name="uni0191" unicode="&#x191;" horiz-adv-x="461" 
d="M436 488h-21q0 54 -20 63h-207v-230h140q20 9 20 63h21v-160h-21q0 54 -20 63h-140v-287q0 -82 -34 -119t-90 -37q-48 0 -90 18t-42 50q0 14 13 25t29 11q23 0 46 -44l9.5 -17.5t8.5 -8.5t16 -4q19 0 30.5 28.5t11.5 83.5v558q-9 20 -63 20v21h403v-97z" />
    <glyph glyph-name="florin" unicode="&#x192;" horiz-adv-x="255" 
d="M233 440v-30h-62v-410q0 -82 -34 -119t-90 -37q-48 0 -90 18t-42 50q0 14 13 25t29 11q23 0 46 -44l9.5 -17.5t8.5 -8.5t16 -4q19 0 31.5 29t12.5 83v424h-50v30h50v34q0 82 34 119t90 37q59 0 89 -18t30 -41q0 -17 -11.5 -27t-29.5 -10q-17 0 -25.5 10.5t-10 22.5
t-9 22.5t-23.5 10.5q-19 0 -31.5 -29t-12.5 -83v-48h62z" />
    <glyph glyph-name="uni0193" unicode="&#x193;" horiz-adv-x="684" 
d="M316 595q77 0 133 -49q33 49 90 49q48 0 90 -18t42 -50q0 -14 -13 -25t-29 -11q-23 0 -46 44l-9.5 17.5t-8.5 8.5t-16 4q-19 0 -32.5 -33t-13.5 -88h-22q-8 50 -54 83.5t-110 33.5q-82 0 -125.5 -77.5t-43.5 -197.5q0 -69 18 -122t48 -82.5t63 -43.5t67 -14q56 0 106 19
v205q-9 20 -63 20v21h218v-21q-54 0 -63 -20v-168q-17 -32 -68.5 -61t-131.5 -29q-134 0 -216 87t-82 207q0 143 76 227t196 84z" />
    <glyph glyph-name="uni0194" unicode="&#x194;" horiz-adv-x="523" 
d="M201 585v-21q-39 0 -53 -9l135 -242l154 241q-13 10 -56 10v21h153v-21q-51 0 -63 -20l-171 -265q57 -118 57 -191q0 -41 -26.5 -69.5t-68.5 -28.5q-89 0 -89 100q0 45 50 132q-28 60 -54 106l-116 215q-11 21 -64 21v21h212zM241 183q-27 -52 -27 -76q0 -70 25 -70
q11 0 18.5 19.5t7.5 36.5q0 32 -24 90z" />
    <glyph glyph-name="Iotalatin" unicode="&#x196;" horiz-adv-x="290" 
d="M186 585v-501q0 -32 10.5 -47t25.5 -15q13 0 23.5 7t10.5 17h18q0 -28 -20.5 -41t-71.5 -13q-88 0 -88 120v432q-9 20 -63 20v21h155z" />
    <glyph glyph-name="Istroke" unicode="&#x197;" horiz-adv-x="329" 
d="M60 0v21q54 0 63 20v236h-91v34h91v233q-9 20 -63 20v21h218v-21q-54 0 -63 -20v-233h81v-34h-81v-236q9 -20 63 -20v-21h-218z" />
    <glyph glyph-name="uni0198" unicode="&#x198;" horiz-adv-x="695" 
d="M158 0v21q54 0 63 20v510q-95 0 -112 -19q-11 -11 -11 -31q0 -21 15 -29q19 -11 19 -33q0 -21 -13.5 -34t-33.5 -13q-34 0 -52.5 28t-18.5 60q0 18 9 39t24 31q21 14 34.5 20t47.5 10.5t92 4.5h153v-21q-54 0 -63 -20v-503q9 -20 63 -20v-21h-216zM507 0v21q23 0 37 3
l-228 290l245 243q-14 7 -51 7v21h157v-21q-42 0 -62 -23l-201 -199l235 -305q16 -16 63 -16v-21h-195z" />
    <glyph glyph-name="uni0199" unicode="&#x199;" horiz-adv-x="501" 
d="M21 0v21q54 0 63 20v433q0 82 34 119t90 37q48 0 90 -18t42 -50q0 -14 -13 -25t-29 -11q-23 0 -46 44l-9.5 17.5t-8.5 8.5t-16 4q-19 0 -31.5 -29t-12.5 -83v-447q9 -20 63 -20v-21h-216zM310 0v21q24 0 38 3l-167 230l177 159q-15 6 -49 6v21h157v-21q-39 0 -54 -13
l-142 -127l172 -239q14 -19 63 -19v-21h-195z" />
    <glyph glyph-name="uni019D" unicode="&#x19d;" horiz-adv-x="628" 
d="M595 585v-21q-54 0 -63 -20v-544h-9l-393 497v-497q0 -55 -5 -88t-10.5 -45t-19.5 -34q-11 -15 -31.5 -24t-38.5 -9q-32 0 -60 18.5t-28 52.5q0 20 13 33.5t34 13.5q22 0 33 -19q8 -15 29 -15q20 0 31 11q19 17 19 112v537q-9 20 -63 20v21h134l331 -409v368
q-9 20 -63 20v21h160z" />
    <glyph glyph-name="Obar" unicode="&#x19f;" horiz-adv-x="641" 
d="M44 292q0 125 78 214t199 89t199 -89t78 -214t-78.5 -213.5t-198.5 -88.5q-122 0 -199.5 88t-77.5 214zM144 312h353q-7 99 -54 174t-126 75q-83 0 -126.5 -75t-46.5 -174zM498 278h-353q3 -63 22.5 -118.5t60.5 -95.5t97 -40q58 0 98.5 41t57 96t17.5 117z" />
    <glyph glyph-name="Ohorn" unicode="&#x1a0;" horiz-adv-x="658" 
d="M44 292q0 125 78 214t199 89q72 0 131 -33.5t96 -92.5q45 17 45 62q0 7 -10 7q-2 0 -7 -1t-9 -1q-46 0 -46 44q0 19 13.5 32t27.5 13q36 0 57.5 -23.5t21.5 -61.5q0 -69 -81 -92q38 -73 38 -156q0 -125 -78.5 -213.5t-198.5 -88.5q-122 0 -199.5 88t-77.5 214zM144 300
q0 -66 18.5 -126.5t61 -105t101.5 -44.5t99.5 42t57 98.5t16.5 119.5q0 65 -19 126.5t-61.5 106t-100.5 44.5q-45 0 -79.5 -24t-54 -63.5t-29.5 -83.5t-10 -90z" />
    <glyph glyph-name="ohorn" unicode="&#x1a1;" horiz-adv-x="564" 
d="M277 -10q-112 0 -175 65.5t-63 172.5q0 97 57 159.5t174 62.5q153 0 209 -107q41 18 41 61q0 7 -10 7q-2 0 -7 -1t-9 -1q-46 0 -46 44q0 19 13.5 32t27.5 13q36 0 57.5 -23.5t21.5 -61.5q0 -69 -79 -92q17 -44 17 -105q0 -97 -56.5 -161.5t-172.5 -64.5zM135 248
q0 -114 43.5 -171t111.5 -57q54 0 87 48.5t33 124.5q0 226 -157 226q-53 0 -85.5 -50.5t-32.5 -120.5z" />
    <glyph glyph-name="uni01A4" unicode="&#x1a4;" horiz-adv-x="654" 
d="M158 0v21q54 0 63 20v510q-95 0 -112 -19q-11 -11 -11 -31q0 -21 15 -29q19 -11 19 -33q0 -21 -13.5 -34t-33.5 -13q-34 0 -52.5 28t-18.5 60q0 18 9 38.5t24 31.5q21 14 34.5 20t47.5 10.5t92 4.5h163q123 0 187.5 -47t64.5 -105q0 -75 -60 -121t-180 -46h-83v-225
q9 -20 63 -20v-21h-218zM313 551v-251h83q77 0 108.5 30.5t31.5 101.5q0 119 -152 119h-71z" />
    <glyph glyph-name="uni01A5" unicode="&#x1a5;" horiz-adv-x="521" 
d="M5 -192v21q54 0 63 20v615q0 82 34 119t90 37q48 0 90 -18t42 -50q0 -14 -13 -25t-29 -11q-23 0 -46 44l-9.5 17.5t-8.5 8.5t-16 4q-19 0 -31.5 -29t-12.5 -83v-61q48 33 120 33q33 0 65.5 -11.5t65 -36t53 -72.5t20.5 -112q0 -111 -62 -169.5t-164 -58.5q-58 0 -98 22
v-163q9 -20 63 -20v-21h-216zM158 384v-340q38 -20 92 -20q55 0 96 51t41 143q0 61 -35.5 129.5t-83.5 68.5q-69 0 -110 -32z" />
    <glyph glyph-name="uni01A9" unicode="&#x1a9;" horiz-adv-x="470" 
d="M404 492h-21q0 54 -20 63h-205l166 -221l-211 -276h252q43 18 56 64h21l-36 -122h-404l233 303l-213 282h382v-93z" />
    <glyph glyph-name="uni01AA" unicode="&#x1aa;" horiz-adv-x="267" 
d="M109 426q-16 -4 -38 -4q-59 0 -91 29.5t-32 80.5q0 98 127 98q56 0 90 -37t34 -119v-442q0 -54 12.5 -83t31.5 -29t24 24q9 34 39 34q16 0 26 -12t10 -26q0 -22 -29 -36t-80 -14q-56 0 -90 37t-34 119v380zM61 452q48 0 48 68q0 36 -12.5 58t-31.5 22q-12 0 -27 -23.5
t-15 -48.5q0 -32 11 -54t27 -22z" />
    <glyph glyph-name="uni01AC" unicode="&#x1ac;" horiz-adv-x="584" 
d="M566 585v-97h-21q0 54 -20 63h-164v-510q9 -20 63 -20v-21h-218v21q54 0 63 20v510h-46q-95 0 -112 -19q-11 -11 -11 -31q0 -21 15 -29q19 -11 19 -33q0 -21 -13.5 -34t-33.5 -13q-34 0 -52.5 28t-18.5 60q0 18 9 39t24 31q21 14 34.5 20t47.5 10.5t92 4.5h343z" />
    <glyph glyph-name="uni01AD" unicode="&#x1ad;" horiz-adv-x="333" 
d="M180 488v-48h86v-30h-86v-318q0 -31 11 -47.5t41 -16.5q18 0 36.5 17.5t25.5 48.5l24 -12q-21 -92 -120 -92q-114 0 -114 110v310h-70v30q20 0 34.5 5.5t21.5 10.5t13 20t7 21.5t5 26.5q18 106 119 106q48 0 90 -18t42 -50q0 -14 -13 -25t-29 -11q-23 0 -46 44l-9.5 17.5
t-8.5 8.5t-16 4q-19 0 -31.5 -29t-12.5 -83z" />
    <glyph glyph-name="uni01AE" unicode="&#x1ae;" horiz-adv-x="534" 
d="M221 0v551h-164q-20 -9 -20 -63h-21v97h502v-97h-21q0 54 -20 63h-164v-565q0 -55 11.5 -83.5t30.5 -28.5q14 0 19.5 6t14.5 24q23 44 46 44q16 0 29 -11t13 -25q0 -32 -42 -50t-90 -18q-56 0 -90 37t-34 119z" />
    <glyph glyph-name="Uhorn" unicode="&#x1af;" horiz-adv-x="619" 
d="M530 564v-316q0 -130 -57.5 -194t-144.5 -64q-240 0 -240 258v296q-9 20 -63 20v21h218v-21q-54 0 -63 -20v-310q0 -99 44 -154.5t114 -55.5q67 0 112.5 56t45.5 148v316q-9 20 -63 20v21h97q43 0 67.5 19t24.5 51q0 7 -10 7q-2 0 -7 -1t-9 -1q-46 0 -46 44q0 19 13.5 32
t27.5 13q36 0 57.5 -23.5t21.5 -61.5q0 -53 -43 -76.5t-97 -23.5z" />
    <glyph glyph-name="uhorn" unicode="&#x1b0;" horiz-adv-x="584" 
d="M465 61l63 -5v-23q-19 0 -74.5 -21.5t-78.5 -21.5v46q-54 -46 -119 -46q-93 0 -134.5 34.5t-41.5 107.5v267q-9 20 -63 20v21h153v-315q0 -101 92 -101q63 0 113 44v331q-9 20 -63 20v21h153v-106q43 0 67.5 19t24.5 51q0 7 -10 7q-2 0 -7 -1t-9 -1q-46 0 -46 44
q0 19 13.5 32t27.5 13q36 0 57.5 -23.5t21.5 -61.5q0 -53 -43 -76.5t-97 -23.5v-252z" />
    <glyph glyph-name="uni01B1" unicode="&#x1b1;" horiz-adv-x="652" 
d="M326 24q59 0 100.5 36.5t59 90.5t17.5 119q0 206 -111 315h196v-34h-93q48 -59 78 -134.5t30 -154.5q0 -122 -76 -197t-201 -75t-201 75t-76 197q0 79 30 154.5t78 134.5h-93v34h196q-111 -109 -111 -315q0 -65 17.5 -119t59 -90.5t100.5 -36.5z" />
    <glyph glyph-name="Vhook" unicode="&#x1b2;" horiz-adv-x="594" 
d="M407 556q-16 0 -28 -8q10 -10 10 -24q0 -12 -11.5 -25.5t-25.5 -13.5q-17 0 -32 14t-15 31q0 27 27.5 46t54.5 19q64 0 112 -75t48 -162q0 -168 -60.5 -268t-183.5 -100q-46 0 -80 9.5t-67 35.5t-50.5 80.5t-17.5 136.5v292q-9 20 -63 20v21h218v-21q-54 0 -63 -20v-322
q0 -101 35.5 -149.5t81.5 -48.5q111 0 162.5 91.5t51.5 246.5q0 68 -31.5 131t-72.5 63z" />
    <glyph glyph-name="uni01B3" unicode="&#x1b3;" horiz-adv-x="686" 
d="M210 585v-21q-47 0 -58 -12l155 -271l150 249q38 65 98 65q53 0 91 -17.5t38 -50.5q0 -14 -13 -25t-29 -11q-23 0 -46 44l-9.5 17.5t-8.5 8.5t-16 4q-42 0 -70 -47l-160 -266v-211q9 -20 63 -20v-21h-218v21q54 0 63 20v179l-186 325q-14 19 -63 19v21h219z" />
    <glyph glyph-name="uni01B4" unicode="&#x1b4;" horiz-adv-x="613" 
d="M189 440v-21q-29 0 -42 -4l119 -293l92 231q17 43 50 70t69 27q53 0 92.5 -18t39.5 -50q0 -14 -13 -25t-29 -11q-23 0 -46 44l-9.5 17.5t-8.5 8.5t-16 4q-32 0 -53 -26t-47 -92l-162 -404q-33 -82 -105 -82q-15 0 -29.5 10.5t-14.5 25.5t8.5 27t23.5 12q8 0 19.5 -8.5
t18.5 -8.5q21 0 28 18l43 108l-159 399q-9 20 -63 20v21h194z" />
    <glyph glyph-name="uni01B7" unicode="&#x1b7;" horiz-adv-x="488" 
d="M294 356q67 -14 111 -56.5t44 -111.5q0 -80 -60.5 -139t-168.5 -59q-92 0 -143 42.5t-51 99.5q0 23 12 36.5t31 13.5q18 0 31.5 -9t13.5 -26q0 -21 -10.5 -31t-24.5 -10q9 -34 42 -60t89 -26q76 0 112.5 49t36.5 115q0 74 -44 112.5t-112 38.5l92 182h-137
q-43 -18 -56 -64h-21l41 132h286z" />
    <glyph glyph-name="uni01C0" unicode="&#x1c0;" horiz-adv-x="176" 
d="M68 620h40v-620h-40v620z" />
    <glyph glyph-name="uni01C1" unicode="&#x1c1;" horiz-adv-x="276" 
d="M68 620h40v-620h-40v620zM168 620h40v-620h-40v620z" />
    <glyph glyph-name="uni01C2" unicode="&#x1c2;" horiz-adv-x="270" 
d="M115 620h40v-250h90v-40h-90v-40h90v-40h-90v-250h-40v250h-90v40h90v40h-90v40h90v250z" />
    <glyph glyph-name="uni01C3" unicode="&#x1c3;" horiz-adv-x="213" 
d="M47 51q0 24 16.5 43.5t42.5 19.5q23 0 42 -18t19 -42t-17 -44t-43 -20q-23 0 -41.5 18.5t-18.5 42.5zM106 186q-14 0 -23 68q-3 19 -14.5 157t-11.5 174q0 22 13.5 33.5t35.5 11.5t35.5 -11.5t13.5 -33.5q0 -36 -11.5 -175t-14.5 -156q-9 -68 -23 -68z" />
    <glyph glyph-name="uni01CD" unicode="&#x1cd;" horiz-adv-x="546" 
d="M252 620l-94 162h26l93 -87l93 87h26l-94 -162h-50zM336 0v21q46 0 58 12l-56 153h-192l-52 -147q10 -18 62 -18v-21h-164v21q56 0 63 21l194 543h48l194 -543q7 -21 64 -21v-21h-219zM241 452l-83 -233h168z" />
    <glyph glyph-name="uni01CE" unicode="&#x1ce;" horiz-adv-x="483" 
d="M198 515l-94 162h26l93 -87l93 87h26l-94 -162h-50zM112 366q14 0 24.5 -10t10.5 -31q0 -17 -13.5 -26t-31.5 -9q-19 0 -31 13.5t-12 36.5q0 52 43 81t122 29q93 0 136.5 -46t43.5 -122v-198q0 -32 10.5 -47t25.5 -15q13 0 23.5 7t10.5 17h18q0 -28 -20.5 -41t-71.5 -13
q-50 0 -71 41q-59 -43 -147 -43q-150 0 -150 122q0 26 18.5 47t53.5 35t66 22.5t77.5 19t66.5 16.5q0 84 -22 123t-78 39q-90 0 -102 -48zM320 58q-6 22 -6 54v118q-11 -4 -37.5 -11t-43 -12t-39.5 -15t-36 -20t-23 -26.5t-10 -35.5q0 -48 18.5 -67t55.5 -19q66 0 121 34z
" />
    <glyph glyph-name="uni01CF" unicode="&#x1cf;" horiz-adv-x="302" 
d="M125 620l-94 162h26l93 -87l93 87h26l-94 -162h-50zM42 0v21q54 0 63 20v503q-9 20 -63 20v21h218v-21q-54 0 -63 -20v-503q9 -20 63 -20v-21h-218z" />
    <glyph glyph-name="uni01D0" unicode="&#x1d0;" horiz-adv-x="268" 
d="M117 515l-94 162h26l93 -87l93 87h26l-94 -162h-50zM31 0v21q54 0 63 20v338q-62 5 -63 5v23q19 0 74.5 21.5t78.5 21.5v-409q9 -20 63 -20v-21h-216z" />
    <glyph glyph-name="uni01D1" unicode="&#x1d1;" horiz-adv-x="641" 
d="M297 620l-94 162h26l93 -87l93 87h26l-94 -162h-50zM144 300q0 -66 18.5 -126.5t61 -105t101.5 -44.5t99.5 42t57 98.5t16.5 119.5q0 65 -19 126.5t-61.5 106t-100.5 44.5q-45 0 -79.5 -24t-54 -63.5t-29.5 -83.5t-10 -90zM44 292q0 125 78 214t199 89t199 -89t78 -214
t-78.5 -213.5t-198.5 -88.5q-122 0 -199.5 88t-77.5 214z" />
    <glyph glyph-name="uni01D2" unicode="&#x1d2;" horiz-adv-x="545" 
d="M250 515l-94 162h26l93 -87l93 87h26l-94 -162h-50zM135 248q0 -114 43.5 -171t111.5 -57q54 0 87 48.5t33 124.5q0 226 -157 226q-53 0 -85.5 -50.5t-32.5 -120.5zM277 -10q-112 0 -175 65.5t-63 172.5q0 97 57 159.5t174 62.5q118 0 177 -62.5t59 -171.5
q0 -97 -56.5 -161.5t-172.5 -64.5z" />
    <glyph glyph-name="uni01D3" unicode="&#x1d3;" horiz-adv-x="618" 
d="M312 620l-94 162h26l93 -87l93 87h26l-94 -162h-50zM338 24q67 0 112.5 56t45.5 148v316q-9 20 -63 20v21h160v-21q-54 0 -63 -20v-296q0 -130 -57.5 -194t-144.5 -64q-240 0 -240 258v296q-9 20 -63 20v21h218v-21q-54 0 -63 -20v-310q0 -99 44 -154.5t114 -55.5z" />
    <glyph glyph-name="uni01D4" unicode="&#x1d4;" horiz-adv-x="550" 
d="M245 515l-94 162h26l93 -87l93 87h26l-94 -162h-50zM465 61l63 -5v-23q-19 0 -74.5 -21.5t-78.5 -21.5v46q-54 -46 -119 -46q-93 0 -134.5 34.5t-41.5 107.5v267q-9 20 -63 20v21h153v-315q0 -101 92 -101q63 0 113 44v331q-9 20 -63 20v21h153v-379z" />
    <glyph glyph-name="uni01D5" unicode="&#x1d5;" horiz-adv-x="618" 
d="M200 803h264v-44h-264v44zM379 669q0 20 14.5 34.5t34.5 14.5t34.5 -14.5t14.5 -34.5t-14.5 -34.5t-34.5 -14.5t-34.5 14.5t-14.5 34.5zM195 669q0 20 14.5 34.5t34.5 14.5t34.5 -14.5t14.5 -34.5t-14.5 -34.5t-34.5 -14.5t-34.5 14.5t-14.5 34.5zM338 24q67 0 112.5 56
t45.5 148v316q-9 20 -63 20v21h160v-21q-54 0 -63 -20v-296q0 -130 -57.5 -194t-144.5 -64q-240 0 -240 258v296q-9 20 -63 20v21h218v-21q-54 0 -63 -20v-310q0 -99 44 -154.5t114 -55.5z" />
    <glyph glyph-name="uni01D6" unicode="&#x1d6;" horiz-adv-x="550" 
d="M134 698h264v-44h-264v44zM314 564q0 20 14.5 34.5t34.5 14.5t34.5 -14.5t14.5 -34.5t-14.5 -34.5t-34.5 -14.5t-34.5 14.5t-14.5 34.5zM130 564q0 20 14.5 34.5t34.5 14.5t34.5 -14.5t14.5 -34.5t-14.5 -34.5t-34.5 -14.5t-34.5 14.5t-14.5 34.5zM465 61l63 -5v-23
q-19 0 -74.5 -21.5t-78.5 -21.5v46q-54 -46 -119 -46q-93 0 -134.5 34.5t-41.5 107.5v267q-9 20 -63 20v21h153v-315q0 -101 92 -101q63 0 113 44v331q-9 20 -63 20v21h153v-379z" />
    <glyph glyph-name="uni01D7" unicode="&#x1d7;" horiz-adv-x="618" 
d="M393 888h106l-154 -162h-26zM379 669q0 20 14.5 34.5t34.5 14.5t34.5 -14.5t14.5 -34.5t-14.5 -34.5t-34.5 -14.5t-34.5 14.5t-14.5 34.5zM195 669q0 20 14.5 34.5t34.5 14.5t34.5 -14.5t14.5 -34.5t-14.5 -34.5t-34.5 -14.5t-34.5 14.5t-14.5 34.5zM338 24
q67 0 112.5 56t45.5 148v316q-9 20 -63 20v21h160v-21q-54 0 -63 -20v-296q0 -130 -57.5 -194t-144.5 -64q-240 0 -240 258v296q-9 20 -63 20v21h218v-21q-54 0 -63 -20v-310q0 -99 44 -154.5t114 -55.5z" />
    <glyph glyph-name="uni01D8" unicode="&#x1d8;" horiz-adv-x="550" 
d="M330 782h106l-154 -162h-26zM314 564q0 20 14.5 34.5t34.5 14.5t34.5 -14.5t14.5 -34.5t-14.5 -34.5t-34.5 -14.5t-34.5 14.5t-14.5 34.5zM130 564q0 20 14.5 34.5t34.5 14.5t34.5 -14.5t14.5 -34.5t-14.5 -34.5t-34.5 -14.5t-34.5 14.5t-14.5 34.5zM465 61l63 -5v-23
q-19 0 -74.5 -21.5t-78.5 -21.5v46q-54 -46 -119 -46q-93 0 -134.5 34.5t-41.5 107.5v267q-9 20 -63 20v21h153v-315q0 -101 92 -101q63 0 113 44v331q-9 20 -63 20v21h153v-379z" />
    <glyph glyph-name="uni01D9" unicode="&#x1d9;" horiz-adv-x="618" 
d="M312 740l-94 162h26l93 -87l93 87h26l-94 -162h-50zM379 669q0 20 14.5 34.5t34.5 14.5t34.5 -14.5t14.5 -34.5t-14.5 -34.5t-34.5 -14.5t-34.5 14.5t-14.5 34.5zM195 669q0 20 14.5 34.5t34.5 14.5t34.5 -14.5t14.5 -34.5t-14.5 -34.5t-34.5 -14.5t-34.5 14.5
t-14.5 34.5zM338 24q67 0 112.5 56t45.5 148v316q-9 20 -63 20v21h160v-21q-54 0 -63 -20v-296q0 -130 -57.5 -194t-144.5 -64q-240 0 -240 258v296q-9 20 -63 20v21h218v-21q-54 0 -63 -20v-310q0 -99 44 -154.5t114 -55.5z" />
    <glyph glyph-name="uni01DA" unicode="&#x1da;" horiz-adv-x="550" 
d="M245 635l-94 162h26l93 -87l93 87h26l-94 -162h-50zM314 564q0 20 14.5 34.5t34.5 14.5t34.5 -14.5t14.5 -34.5t-14.5 -34.5t-34.5 -14.5t-34.5 14.5t-14.5 34.5zM130 564q0 20 14.5 34.5t34.5 14.5t34.5 -14.5t14.5 -34.5t-14.5 -34.5t-34.5 -14.5t-34.5 14.5
t-14.5 34.5zM465 61l63 -5v-23q-19 0 -74.5 -21.5t-78.5 -21.5v46q-54 -46 -119 -46q-93 0 -134.5 34.5t-41.5 107.5v267q-9 20 -63 20v21h153v-315q0 -101 92 -101q63 0 113 44v331q-9 20 -63 20v21h153v-379z" />
    <glyph glyph-name="uni01DB" unicode="&#x1db;" horiz-adv-x="618" 
d="M275 888l74 -162h-26l-154 162h106zM379 669q0 20 14.5 34.5t34.5 14.5t34.5 -14.5t14.5 -34.5t-14.5 -34.5t-34.5 -14.5t-34.5 14.5t-14.5 34.5zM195 669q0 20 14.5 34.5t34.5 14.5t34.5 -14.5t14.5 -34.5t-14.5 -34.5t-34.5 -14.5t-34.5 14.5t-14.5 34.5zM338 24
q67 0 112.5 56t45.5 148v316q-9 20 -63 20v21h160v-21q-54 0 -63 -20v-296q0 -130 -57.5 -194t-144.5 -64q-240 0 -240 258v296q-9 20 -63 20v21h218v-21q-54 0 -63 -20v-310q0 -99 44 -154.5t114 -55.5z" />
    <glyph glyph-name="uni01DC" unicode="&#x1dc;" horiz-adv-x="550" 
d="M210 782l74 -162h-26l-154 162h106zM314 564q0 20 14.5 34.5t34.5 14.5t34.5 -14.5t14.5 -34.5t-14.5 -34.5t-34.5 -14.5t-34.5 14.5t-14.5 34.5zM130 564q0 20 14.5 34.5t34.5 14.5t34.5 -14.5t14.5 -34.5t-14.5 -34.5t-34.5 -14.5t-34.5 14.5t-14.5 34.5zM465 61l63 -5
v-23q-19 0 -74.5 -21.5t-78.5 -21.5v46q-54 -46 -119 -46q-93 0 -134.5 34.5t-41.5 107.5v267q-9 20 -63 20v21h153v-315q0 -101 92 -101q63 0 113 44v331q-9 20 -63 20v21h153v-379z" />
    <glyph glyph-name="eturned" unicode="&#x1dd;" horiz-adv-x="493" 
d="M359 199q-1 84 -48.5 148.5t-106.5 64.5q-87 0 -140 -66l-24 12q29 48 75.5 70t122.5 22q38 0 73 -11.5t69 -38t54 -78.5t20 -124q0 -88 -54.5 -148t-151.5 -60q-106 0 -158 59.5t-52 149.5h321zM358 168h-222q6 -72 30.5 -110t85.5 -38q35 0 67.5 41t38.5 107z" />
    <glyph glyph-name="uni01DE" unicode="&#x1de;" horiz-adv-x="546" 
d="M138 803h264v-44h-264v44zM319 669q0 20 14.5 34.5t34.5 14.5t34.5 -14.5t14.5 -34.5t-14.5 -34.5t-34.5 -14.5t-34.5 14.5t-14.5 34.5zM135 669q0 20 14.5 34.5t34.5 14.5t34.5 -14.5t14.5 -34.5t-14.5 -34.5t-34.5 -14.5t-34.5 14.5t-14.5 34.5zM336 0v21q46 0 58 12
l-56 153h-192l-52 -147q10 -18 62 -18v-21h-164v21q56 0 63 21l194 543h48l194 -543q7 -21 64 -21v-21h-219zM241 452l-83 -233h168z" />
    <glyph glyph-name="uni01DF" unicode="&#x1df;" horiz-adv-x="483" 
d="M84 698h264v-44h-264v44zM265 564q0 20 14.5 34.5t34.5 14.5t34.5 -14.5t14.5 -34.5t-14.5 -34.5t-34.5 -14.5t-34.5 14.5t-14.5 34.5zM81 564q0 20 14.5 34.5t34.5 14.5t34.5 -14.5t14.5 -34.5t-14.5 -34.5t-34.5 -14.5t-34.5 14.5t-14.5 34.5zM112 366q14 0 24.5 -10
t10.5 -31q0 -17 -13.5 -26t-31.5 -9q-19 0 -31 13.5t-12 36.5q0 52 43 81t122 29q93 0 136.5 -46t43.5 -122v-198q0 -32 10.5 -47t25.5 -15q13 0 23.5 7t10.5 17h18q0 -28 -20.5 -41t-71.5 -13q-50 0 -71 41q-59 -43 -147 -43q-150 0 -150 122q0 26 18.5 47t53.5 35t66 22.5
t77.5 19t66.5 16.5q0 84 -22 123t-78 39q-90 0 -102 -48zM320 58q-6 22 -6 54v118q-11 -4 -37.5 -11t-43 -12t-39.5 -15t-36 -20t-23 -26.5t-10 -35.5q0 -48 18.5 -67t55.5 -19q66 0 121 34z" />
    <glyph glyph-name="Gcaron" unicode="&#x1e6;" horiz-adv-x="617" 
d="M318 620l-94 162h26l93 -87l93 87h26l-94 -162h-50zM354 561q-86 0 -148 -80.5t-62 -194.5q0 -69 18 -122t48 -82.5t63 -43.5t67 -14q56 0 106 19v205q-9 20 -63 20v21h218v-21q-54 0 -63 -20v-168q-17 -32 -68.5 -61t-131.5 -29q-134 0 -216 87t-82 207q0 139 94 225
t219 86q29 0 72 -15t49 -15q12 0 12 20h23l10 -127h-22q-6 44 -44 73.5t-99 29.5z" />
    <glyph glyph-name="gcaron" unicode="&#x1e7;" horiz-adv-x="520" 
d="M246 515l-94 162h26l93 -87l93 87h26l-94 -162h-50zM452 450v-421q0 -103 -49.5 -166t-144.5 -63q-85 0 -136.5 29t-51.5 61q0 23 12 36.5t31 13.5q18 0 31.5 -9t13.5 -26q0 -32 -25 -42q27 -27 115 -27q103 0 113 184q-46 -30 -118 -30q-33 0 -65.5 10.5t-65 34.5
t-53 71.5t-20.5 111.5q0 112 62.5 172t163.5 60q63 0 110 -32q51 32 77 32zM362 53v12v330q-36 21 -91 21t-96 -52.5t-41 -145.5q0 -88 33 -141t86 -53q66 0 109 29z" />
    <glyph glyph-name="uni01EA" unicode="&#x1ea;" horiz-adv-x="641" 
d="M45 292h-2q0 125 78 214t199 89t199 -89t78 -214q0 -115 -67 -200.5t-173 -99.5q-21 -29 -21 -51q0 -49 27 -78t61 -29q6 0 14 4t12 8l5 4l11 -18q-2 -4 -7 -9t-25.5 -14t-46.5 -9q-49 0 -74.5 25.5t-25.5 71.5q0 51 38 93h-3q-122 0 -199.5 88t-77.5 214zM143 300
q0 -66 18.5 -126.5t61 -105t101.5 -44.5t99.5 42t57 98.5t16.5 119.5q0 65 -19 126.5t-61.5 106t-100.5 44.5q-45 0 -79.5 -24t-54 -63.5t-29.5 -83.5t-10 -90z" />
    <glyph glyph-name="uni01EB" unicode="&#x1eb;" horiz-adv-x="545" 
d="M135 248q0 -114 43.5 -171t111.5 -57q54 0 87 48.5t33 124.5q0 226 -157 226q-53 0 -85.5 -50.5t-32.5 -120.5zM285 -10v-1q-20 -28 -20 -49q0 -49 27 -78t61 -29q6 0 14 4t13 8l4 4l11 -18q-2 -4 -7 -9t-25.5 -14t-46.5 -9q-49 0 -74.5 25.5t-25.5 71.5q0 53 39 94
q-102 7 -159 71t-57 166q0 97 57 159.5t174 62.5q118 0 177 -62.5t59 -171.5q0 -95 -54.5 -159t-166.5 -66z" />
    <glyph glyph-name="uni01F8" unicode="&#x1f8;" horiz-adv-x="638" 
d="M270 782l74 -162h-26l-154 162h106zM42 0v21q54 0 63 20v503q-9 20 -63 20v21h134l331 -409v368q-9 20 -63 20v21h160v-21q-54 0 -63 -20v-544h-9l-393 497v-456q9 -20 63 -20v-21h-160z" />
    <glyph glyph-name="uni01F9" unicode="&#x1f9;" horiz-adv-x="559" 
d="M240 678l74 -162h-26l-154 162h106zM31 0v21q54 0 63 20v338q-62 5 -63 5v23q19 0 74.5 21.5t78.5 21.5v-46q54 46 119 46q93 0 134.5 -34.5t41.5 -107.5v-267q9 -20 63 -20v-21h-216v21q54 0 63 20v274q0 101 -92 101q-63 0 -113 -44v-331q9 -20 63 -20v-21h-216z" />
    <glyph glyph-name="Oslashacute" unicode="&#x1fe;" horiz-adv-x="641" 
d="M382 782h106l-154 -162h-26zM432 501q-48 60 -115 60q-45 0 -79.5 -24t-54 -63.5t-29.5 -83.5t-10 -90q0 -109 45 -187zM453 470l-243 -388q46 -58 115 -58q59 0 99.5 42t57 98.5t16.5 119.5q0 108 -45 186zM44 292q0 125 78 214t199 89q79 0 144 -41l36 58l29 -18
l-38 -61q50 -42 78 -105t28 -136q0 -125 -78.5 -213.5t-198.5 -88.5q-80 0 -143 40l-37 -58l-29 18l38 61q-50 42 -78 105t-28 136z" />
    <glyph glyph-name="oslashacute" unicode="&#x1ff;" horiz-adv-x="545" 
d="M335 677h106l-154 -162h-26zM360 377q-38 42 -107 42q-53 0 -85.5 -50.5t-32.5 -120.5q0 -92 30 -149zM380 348l-195 -279q42 -49 105 -49q54 0 87 48.5t33 124.5q0 101 -30 155zM422 408q84 -59 84 -192q0 -97 -56.5 -161.5t-172.5 -64.5q-74 0 -127 29l-38 -54l-27 20
l37 52q-83 65 -83 191q0 97 57 159.5t174 62.5q71 0 123 -25l35 50l27 -20z" />
    <glyph glyph-name="Scommaaccent" unicode="&#x218;" horiz-adv-x="478" 
d="M243 -125q-51 0 -51 44q0 18 10.5 28.5t19.5 12.5t16 2q38 0 65 -23.5t27 -63.5q0 -84 -124 -123v28q25 3 51.5 27.5t26.5 55.5q0 18 -2 21.5t-8 3.5q-3 0 -11.5 -6.5t-19.5 -6.5zM249 -10q-49 0 -100 15t-53 15q-6 0 -14 -6t-8 -14h-23v139h22q11 -60 59.5 -87.5
t110.5 -27.5q53 0 87 24t34 72q0 22 -9.5 40t-29 33.5t-37.5 26l-46.5 26t-43.5 24.5q-35 22 -52 33.5t-43.5 34.5t-38.5 48t-12 54q0 59 54 107t121 48q29 0 72 -15t49 -15q12 0 12 20h23l10 -127h-22q-6 44 -44 73.5t-99 29.5q-46 0 -73.5 -29.5t-27.5 -59.5
q0 -19 9 -35.5t28 -30.5t36 -24.5t45.5 -25.5t43.5 -24q41 -25 59 -37t46.5 -37t40 -51.5t11.5 -58.5q0 -74 -60 -116t-137 -42z" />
    <glyph glyph-name="scommaaccent" unicode="&#x219;" horiz-adv-x="405" 
d="M180 -125q-51 0 -51 44q0 18 10.5 28.5t19.5 12.5t16 2q38 0 65 -23.5t27 -63.5q0 -84 -124 -123v28q25 3 51.5 27.5t26.5 55.5q0 18 -1.5 21.5t-8.5 3.5q-3 0 -11.5 -6.5t-19.5 -6.5zM207 20q28 0 61.5 18t33.5 54q0 58 -119 100q-29 10 -47.5 19t-40.5 25t-33 39
t-11 54q0 56 41 88.5t99 32.5q34 0 69.5 -15t40.5 -15q12 0 12 20h23v-120h-22q-6 42 -40.5 71t-79.5 29q-32 0 -53.5 -15t-21.5 -41q0 -15 6 -27.5t12 -20t22.5 -16.5t25 -12.5t31 -11.5l30.5 -11q52 -20 89 -56.5t37 -84.5q0 -61 -49 -97.5t-124 -36.5q-36 0 -70 17
t-38 17q-6 0 -14 -8t-8 -16h-24v141h22q7 -51 47.5 -86t92.5 -35z" />
    <glyph glyph-name="uni021A" unicode="&#x21a;" horiz-adv-x="536" 
d="M273 -125q-51 0 -51 44q0 18 10.5 28.5t19.5 12.5t16 2q38 0 65 -23.5t27 -63.5q0 -84 -124 -123v28q25 3 51.5 27.5t26.5 55.5q0 18 -2 21.5t-8 3.5q-3 0 -11.5 -6.5t-19.5 -6.5zM17 585h502v-97h-21q0 54 -20 63h-164v-510q9 -20 63 -20v-21h-218v21q54 0 63 20v510
h-164q-20 -9 -20 -63h-21v97z" />
    <glyph glyph-name="uni021B" unicode="&#x21b;" horiz-adv-x="333" 
d="M188 -125q-51 0 -51 44q0 18 10.5 28.5t19.5 12.5t16 2q38 0 65 -23.5t27 -63.5q0 -84 -124 -123v28q25 3 51.5 27.5t26.5 55.5q0 18 -1.5 21.5t-8.5 3.5q-3 0 -11.5 -6.5t-19.5 -6.5zM180 585v-145h86v-30h-86v-318q0 -31 11 -47.5t41 -16.5q18 0 36.5 17.5t25.5 48.5
l24 -12q-21 -92 -120 -92q-114 0 -114 110v310h-70v30q47 0 85 39t38 106h43z" />
    <glyph glyph-name="Ecedilla" unicode="&#x228;" horiz-adv-x="507" 
d="M42 0v21q54 0 63 20v503q-9 20 -63 20v21h403v-97h-21q0 54 -20 63h-207v-230h140q20 9 20 63h21v-160h-21q0 54 -20 63h-140v-253h228q25 11 45 63h20l-24 -97h-187l-15 -55q32 0 66 -16.5t34 -50.5q0 -77 -110 -77q-33 0 -74 7v17q18 -2 25 -2q38 0 55 14.5t17 32.5
q0 44 -61 44l25 86h-199z" />
    <glyph glyph-name="ecedilla" unicode="&#x229;" horiz-adv-x="494" 
d="M136 272h222q-6 72 -30.5 110t-85.5 38q-35 0 -67.5 -41t-38.5 -107zM135 241q1 -84 48.5 -148.5t106.5 -64.5q87 0 140 66l24 -12q-53 -87 -176 -92l-12 -45q32 0 66 -16.5t34 -50.5q0 -77 -110 -77q-33 0 -74 7v17q18 -2 25 -2q38 0 55 14.5t17 32.5q0 44 -61 44l22 77
q-37 2 -69.5 15.5t-63.5 40.5t-49 77t-18 118q0 88 54.5 148t151.5 60q106 0 158 -59.5t52 -149.5h-321z" />
    <glyph glyph-name="uni022A" unicode="&#x22a;" horiz-adv-x="641" 
d="M185 803h264v-44h-264v44zM364 669q0 20 14.5 34.5t34.5 14.5t34.5 -14.5t14.5 -34.5t-14.5 -34.5t-34.5 -14.5t-34.5 14.5t-14.5 34.5zM180 669q0 20 14.5 34.5t34.5 14.5t34.5 -14.5t14.5 -34.5t-14.5 -34.5t-34.5 -14.5t-34.5 14.5t-14.5 34.5zM144 300
q0 -66 18.5 -126.5t61 -105t101.5 -44.5t99.5 42t57 98.5t16.5 119.5q0 65 -19 126.5t-61.5 106t-100.5 44.5q-45 0 -79.5 -24t-54 -63.5t-29.5 -83.5t-10 -90zM44 292q0 125 78 214t199 89t199 -89t78 -214t-78.5 -213.5t-198.5 -88.5q-122 0 -199.5 88t-77.5 214z" />
    <glyph glyph-name="uni022B" unicode="&#x22b;" horiz-adv-x="545" 
d="M138 698h264v-44h-264v44zM317 564q0 20 14.5 34.5t34.5 14.5t34.5 -14.5t14.5 -34.5t-14.5 -34.5t-34.5 -14.5t-34.5 14.5t-14.5 34.5zM133 564q0 20 14.5 34.5t34.5 14.5t34.5 -14.5t14.5 -34.5t-14.5 -34.5t-34.5 -14.5t-34.5 14.5t-14.5 34.5zM135 248
q0 -114 43.5 -171t111.5 -57q54 0 87 48.5t33 124.5q0 226 -157 226q-53 0 -85.5 -50.5t-32.5 -120.5zM277 -10q-112 0 -175 65.5t-63 172.5q0 97 57 159.5t174 62.5q118 0 177 -62.5t59 -171.5q0 -97 -56.5 -161.5t-172.5 -64.5z" />
    <glyph glyph-name="uni0237" unicode="&#x237;" horiz-adv-x="243" 
d="M85 379l-63 5v23q19 0 74.5 21.5t78.5 21.5v-494q0 -81 -38.5 -118.5t-95.5 -37.5q-130 0 -130 87q0 18 13.5 29t29.5 11t27.5 -11t11.5 -28q0 -14 -10 -24q0 -17 14 -25.5t34 -8.5t37 29.5t17 82.5v437z" />
    <glyph glyph-name="uni0241" unicode="&#x241;" horiz-adv-x="444" 
d="M326 422q0 143 -126 143q-97 0 -119 -86q14 0 24.5 -10t10.5 -31q0 -17 -13.5 -26t-31.5 -9q-19 0 -31 13.5t-12 36.5q0 59 45.5 100.5t136.5 41.5q101 0 153.5 -48.5t52.5 -106.5q0 -28 -16 -52t-39 -42l-45.5 -35t-38.5 -36.5t-16 -40.5v-193q9 -20 63 -20v-21h-218v21
q54 0 63 20v179q0 33 24.5 62t54 46.5t54 42.5t24.5 51z" />
    <glyph glyph-name="uni0242" unicode="&#x242;" horiz-adv-x="399" 
d="M281 277q0 64 -27 103.5t-73 39.5q-42 0 -68 -25.5t-35 -60.5q14 0 24.5 -10t10.5 -31q0 -17 -13.5 -26t-31.5 -9q-19 0 -31 13.5t-12 36.5q0 57 44.5 99.5t121.5 42.5q89 0 134.5 -48.5t45.5 -106.5q0 -33 -13.5 -59t-32.5 -43t-38.5 -32t-33 -33.5t-13.5 -40.5v-46
q9 -20 63 -20v-21h-211v21q54 0 63 20q1 42 14 70.5t31.5 44l36.5 29.5t31 36.5t13 55.5z" />
    <glyph glyph-name="uni0243" unicode="&#x243;" horiz-adv-x="558" 
d="M42 0v21q54 0 63 20v100h-70v34h70v369q-9 20 -63 20v21h184q125 0 188.5 -41t63.5 -97q0 -102 -106 -138q75 -17 112.5 -55.5t37.5 -82.5q0 -76 -60.5 -123.5t-179.5 -47.5h-240zM197 551v-232h41q140 0 140 127q0 105 -152 105h-29zM197 141v-107h85q140 0 140 136
q0 47 -35 83.5t-117 36.5h-73v-115h102v-34h-102z" />
    <glyph glyph-name="Ubar" unicode="&#x244;" horiz-adv-x="618" 
d="M180 356h316v188q-9 20 -63 20v21h160v-21q-54 0 -63 -20v-188h36v-34h-36v-74q0 -130 -57.5 -194t-144.5 -64q-240 0 -240 258v74h-30v34h30v188q-9 20 -63 20v21h218v-21q-54 0 -63 -20v-188zM338 24q67 0 112.5 56t45.5 148v94h-316v-88q0 -99 44 -154.5t114 -55.5z
" />
    <glyph glyph-name="Vturn" unicode="&#x245;" horiz-adv-x="546" 
d="M336 0v21q46 0 58 12l-153 419l-147 -413q10 -18 62 -18v-21h-164v21q56 0 61 16l196 548h48l194 -543q7 -21 64 -21v-21h-219z" />
    <glyph glyph-name="uni024A" unicode="&#x24a;" horiz-adv-x="609" 
d="M541 -58q0 -54 12.5 -83t31.5 -29q14 0 19.5 6t14.5 24q23 44 46 44q16 0 29 -11t13 -25q0 -32 -42 -50t-90 -18q-56 0 -90 37t-34 119v61q-65 -27 -140 -27q-28 0 -58.5 6t-69.5 25.5t-69 51t-51 88t-21 129.5q0 72 20 127.5t50.5 88t71 53.5t77 28.5t72.5 7.5
q59 0 137 -28q47 28 71 28v-653zM451 49v493q-61 19 -112 19q-21 0 -42 -4t-51.5 -20t-53 -43t-39 -80t-16.5 -124q0 -77 21 -133.5t52.5 -83t59.5 -38t51 -11.5q69 0 130 25z" />
    <glyph glyph-name="uni024B" unicode="&#x24b;" horiz-adv-x="523" 
d="M455 -58q0 -54 12.5 -83t31.5 -29q14 0 19.5 6t14.5 24q23 44 46 44q16 0 29 -11t13 -25q0 -32 -42 -50t-90 -18q-56 0 -90 37t-34 119v67q-48 -33 -122 -33q-33 0 -65.5 10.5t-65 34.5t-53 71.5t-20.5 111.5q0 112 62.5 172t163.5 60q67 0 112 -33q52 33 78 33v-508z
M365 55v338q-36 23 -94 23q-55 0 -96 -52.5t-41 -145.5q0 -88 33 -141t86 -53q69 0 112 31z" />
    <glyph glyph-name="uni024C" unicode="&#x24c;" horiz-adv-x="582" 
d="M281 300q80 0 110 31t30 105q0 55 -33.5 85t-118.5 30h-71v-251h83zM43 0v21q54 0 63 20v225h-87v34h87v244q-9 20 -63 20v21h226q124 0 188 -45t64 -103q0 -55 -33 -96.5t-98 -60.5l133 -238q11 -21 66 -21v-21h-43q-70 0 -91 8t-42 44l-121 214h-94v-225q9 -20 63 -20
v-21h-218z" />
    <glyph glyph-name="uni024D" unicode="&#x24d;" horiz-adv-x="397" 
d="M33 0v21q54 0 63 20v167h-63v34h63v137q-62 5 -63 5v23q19 0 74.5 21.5t78.5 21.5v-44q50 44 99 44q45 0 75.5 -17t30.5 -38q0 -36 -40 -36q-21 0 -38 28.5t-39 28.5q-39 0 -88 -43v-131h111v-34h-111v-167q9 -20 63 -20v-21h-216z" />
    <glyph glyph-name="uni0250" unicode="&#x250;" horiz-adv-x="499" 
d="M387 74q-14 0 -24.5 10t-10.5 31q0 17 13.5 26t31.5 9q19 0 31 -13.5t12 -36.5q0 -52 -43 -81t-122 -29q-93 0 -136.5 46t-43.5 122v198q0 32 -10.5 47t-25.5 15q-13 0 -23.5 -7t-10.5 -17h-18q0 28 20.5 41t71.5 13t71 -41q59 43 147 43q150 0 150 -122q0 -26 -18.5 -47
t-53.5 -35t-66 -22.5t-77.5 -19t-66.5 -16.5q0 -84 22 -123t78 -39q90 0 102 48zM179 382q6 -22 6 -54v-118q11 4 37.5 11t43 12t39.5 15t36 20t23 26.5t10 35.5q0 48 -18.5 67t-55.5 19q-66 0 -121 -34z" />
    <glyph glyph-name="alphalatin" unicode="&#x251;" horiz-adv-x="540" 
d="M377 417q52 33 78 33v-389l63 -5v-23q-19 0 -74.5 -21.5t-78.5 -21.5v33q-48 -33 -122 -33q-33 0 -65.5 10.5t-65 34.5t-53 71.5t-20.5 111.5q0 112 62.5 172t163.5 60q67 0 112 -33zM365 393q-36 23 -94 23q-55 0 -96 -52.5t-41 -145.5q0 -88 33 -141t86 -53
q69 0 112 31v338z" />
    <glyph glyph-name="uni0252" unicode="&#x252;" horiz-adv-x="540" 
d="M163 23q-52 -33 -78 -33v389l-63 5v23q19 0 74.5 21.5t78.5 21.5v-33q48 33 122 33q33 0 65.5 -10.5t65 -34.5t53 -71.5t20.5 -111.5q0 -112 -62.5 -172t-163.5 -60q-67 0 -112 33zM175 47q36 -23 94 -23q55 0 96 52.5t41 145.5q0 88 -33 141t-86 53q-69 0 -112 -31v-338
z" />
    <glyph glyph-name="uni0253" unicode="&#x253;" horiz-adv-x="523" 
d="M324 562q0 -14 -13 -25t-29 -11q-23 0 -46 44l-9.5 17.5t-8.5 8.5t-16 4q-19 0 -31.5 -29t-12.5 -83v-69q48 35 122 35q33 0 65.5 -11.5t65 -36t53 -72.5t20.5 -112q0 -112 -62.5 -172t-163.5 -60q-67 0 -112 33q-52 -33 -78 -33v484q0 82 34 119t90 37q48 0 90 -18
t42 -50zM158 387v-340q36 -23 94 -23q55 0 96 52.5t41 145.5q0 88 -33 143t-86 55q-69 0 -112 -33z" />
    <glyph glyph-name="oopen" unicode="&#x254;" horiz-adv-x="487" 
d="M215 20q62 0 100 55t38 156q0 73 -41 127t-100 54q-45 0 -77 -14.5t-61 -51.5l-24 12q29 48 74.5 70t121.5 22q36 0 70.5 -12t64.5 -36.5t48.5 -67.5t18.5 -99q0 -113 -60 -179t-163 -66q-90 0 -141 39.5t-51 95.5q0 23 12 36.5t31 13.5q18 0 31.5 -9t13.5 -26
q0 -21 -10.5 -31t-24.5 -10q8 -30 46 -54.5t83 -24.5z" />
    <glyph glyph-name="uni0255" unicode="&#x255;" horiz-adv-x="469" 
d="M113 38q-76 64 -76 204q0 87 61.5 147.5t161.5 60.5q79 0 122 -27t43 -79q0 -23 -12 -36.5t-31 -13.5q-18 0 -31.5 9t-13.5 26q0 21 10.5 31t24.5 10q-13 50 -102 50q-62 0 -100 -47t-38 -127q0 -76 40 -141q78 65 162 65q40 0 70.5 -18t30.5 -50q0 -112 -182 -112
q-63 0 -113 29q-18 -31 -18 -69h-34q0 46 25 88zM190 80q44 -52 97 -52q46 0 77 20.5t31 55.5q0 19 -17 30t-44 11q-32 0 -71.5 -18t-72.5 -47z" />
    <glyph glyph-name="uni0256" unicode="&#x256;" horiz-adv-x="521" 
d="M363 430v129l-63 5v23q19 0 74.5 21.5t78.5 21.5v-644q0 -54 12.5 -83t31.5 -29q14 0 19.5 6t14.5 24q23 44 46 44q16 0 29 -11t13 -25q0 -32 -42 -50t-90 -18q-56 0 -90 37t-34 119v23q-48 -33 -120 -33q-33 0 -65.5 11.5t-65 36t-53 72.5t-20.5 112q0 112 62.5 172
t163.5 60q57 0 98 -24zM363 56v342q-38 22 -92 22q-55 0 -96 -53t-41 -145q0 -61 35.5 -129.5t83.5 -68.5q69 0 110 32z" />
    <glyph glyph-name="uni0257" unicode="&#x257;" horiz-adv-x="537" 
d="M363 430v44q0 82 34 119t90 37q48 0 90 -18t42 -50q0 -14 -13 -25t-29 -11q-23 0 -46 44l-9.5 17.5t-8.5 8.5t-16 4q-19 0 -31.5 -29t-12.5 -83v-427l63 -5v-23q-19 0 -74.5 -21.5t-78.5 -21.5v33q-48 -33 -120 -33q-33 0 -65.5 11.5t-65 36t-53 72.5t-20.5 112
q0 112 62.5 172t163.5 60q57 0 98 -24zM363 398q-38 22 -92 22q-55 0 -96 -53t-41 -145q0 -61 35.5 -129.5t83.5 -68.5q69 0 110 32v342z" />
    <glyph glyph-name="uni0258" unicode="&#x258;" horiz-adv-x="493" 
d="M359 241h-321q0 90 52 149.5t158 59.5q97 0 151.5 -60t54.5 -148q0 -72 -20 -124t-54 -78.5t-69 -38t-73 -11.5q-76 0 -122.5 22t-75.5 70l24 12q53 -66 140 -66q59 0 106.5 64.5t48.5 148.5zM358 272q-6 66 -38.5 107t-67.5 41q-61 0 -85.5 -38t-30.5 -110h222z" />
    <glyph glyph-name="schwa" unicode="&#x259;" horiz-adv-x="493" 
d="M359 199q-1 84 -48.5 148.5t-106.5 64.5q-87 0 -140 -66l-24 12q29 48 75.5 70t122.5 22q38 0 73 -11.5t69 -38t54 -78.5t20 -124q0 -88 -54.5 -148t-151.5 -60q-106 0 -158 59.5t-52 149.5h321zM358 168h-222q6 -72 30.5 -110t85.5 -38q35 0 67.5 41t38.5 107z" />
    <glyph glyph-name="uni025A" unicode="&#x25a;" horiz-adv-x="632" 
d="M357 168h-222q6 -72 30.5 -110t85.5 -38q35 0 67.5 41t38.5 107zM358 199l1 1q-1 84 -48.5 148.5t-106.5 64.5q-87 0 -140 -66l-24 12q29 48 75.5 70t122.5 22q98 0 156 -65l123 72q0 -39 13.5 -66.5t29.5 -27.5q22 0 36 49l33 -10q-9 -33 -26.5 -53t-42.5 -20
q-45 0 -67 60l-72 -42q32 -59 32 -150q0 -88 -54.5 -148t-151.5 -60q-106 0 -158 59.5t-52 149.5h321z" />
    <glyph glyph-name="eopen" unicode="&#x25b;" horiz-adv-x="453" 
d="M361 310q-16 0 -26.5 11.5t-10.5 29.5q0 23 22 31q-15 19 -33.5 28.5t-53.5 9.5q-112 0 -112 -92q0 -35 34 -57.5t93 -22.5v-38q-68 0 -103.5 -21.5t-35.5 -78.5q0 -40 39.5 -61t97.5 -21q78 0 131 66l24 -12q-30 -49 -69.5 -70.5t-108.5 -21.5q-209 0 -209 124
q0 84 97 116q-85 32 -85 94q0 57 49 91.5t148 34.5q74 0 117 -27t43 -69q0 -19 -13.5 -31.5t-34.5 -12.5z" />
    <glyph glyph-name="uni025C" unicode="&#x25c;" horiz-adv-x="453" 
d="M92 310q-21 0 -34.5 12.5t-13.5 31.5q0 42 43 69t117 27q99 0 148 -34.5t49 -91.5q0 -62 -85 -94q97 -32 97 -116q0 -124 -209 -124q-69 0 -108.5 21.5t-69.5 70.5l24 12q53 -66 131 -66q58 0 97.5 21t39.5 61q0 57 -35.5 78.5t-103.5 21.5v38q59 0 93 22.5t34 57.5
q0 92 -112 92q-35 0 -53.5 -9.5t-33.5 -28.5q22 -8 22 -31q0 -18 -10.5 -29.5t-26.5 -11.5z" />
    <glyph glyph-name="uni025D" unicode="&#x25d;" horiz-adv-x="594" 
d="M92 310q-21 0 -34.5 12.5t-13.5 31.5q0 42 43 69t117 27q122 0 170 -53l104 61q0 -39 13.5 -66.5t29.5 -27.5q22 0 36 49l33 -10q-9 -33 -26.5 -53t-42.5 -20q-45 0 -67 60l-57 -34q4 -13 4 -32q0 -62 -85 -94q97 -32 97 -116q0 -124 -209 -124q-69 0 -108.5 21.5
t-69.5 70.5l24 12q53 -66 131 -66q58 0 97.5 21t39.5 61q0 57 -35.5 78.5t-103.5 21.5v38q59 0 93 22.5t34 57.5q0 92 -112 92q-35 0 -53.5 -9.5t-33.5 -28.5q22 -8 22 -31q0 -18 -10.5 -29.5t-26.5 -11.5z" />
    <glyph glyph-name="uni025E" unicode="&#x25e;" horiz-adv-x="485" 
d="M41 220q0 104 46 167t150 63q100 0 151 -26t51 -89q0 -80 -84 -108q84 -31 84 -113q0 -124 -202 -124q-95 0 -145.5 61.5t-50.5 168.5zM212 248q69 0 100.5 17t31.5 74q0 40 -25.5 56.5t-77.5 16.5q-75 0 -118 -54t-43 -138q0 -81 45.5 -136.5t115.5 -55.5q103 0 103 82
q0 58 -32.5 79t-99.5 21v38z" />
    <glyph glyph-name="uni025F" unicode="&#x25f;" horiz-adv-x="284" 
d="M105 379l-63 5v23q19 0 74.5 21.5t78.5 21.5v-416h75v-34h-75v-44q0 -81 -38.5 -118.5t-95.5 -37.5q-130 0 -130 87q0 18 13.5 29t29.5 11t27.5 -11t11.5 -28q0 -14 -10 -24q0 -17 14 -25.5t34 -8.5t37 29.5t17 82.5v58h-81v34h81v345z" />
    <glyph glyph-name="uni0260" unicode="&#x260;" horiz-adv-x="523" 
d="M365 393q-36 23 -94 23q-55 0 -96 -52.5t-41 -145.5q0 -88 33 -141t86 -53q69 0 112 31v10v328zM364 23q-48 -33 -121 -33q-33 0 -65.5 10.5t-65 34.5t-53 71.5t-20.5 111.5q0 112 62.5 172t163.5 60q57 0 101 -26q6 66 39.5 96t83.5 30q48 0 90 -18t42 -50
q0 -14 -13 -25t-29 -11q-23 0 -46 44l-9.5 17.5t-8.5 8.5t-16 4q-19 0 -31.5 -29t-12.5 -83v-379q0 -102 -52.5 -165.5t-147.5 -63.5q-89 0 -137 28.5t-48 61.5q0 23 12 36.5t31 13.5q18 0 31.5 -9t13.5 -26q0 -32 -25 -42q27 -27 112 -27q56 0 85.5 42t33.5 145z" />
    <glyph glyph-name="uni0261" unicode="&#x261;" horiz-adv-x="520" 
d="M452 450v-421q0 -103 -49.5 -166t-144.5 -63q-85 0 -136.5 29t-51.5 61q0 23 12 36.5t31 13.5q18 0 31.5 -9t13.5 -26q0 -32 -25 -42q27 -27 115 -27q103 0 113 184q-46 -30 -118 -30q-33 0 -65.5 10.5t-65 34.5t-53 71.5t-20.5 111.5q0 112 62.5 172t163.5 60
q63 0 110 -32q51 32 77 32zM362 53v12v330q-36 21 -91 21t-96 -52.5t-41 -145.5q0 -88 33 -141t86 -53q66 0 109 29z" />
    <glyph glyph-name="uni0262" unicode="&#x262;" horiz-adv-x="533" 
d="M292 451q30 0 68 -15t43 -15q12 0 12 20h23l10 -127h-22q-7 45 -39.5 74t-93.5 29q-75 0 -117 -49.5t-42 -134.5q0 -86 44 -145.5t111 -59.5q44 0 72 12v147q-9 20 -63 20v21h218v-21q-54 0 -63 -20v-105q-29 -48 -75.5 -70t-122.5 -22q-37 0 -73 12.5t-69 38.5
t-53.5 74.5t-20.5 113.5q0 101 65.5 161.5t187.5 60.5z" />
    <glyph glyph-name="uni0263" unicode="&#x263;" horiz-adv-x="507" 
d="M209 440v-21q-42 0 -55 -10l111 -232q1 -2 9 -20l141 250q-12 12 -58 12v21h156v-21q-53 0 -63 -20l-159 -283q54 -140 54 -218q0 -42 -23 -70t-64 -28q-89 0 -89 100q0 52 51 156q-18 50 -45 107l-118 236q-12 20 -63 20v21h215zM237 7q-27 -65 -27 -90q0 -70 25 -70
q11 0 18.5 19.5t7.5 36.5q0 34 -24 104z" />
    <glyph glyph-name="uni0264" unicode="&#x264;" horiz-adv-x="555" 
d="M287 387q55 63 104 63q47 0 96 -59.5t49 -123.5q0 -21 -12.5 -34t-33.5 -13t-34 12.5t-13 33.5q0 66 -13 108t-39 42q-35 0 -82 -60q62 -101 62 -268q0 -40 -30 -69t-72 -29q-45 0 -74.5 26t-29.5 74q0 45 20 107t53 119q-43 100 -83 100q-19 0 -30 -46.5t-11 -100.5
q0 -22 -15.5 -35.5t-31.5 -13.5t-31.5 12.5t-15.5 35.5q0 56 38 119t97 63q79 0 132 -63zM256 270q-50 -100 -50 -163q0 -33 12.5 -51.5t27.5 -18.5q14 0 27.5 16.5t13.5 39.5q0 86 -31 177z" />
    <glyph glyph-name="uni0265" unicode="&#x265;" horiz-adv-x="534" 
d="M466 440v-559q62 -5 63 -5v-23q-19 0 -74.5 -21.5t-78.5 -21.5v226q-54 -46 -119 -46q-95 0 -135.5 31t-40.5 107v271q-9 20 -63 20v21h153v-319q0 -97 92 -97q63 0 113 44v331q-9 20 -63 20v21h153z" />
    <glyph glyph-name="uni0266" unicode="&#x266;" horiz-adv-x="550" 
d="M21 0v21q54 0 63 20v433q0 82 34 119t90 37q48 0 90 -18t42 -50q0 -14 -13 -25t-29 -11q-23 0 -46 44l-9.5 17.5t-8.5 8.5t-16 4q-19 0 -31.5 -29t-12.5 -83v-84q54 46 119 46q95 0 135.5 -31t40.5 -107v-271q9 -20 63 -20v-21h-216v21q54 0 63 20v278q0 97 -92 97
q-63 0 -113 -44v-331q9 -20 63 -20v-21h-216z" />
    <glyph glyph-name="uni0267" unicode="&#x267;" horiz-adv-x="536" 
d="M21 0v21q54 0 63 20v433q0 82 34 119t90 37q48 0 90 -18t42 -50q0 -14 -13 -25t-29 -11q-23 0 -46 44l-9.5 17.5t-8.5 8.5t-16 4q-19 0 -31.5 -29t-12.5 -83v-84q54 46 119 46q95 0 135.5 -31t40.5 -107v-312q0 -82 -34 -119t-90 -37q-48 0 -90 18t-42 50q0 14 13 25
t29 11q23 0 46 -44l9.5 -17.5t8.5 -8.5t16 -4q19 0 31.5 29t12.5 83v333q0 97 -92 97q-63 0 -113 -44v-331q9 -20 63 -20v-21h-216z" />
    <glyph glyph-name="istroke" unicode="&#x268;" horiz-adv-x="318" 
d="M163 514q-22 0 -38.5 16.5t-16.5 42.5q0 23 14.5 40t37.5 17q22 0 39 -17t17 -43q0 -23 -15 -39.5t-38 -16.5zM58 0v21q54 0 63 20v202h-93v34h93v102l-63 5v23q19 0 74.5 21.5t78.5 21.5v-173h81v-34h-81v-202q9 -20 63 -20v-21h-216z" />
    <glyph glyph-name="iotalatin" unicode="&#x269;" horiz-adv-x="268" 
d="M173 84q0 -32 11.5 -47t26.5 -15q13 0 23.5 7t10.5 17h18q0 -28 -20.5 -41t-71.5 -13q-88 0 -88 120v267l-63 5v23q19 0 74.5 21.5t78.5 21.5v-366z" />
    <glyph glyph-name="uni026A" unicode="&#x26a;" horiz-adv-x="274" 
d="M28 0v21q54 0 63 20v358q-9 20 -63 20v21h218v-21q-54 0 -63 -20v-358q9 -20 63 -20v-21h-218z" />
    <glyph glyph-name="uni026B" unicode="&#x26b;" horiz-adv-x="350" 
d="M67 0v20q54 0 63 20v251q-26 12 -36 12q-28 0 -39 -14.5t-11 -44.5h-19q0 112 76 112q13 0 29 -6v209q-62 5 -63 5v23q19 0 74.5 21.5t78.5 21.5v-321q26 -12 37 -12q28 0 39 14.5t11 44.5h19q0 -112 -77 -112q-13 0 -29 6v-209q9 -20 63 -20v-21h-216z" />
    <glyph glyph-name="uni026C" unicode="&#x26c;" horiz-adv-x="351" 
d="M77 0v21q54 0 63 20v206q-119 9 -119 92q0 32 26 51.5t60 19.5q17 0 33 -3v152q-62 5 -63 5v23q19 0 74.5 21.5t78.5 21.5v-350q15 5 29.5 12.5t21.5 12t20.5 14.5t14.5 11l20 -22q-3 -2 -14 -11t-17.5 -13l-19 -11.5t-26 -12.5t-29.5 -8v-211q9 -20 63 -20v-21h-216z
M140 274v41q0 68 -38 68t-38 -46q0 -53 76 -63z" />
    <glyph glyph-name="uni026D" unicode="&#x26d;" horiz-adv-x="226" 
d="M68 559q-62 5 -63 5v23q19 0 74.5 21.5t78.5 21.5v-650q0 -32 11.5 -47t26.5 -15q13 0 23.5 7t10.5 17h18q0 -28 -20.5 -41t-71.5 -13q-88 0 -88 120v551z" />
    <glyph glyph-name="uni026E" unicode="&#x26e;" horiz-adv-x="559" 
d="M21 0v21q54 0 63 20v518q-62 5 -63 5v23q19 0 74.5 21.5t78.5 21.5v-190h344l-140 -260q67 -19 113 -65.5t46 -114.5q0 -76 -59.5 -128.5t-159.5 -52.5q-40 0 -78.5 8.5t-69.5 31t-31 55.5q0 23 12 36.5t31 13.5q18 0 31.5 -9t13.5 -26q0 -21 -10.5 -31t-24.5 -10
q15 -20 49.5 -29.5t66.5 -9.5q62 0 98 38.5t36 108.5t-41.5 117.5t-122.5 50.5l133 246h-237v-369q9 -20 63 -20v-21h-216z" />
    <glyph glyph-name="uni026F" unicode="&#x26f;" horiz-adv-x="814" 
d="M729 61l63 -5v-23q-19 0 -74.5 -21.5t-78.5 -21.5v45q-53 -45 -111 -45q-120 0 -154 58q-56 -58 -125 -58q-168 0 -168 114v295q-9 20 -63 20v21h153v-299q0 -65 19 -91t65 -26q59 0 109 48q-4 13 -4 32v295q-9 20 -63 20v21h153v-299q0 -65 19 -91t65 -26q57 0 105 44
v331q-9 20 -63 20v21h153v-379z" />
    <glyph glyph-name="uni0270" unicode="&#x270;" horiz-adv-x="797" 
d="M729 -119l63 -5v-23q-19 0 -74.5 -21.5t-78.5 -21.5v225q-53 -45 -111 -45q-120 0 -154 58q-56 -58 -125 -58q-168 0 -168 114v295q-9 20 -63 20v21h153v-299q0 -65 19 -91t65 -26q59 0 109 48q-4 13 -4 32v295q-9 20 -63 20v21h153v-299q0 -65 19 -91t65 -26
q57 0 105 44v331q-9 20 -63 20v21h153v-559z" />
    <glyph glyph-name="uni0271" unicode="&#x271;" horiz-adv-x="806" 
d="M742 -58q0 -82 -34 -119t-90 -37q-48 0 -90 18t-42 50q0 14 13 25t29 11q23 0 46 -44l9.5 -17.5t8.5 -8.5t16 -4q19 0 31.5 29t12.5 83v371q0 65 -19 91t-65 26q-59 0 -109 -48q4 -13 4 -32v-295q9 -20 63 -20v-21h-216v21q54 0 63 20v258q0 65 -19 91t-65 26
q-57 0 -105 -44v-331q9 -20 63 -20v-21h-216v21q54 0 63 20v338q-62 5 -63 5v23q19 0 74.5 21.5t78.5 21.5v-45q53 45 111 45q120 0 154 -58q56 58 125 58q168 0 168 -114v-394z" />
    <glyph glyph-name="uni0272" unicode="&#x272;" horiz-adv-x="550" 
d="M175 -58q0 -82 -34 -119t-90 -37q-48 0 -90 18t-42 50q0 14 13 25t29 11q23 0 46 -44l9.5 -17.5t8.5 -8.5t16 -4q19 0 31.5 29t12.5 83v451l-63 5v23q19 0 74.5 21.5t78.5 21.5v-46q54 46 119 46q93 0 134.5 -34.5t41.5 -107.5v-267q9 -20 63 -20v-21h-216v21q54 0 63 20
v274q0 101 -92 101q-63 0 -113 -44v-430z" />
    <glyph glyph-name="uni0273" unicode="&#x273;" horiz-adv-x="542" 
d="M31 0v21q54 0 63 20v338q-62 5 -63 5v23q19 0 74.5 21.5t78.5 21.5v-46q54 46 119 46q93 0 134.5 -34.5t41.5 -107.5v-322q0 -54 12.5 -83t31.5 -29q14 0 19.5 6t14.5 24q23 44 46 44q16 0 29 -11t13 -25q0 -32 -42 -50t-90 -18q-56 0 -90 37t-34 119v315q0 101 -92 101
q-63 0 -113 -44v-331q9 -20 63 -20v-21h-216z" />
    <glyph glyph-name="uni0274" unicode="&#x274;" horiz-adv-x="541" 
d="M28 0v21q54 0 63 20v358q-9 20 -63 20v21h124l271 -281v240q-9 20 -63 20v21h160v-21q-54 0 -63 -20v-399h-9l-323 354v-313q9 -20 63 -20v-21h-160z" />
    <glyph glyph-name="obar" unicode="&#x275;" horiz-adv-x="545" 
d="M277 -10q-112 0 -175 65.5t-63 172.5q0 97 57 159.5t174 62.5q118 0 177 -62.5t59 -171.5q0 -97 -56.5 -161.5t-172.5 -64.5zM410 203h-273q9 -92 50.5 -137.5t102.5 -45.5q54 0 87 48.5t33 124.5v10zM408 237q-14 182 -155 182q-53 0 -85.5 -50.5t-32.5 -120.5v-11h273z
" />
    <glyph glyph-name="uni0276" unicode="&#x276;" horiz-adv-x="758" 
d="M135 248q0 -114 43.5 -171t111.5 -57q62 0 96 63v253q-38 83 -133 83q-53 0 -85.5 -50.5t-32.5 -120.5zM353 440h336v-97h-21q0 54 -20 63h-170v-152h103q20 9 20 63h21v-160h-21q0 54 -20 63h-103v-186h191q25 11 45 63h20l-24 -97h-353q-38 -10 -80 -10
q-112 0 -175 65.5t-63 172.5q0 97 57 159.5t174 62.5q47 0 83 -10z" />
    <glyph glyph-name="uni0277" unicode="&#x277;" horiz-adv-x="636" 
d="M35 199q0 103 83 177t200 74t200 -74t83 -177q0 -91 -50 -149.5t-118 -58.5q-75 0 -115 73q-40 -73 -115 -73q-68 0 -118 58.5t-50 149.5zM284 225h68q0 -40 2 -67t9.5 -62t26 -53t47.5 -18q33 0 53.5 47t20.5 125q0 90 -56.5 154.5t-136.5 64.5t-136.5 -64.5
t-56.5 -154.5q0 -78 20.5 -125t53.5 -47q29 0 47.5 18t26 53t9.5 62t2 67z" />
    <glyph glyph-name="uni0278" unicode="&#x278;" horiz-adv-x="594" 
d="M192 -192v21q54 0 63 20v144q-98 14 -158 77.5t-60 157.5q0 85 58 147t160 73v131q-9 20 -63 20v21h218v-21q-54 0 -63 -20v-133q98 -13 153.5 -75t55.5 -155q0 -84 -55.5 -147t-153.5 -76v-144q9 -20 63 -20v-21h-218zM347 406v-381q47 14 80 60.5t33 107.5
q0 168 -113 213zM255 417q-49 -11 -85.5 -60.5t-36.5 -108.5q0 -87 34.5 -142t87.5 -75v386z" />
    <glyph glyph-name="uni0279" unicode="&#x279;" horiz-adv-x="395" 
d="M364 440v-21q-54 0 -63 -20v-338l63 -5v-23q-19 0 -74.5 -21.5t-78.5 -21.5v44q-50 -44 -99 -44q-45 0 -75.5 17t-30.5 38q0 36 40 36q21 0 38 -28.5t39 -28.5q39 0 88 43v332q-9 20 -63 20v21h216z" />
    <glyph glyph-name="uni027A" unicode="&#x27a;" horiz-adv-x="384" 
d="M362 620v-21q-54 0 -63 -20v-518l63 -5v-23q-19 0 -74.5 -21.5t-78.5 -21.5v44q-50 -44 -99 -44q-45 0 -75.5 17t-30.5 38q0 36 40 36q21 0 38 -28.5t39 -28.5q39 0 88 43v512q-9 20 -63 20v21h216z" />
    <glyph glyph-name="uni027B" unicode="&#x27b;" horiz-adv-x="385" 
d="M364 440v-21q-54 0 -63 -20v-413q0 -54 12.5 -83t31.5 -29q14 0 19.5 6t14.5 24q23 44 46 44q16 0 29 -11t13 -25q0 -32 -42 -50t-90 -18q-56 0 -90 37t-34 119v34q-50 -44 -99 -44q-45 0 -75.5 17t-30.5 38q0 36 40 36q21 0 38 -28.5t39 -28.5q39 0 88 43v332
q-9 20 -63 20v21h216z" />
    <glyph glyph-name="uni027C" unicode="&#x27c;" horiz-adv-x="384" 
d="M22 -180v21q54 0 63 20v518l-63 5v23q19 0 74.5 21.5t78.5 21.5v-44q50 44 99 44q45 0 75.5 -17t30.5 -38q0 -36 -40 -36q-21 0 -38 28.5t-39 28.5q-39 0 -88 -43v-512q9 -20 63 -20v-21h-216z" />
    <glyph glyph-name="uni027D" unicode="&#x27d;" horiz-adv-x="383" 
d="M381 404q0 -29 -35 -29q-21 0 -34.5 20.5t-35.5 20.5q-44 0 -86 -40v-390q0 -54 12.5 -83t31.5 -29q14 0 19.5 6t14.5 24q23 44 46 44q16 0 29 -11t13 -25q0 -32 -42 -50t-90 -18q-56 0 -90 37t-34 119v379q-62 5 -63 5v23q19 0 74.5 21.5t78.5 21.5v-41q45 41 92 41
q45 0 72 -13t27 -33z" />
    <glyph glyph-name="uni027E" unicode="&#x27e;" horiz-adv-x="400" 
d="M16 0v21q54 0 63 20v253q0 82 42 119t107 37q61 0 109 -18t48 -50q0 -14 -13 -25t-29 -11q-23 0 -46 44q-15 30 -59 30q-31 0 -50 -28.5t-19 -83.5v-267q9 -20 63 -20v-21h-216z" />
    <glyph glyph-name="uni027F" unicode="&#x27f;" horiz-adv-x="400" 
d="M384 0h-216v21q54 0 63 20v267q0 55 -19 83.5t-50 28.5q-44 0 -59 -30q-23 -44 -46 -44q-16 0 -29 11t-13 25q0 32 48 50t109 18q65 0 107 -37t42 -119v-253q9 -20 63 -20v-21z" />
    <glyph glyph-name="uni0280" unicode="&#x280;" horiz-adv-x="513" 
d="M28 0v21q54 0 63 20v358q-9 20 -63 20v21h206q99 0 152.5 -34t53.5 -77q0 -83 -94 -117l107 -182v2q10 -16 53 -16v-16h-35q-59 0 -79.5 6t-36.5 33l-95 157h-17h-60v-155q9 -20 63 -20v-21h-218zM183 406v-176h55q65 0 88.5 21.5t23.5 76.5q0 40 -25.5 59t-95.5 19h-46z
" />
    <glyph glyph-name="uni0281" unicode="&#x281;" horiz-adv-x="513" 
d="M28 440h218v-21q-54 0 -63 -20v-155h60h17l95 157q16 27 36.5 33t79.5 6h35v-16q-43 0 -53 -16v2l-107 -182q94 -34 94 -117q0 -43 -53.5 -77t-152.5 -34h-206v21q54 0 63 20v358q-9 20 -63 20v21zM183 34h46q70 0 95.5 19t25.5 59q0 55 -23.5 76.5t-88.5 21.5h-55v-176z
" />
    <glyph glyph-name="uni0282" unicode="&#x282;" horiz-adv-x="405" 
d="M205 -167q0 -34 -28 -34q-58 0 -95 25.5t-37 77.5v98v34v107h22q7 -51 47.5 -86t92.5 -35q28 0 61.5 18t33.5 54q0 58 -119 100q-29 10 -47.5 19t-40.5 25t-33 39t-11 54q0 56 41 88.5t99 32.5q34 0 69.5 -15t40.5 -15q12 0 12 20h23v-120h-22q-6 42 -40.5 71t-79.5 29
q-32 0 -53.5 -15t-21.5 -41q0 -15 6 -27.5t12 -20t22.5 -16.5t25 -12.5t31 -11.5l30.5 -11q52 -20 89 -56.5t37 -84.5q0 -61 -49 -97.5t-124 -36.5q-36 0 -70 17t-38 17q-6 0 -12 -6v-131q0 -29 29 -29q9 0 32 4t33 4q32 0 32 -33z" />
    <glyph glyph-name="uni0283" unicode="&#x283;" horiz-adv-x="226" 
d="M158 46q0 -82 -34 -119t-90 -37q-51 0 -80 14t-29 36q0 14 10 26t26 12q30 0 39 -34q5 -24 24 -24t31.5 29t12.5 83v442q0 82 34 119t90 37q51 0 80 -14t29 -36q0 -14 -10 -26t-26 -12q-30 0 -39 34q-5 24 -24 24t-31.5 -29t-12.5 -83v-442z" />
    <glyph glyph-name="uni0284" unicode="&#x284;" horiz-adv-x="287" 
d="M198 34h75v-34h-75v-44q0 -81 -38 -118.5t-96 -37.5q-130 0 -130 87q0 18 13.5 29t29.5 11t27.5 -11t11.5 -28q0 -14 -10 -24q0 -17 14 -25.5t34 -8.5t37 29.5t17 82.5v58h-81v34h81l-1 440q0 82 34 119t90 37q51 0 80 -14t29 -36q0 -14 -10 -26t-26 -12q-30 0 -39 34
q-5 24 -24 24t-31.5 -29t-12.5 -83z" />
    <glyph glyph-name="uni0285" unicode="&#x285;" horiz-adv-x="386" 
d="M148 146v162q0 54 -12.5 83t-31.5 29t-24 -24q-9 -34 -39 -34q-16 0 -26 12t-10 26q0 22 29 36t80 14q56 0 90 -37t34 -119v-162q0 -54 12.5 -83t31.5 -29t24 24q9 34 39 34q16 0 26 -12t10 -26q0 -22 -29 -36t-80 -14q-56 0 -90 37t-34 119z" />
    <glyph glyph-name="uni0286" unicode="&#x286;" horiz-adv-x="346" 
d="M137 16h-6q-115 0 -115 -103q0 -33 23 -55.5t47 -22.5q20 0 35.5 27t15.5 80v74zM227 488v-449q61 -15 123 -61l-27 -29q-47 35 -96 51v-44q0 -81 -38.5 -118.5t-95.5 -37.5q-64 0 -99 28.5t-35 82.5q0 68 46 103.5t122 35.5h10v424q0 82 34 119t90 37q51 0 80 -14
t29 -36q0 -14 -10 -26t-26 -12q-30 0 -39 34q-5 24 -24 24t-31.5 -29t-12.5 -83z" />
    <glyph glyph-name="uni0287" unicode="&#x287;" horiz-adv-x="284" 
d="M101 0v145h-86v30h86v318q0 31 -11 47.5t-41 16.5q-18 0 -36.5 -17.5t-25.5 -48.5l-24 12q21 92 120 92q114 0 114 -110v-310h70v-30q-58 0 -94 -43.5t-36 -101.5h-36z" />
    <glyph glyph-name="uni0288" unicode="&#x288;" horiz-adv-x="276" 
d="M182 -58q0 -112 38 -112q14 0 19.5 6t14.5 24q23 44 46 44q16 0 29 -11t13 -25q0 -32 -42 -50t-90 -18q-56 0 -90 37t-34 119v454h-70v30q47 0 85 39t38 106h43v-145h86v-30h-86v-468z" />
    <glyph glyph-name="ubar" unicode="&#x289;" horiz-adv-x="552" 
d="M376 229h-205v-104q0 -101 92 -101q63 0 113 44v161zM466 61q62 -5 63 -5v-23q-19 0 -74.5 -21.5t-78.5 -21.5v46q-54 -46 -119 -46q-93 0 -134.5 34.5t-41.5 107.5v97h-61v34h61v136q-9 20 -63 20v21h153v-177h205v136q-9 20 -63 20v21h153v-177h62v-34h-62v-168z" />
    <glyph glyph-name="uni028A" unicode="&#x28a;" horiz-adv-x="555" 
d="M134 406h-90v34h156v-34q-66 -55 -66 -190q0 -75 42 -133.5t105 -58.5q64 0 102 54t38 129q0 142 -68 199v34h156v-34h-92q45 -44 69.5 -88.5t24.5 -111.5q0 -96 -56 -156t-173 -60q-114 0 -176 61t-62 167q0 46 14 83t30 57t46 48z" />
    <glyph glyph-name="vhook" unicode="&#x28b;" horiz-adv-x="496" 
d="M358 412q-18 0 -24 -9q10 -10 10 -24q0 -13 -10 -26t-27 -13q-23 0 -35 13t-12 32q0 27 27.5 46t54.5 19q51 0 82.5 -52t31.5 -148q0 -29 -7 -61t-25 -68t-45 -64t-71.5 -46.5t-99.5 -18.5q-20 0 -39.5 6t-41 20.5t-34.5 45t-13 73.5v242q-62 5 -63 5v23q19 0 74.5 21.5
t78.5 21.5v-341q0 -25 9.5 -43t23 -26t24.5 -11t20 -3q71 0 123 68t52 156q0 67 -20.5 114.5t-43.5 47.5z" />
    <glyph glyph-name="vturn" unicode="&#x28c;" horiz-adv-x="483" 
d="M294 0v21q29 0 42 4l-119 293l-114 -286q14 -11 56 -11v-21h-164v21q55 0 62 19l160 400h49l159 -399q9 -20 63 -20v-21h-194z" />
    <glyph glyph-name="uni028D" unicode="&#x28d;" horiz-adv-x="760" 
d="M571 0v21q29 0 42 4l-119 293l-90 -225l21 -52q9 -20 63 -20v-21h-194v21q29 0 42 4l-119 293l-114 -286q14 -11 56 -11v-21h-164v21q54 0 62 19l160 400h49l114 -286l114 286h49l159 -399q9 -20 63 -20v-21h-194z" />
    <glyph glyph-name="uni028E" unicode="&#x28e;" horiz-adv-x="483" 
d="M294 0v21q29 0 42 4l-119 293l-114 -286q14 -11 56 -11v-21h-164v21q55 0 62 18l201 503q19 47 48.5 68.5t56.5 21.5q25 0 39.5 -13t14.5 -31q0 -15 -10.5 -27t-28.5 -12q-11 0 -23 8.5t-18 8.5q-21 0 -28 -18l-43 -108l159 -399q9 -20 63 -20v-21h-194z" />
    <glyph glyph-name="uni028F" unicode="&#x28f;" horiz-adv-x="514" 
d="M213 441v-21q-43 0 -56 -10l131 -192l127 186q-10 15 -60 15v21h164v-21q-50 0 -64 -22v2l-148 -216v-142q9 -20 63 -20v-21h-218v21q54 0 63 20v122l-155 238v-5q-13 24 -66 24v21h219z" />
    <glyph glyph-name="uni0290" unicode="&#x290;" horiz-adv-x="425" 
d="M513 -167q0 -34 -28 -34q-58 0 -95 25.5t-37 77.5v98h-336l265 410h-192q-20 -9 -20 -63h-21v93h346l-265 -410h216q20 9 20 63h21v-59v-34v-113q0 -29 29 -29q9 0 32 4t33 4q32 0 32 -33z" />
    <glyph glyph-name="uni0291" unicode="&#x291;" horiz-adv-x="471" 
d="M278 30h24q36 0 62.5 18t26.5 52q0 21 -10.5 32t-39.5 11q-51 0 -63 -113zM242 0h-225l265 410h-192q-20 -9 -20 -63h-21v93h346l-265 -410h114q8 72 32 107t73 35q40 0 70.5 -18t30.5 -50q0 -103 -174 -104q-3 -39 -3 -90h-34q0 50 3 90z" />
    <glyph glyph-name="uni0292" unicode="&#x292;" horiz-adv-x="429" 
d="M281 410h-198q-20 -9 -20 -63h-21v93h346l-140 -260q67 -19 113 -65.5t46 -114.5q0 -76 -59.5 -128.5t-159.5 -52.5q-78 0 -128.5 43.5t-50.5 98.5q0 23 12 36.5t31 13.5q18 0 31.5 -9t13.5 -26q0 -21 -10.5 -31t-24.5 -10q7 -28 47 -57t69 -29q62 0 98 38.5t36 108.5
t-41.5 117.5t-122.5 50.5z" />
    <glyph glyph-name="uni0294" unicode="&#x294;" horiz-adv-x="429" 
d="M317 422q0 143 -126 143q-97 0 -119 -86q14 0 24.5 -10t10.5 -31q0 -17 -13.5 -26t-31.5 -9q-19 0 -31 13.5t-12 36.5q0 59 45.5 100.5t136.5 41.5q101 0 153.5 -48.5t52.5 -106.5q0 -28 -16 -52t-38.5 -42l-45.5 -35t-39 -36.5t-16 -40.5v-193q9 -20 63 -20v-21h-218v21
q54 0 63 20v179q0 33 24.5 62t54 46.5t54 42.5t24.5 51z" />
    <glyph glyph-name="uni0295" unicode="&#x295;" horiz-adv-x="429" 
d="M112 422q0 -26 24.5 -51t54 -42.5t54 -46.5t24.5 -62v-179q9 -20 63 -20v-21h-218v21q54 0 63 20v193q0 21 -16 40.5t-38.5 36.5l-45.5 35t-39 42t-16 52q0 58 52.5 106.5t153.5 48.5q91 0 136.5 -41.5t45.5 -100.5q0 -23 -12 -36.5t-31 -13.5q-18 0 -31.5 9t-13.5 26
q0 21 10.5 31t24.5 10q-22 86 -119 86q-126 0 -126 -143z" />
    <glyph glyph-name="uni0298" unicode="&#x298;" horiz-adv-x="641" 
d="M263 301q0 24 16.5 43.5t42.5 19.5q23 0 42 -18t19 -42t-17 -44t-43 -20q-23 0 -41.5 18.5t-18.5 42.5zM144 300q0 -66 18.5 -126.5t61 -105t101.5 -44.5t99.5 42t57 98.5t16.5 119.5q0 65 -19 126.5t-61.5 106t-100.5 44.5q-45 0 -79.5 -24t-54 -63.5t-29.5 -83.5
t-10 -90zM44 292q0 125 78 214t199 89t199 -89t78 -214t-78.5 -213.5t-198.5 -88.5q-122 0 -199.5 88t-77.5 214z" />
    <glyph glyph-name="uni0299" unicode="&#x299;" horiz-adv-x="481" 
d="M178 219v-185h68q112 0 112 100q0 34 -28 59.5t-94 25.5h-58zM178 406v-157h33q112 0 112 89q0 68 -122 68h-23zM38 0v25q43 0 50 14v362q-7 14 -50 14v25h173q99 0 150.5 -31t51.5 -71q0 -75 -85 -101q59 -12 89.5 -41.5t30.5 -60.5q0 -55 -49 -95t-143 -40h-218z" />
    <glyph glyph-name="uni029B" unicode="&#x29b;" horiz-adv-x="622" 
d="M516 228v-21q-54 0 -63 -20v-105q-29 -48 -75.5 -70t-122.5 -22q-37 0 -73 12.5t-69 38.5t-53.5 74.5t-20.5 113.5q0 101 65.5 161.5t187.5 60.5q78 0 114 -31q17 26 33.5 35.5t44.5 9.5q48 0 90 -18t42 -50q0 -14 -13 -25t-29 -11q-23 0 -46 44l-9.5 17.5t-8.5 8.5
t-16 4q-19 0 -32.5 -33t-13.5 -88h-22q-7 45 -39.5 74t-93.5 29q-75 0 -117 -49.5t-42 -134.5q0 -86 44 -145.5t111 -59.5q44 0 72 12v147q-9 20 -63 20v21h218z" />
    <glyph glyph-name="uni029C" unicode="&#x29c;" horiz-adv-x="574" 
d="M28 0v21q54 0 63 20v358q-9 20 -63 20v21h218v-21q-54 0 -63 -20v-146h208v146q-9 20 -63 20v21h218v-21q-54 0 -63 -20v-358q9 -20 63 -20v-21h-218v21q54 0 63 20v178h-208v-178q9 -20 63 -20v-21h-218z" />
    <glyph glyph-name="uni029D" unicode="&#x29d;" horiz-adv-x="343" 
d="M177 514q-22 0 -38.5 16.5t-16.5 42.5q0 23 14.5 40t37.5 17q22 0 39 -17t17 -43q0 -23 -15 -39.5t-38 -16.5zM135 16h-6q-115 0 -115 -103q0 -33 23 -55.5t47 -22.5q20 0 35.5 27t15.5 80v74zM225 0v-44q0 -81 -38.5 -118.5t-95.5 -37.5q-64 0 -99 28.5t-35 82.5
q0 68 46 103.5t122 35.5h10v329l-63 5v23q19 0 74.5 21.5t78.5 21.5v-411q61 -15 123 -61l-27 -29q-47 35 -96 51z" />
    <glyph glyph-name="uni029F" unicode="&#x29f;" horiz-adv-x="422" 
d="M28 0v21q54 0 63 20v358q-9 20 -63 20v21h218v-21q-54 0 -63 -20v-365h164q25 11 45 63h20l-24 -97h-360z" />
    <glyph glyph-name="uni02A1" unicode="&#x2a1;" horiz-adv-x="444" 
d="M324 422q0 143 -126 143q-97 0 -119 -86q14 0 24.5 -10t10.5 -31q0 -17 -13.5 -26t-31.5 -9q-19 0 -31 13.5t-12 36.5q0 59 45.5 100.5t136.5 41.5q101 0 153.5 -48.5t52.5 -106.5q0 -28 -16 -52t-39 -42l-45.5 -35t-38.5 -36.5t-16 -40.5v-14h100v-44h-100v-135
q9 -20 63 -20v-21h-218v21q54 0 63 20v135h-72v44h72q0 33 24.5 62t54 46.5t54 42.5t24.5 51z" />
    <glyph glyph-name="uni02A2" unicode="&#x2a2;" horiz-adv-x="407" 
d="M165 176h-89v44h89v14q0 21 -16 40.5t-39 36.5l-45.5 35t-38.5 42t-16 52q0 58 52.5 106.5t153.5 48.5q91 0 136.5 -41.5t45.5 -100.5q0 -23 -12 -36.5t-31 -13.5q-18 0 -31.5 9t-13.5 26q0 21 10.5 31t24.5 10q-22 86 -119 86q-126 0 -126 -143q0 -26 24.5 -51t54 -42.5
t54 -46.5t24.5 -62h83v-44h-83v-135q9 -20 63 -20v-21h-218v21q54 0 63 20v135z" />
    <glyph glyph-name="uni02A4" unicode="&#x2a4;" horiz-adv-x="890" 
d="M742 414h-286q-1 0 -3 -2v-351l63 -5v-23q-19 0 -74.5 -21.5t-78.5 -21.5v33q-48 -33 -120 -33q-33 0 -65.5 11.5t-65 36t-53 72.5t-20.5 112q0 112 62.5 172t163.5 60q57 0 98 -24v129l-63 5v23q19 0 74.5 21.5t78.5 21.5v-186h396l-140 -260q67 -19 113 -65.5
t46 -114.5q0 -76 -59.5 -128.5t-159.5 -52.5q-78 0 -128.5 43.5t-50.5 98.5q0 23 12 36.5t31 13.5q18 0 31.5 -9t13.5 -26q0 -21 -10.5 -31t-24.5 -10q7 -28 47 -57t69 -29q62 0 98 38.5t36 108.5t-41.5 117.5t-122.5 50.5zM363 399q-36 21 -92 21q-55 0 -96 -53t-41 -145
q0 -61 35.5 -129.5t83.5 -68.5q66 0 110 32v343z" />
    <glyph glyph-name="uni02A7" unicode="&#x2a7;" horiz-adv-x="513" 
d="M180 585v-145h86v-30h-86v-318q0 -31 11 -47.5t41 -16.5q18 0 36.5 17.5t25.5 48.5l24 -12q-21 -92 -120 -92q-114 0 -114 110v310h-70v30q58 0 94 43.5t36 101.5h36zM445 14q0 -82 -34 -119t-90 -37q-51 0 -80 14t-29 36q0 14 10 26t26 12q30 0 39 -34q5 -24 24 -24
t31.5 29t12.5 83v474q0 82 34 119t90 37q51 0 80 -14t29 -36q0 -14 -10 -26t-26 -12q-30 0 -39 34q-5 24 -24 24t-31.5 -29t-12.5 -83v-474z" />
    <glyph glyph-name="uni02B0" unicode="&#x2b0;" horiz-adv-x="387" 
d="M40 370v10q32 0 38 10v260q-30 2 -38 2v12q11 0 44.5 10.5t47.5 10.5v-113q31 23 71 23q57 0 81.5 -15.5t24.5 -53.5v-136q6 -10 38 -10v-10h-130v10q32 0 38 10v140q0 48 -55 48q-37 0 -68 -22v-166q6 -10 38 -10v-10h-130z" />
    <glyph glyph-name="uni02B1" unicode="&#x2b1;" horiz-adv-x="387" 
d="M40 370v10q32 0 38 10v217q0 78 74 78q29 0 54 -9t25 -25q0 -7 -7.5 -12.5t-17.5 -5.5q-14 0 -27 22q-9 15 -21 15q-26 0 -26 -56v-42q31 23 71 23q57 0 81.5 -15.5t24.5 -53.5v-136q6 -10 38 -10v-10h-130v10q32 0 38 10v140q0 48 -55 48q-37 0 -68 -22v-166
q6 -10 38 -10v-10h-130z" />
    <glyph glyph-name="uni02B2" unicode="&#x2b2;" horiz-adv-x="237" 
d="M165 628q-13 0 -23 8.5t-10 21.5q0 11 9 19.5t23 8.5q13 0 23 -8.5t10 -21.5q0 -11 -9 -19.5t-23 -8.5zM140 561q-6 0 -19.5 1.5t-18.5 1.5v11q11 0 44.5 10.5t47.5 10.5v-246q0 -40 -23 -59t-57 -19q-78 0 -78 43q0 9 8 14.5t18 5.5q23 0 23 -19q0 -8 -6 -12
q0 -18 29 -18q12 0 22 15t10 41v219z" />
    <glyph glyph-name="uni02B3" unicode="&#x2b3;" horiz-adv-x="290" 
d="M40 370v11q31 0 37 10v169q-30 2 -37 2v12q11 0 44 11t47 11v-22q30 22 60 22q26 0 44.5 -9t18.5 -19q0 -18 -24 -18q-12 0 -22.5 14t-23.5 14q-24 0 -53 -21v-166q6 -10 38 -10v-11h-129z" />
    <glyph glyph-name="uni02B4" unicode="&#x2b4;" horiz-adv-x="290" 
d="M250 590v-11q-31 0 -37 -10v-169q30 -2 37 -2v-12q-11 0 -44 -11t-47 -11v22q-30 -22 -60 -22q-26 0 -44.5 9t-18.5 19q0 18 24 18q12 0 22.5 -14t23.5 -14q24 0 53 21v166q-6 10 -38 10v11h129z" />
    <glyph glyph-name="uni02B5" unicode="&#x2b5;" horiz-adv-x="353" 
d="M251 590v-10q-32 0 -38 -10v-207q0 -27 8 -41.5t19 -14.5t20 15q13 22 28 22q10 0 17.5 -5.5t7.5 -12.5q0 -16 -25 -25t-54 -9q-75 0 -75 78v17q-30 -22 -59 -22q-27 0 -45.5 8.5t-18.5 18.5q0 18 24 18q12 0 22.5 -14t23.5 -14q22 0 53 22v166q-6 10 -38 10v10h130z" />
    <glyph glyph-name="uni02B6" unicode="&#x2b6;" horiz-adv-x="367" 
d="M40 590h131v-10q-32 0 -38 -10v-78h36h10l57 78q9 13 22.5 16.5t47.5 3.5h21v-8q-26 0 -32 -8v1l-64 -91q56 -18 56 -58q0 -21 -32 -38.5t-91 -17.5h-124v10q32 0 38 10v180q-6 10 -38 10v10zM133 387h28q42 0 57 9.5t15 29.5q0 28 -14 38.5t-53 10.5h-33v-88z" />
    <glyph glyph-name="uni02B7" unicode="&#x2b7;" horiz-adv-x="522" 
d="M146 590v-10q-19 0 -25 -2l72 -147l54 113l-13 26q-6 10 -38 10v10h117v-10q-20 0 -26 -2l72 -147l68 143q-7 6 -33 6v10h98v-10q-32 0 -37 -10l-96 -200h-30l-68 143l-68 -143h-30l-95 200q-6 10 -38 10v10h116z" />
    <glyph glyph-name="uni02B8" unicode="&#x2b8;" horiz-adv-x="376" 
d="M156 590v-10q-19 0 -25 -2l72 -147l68 143q-7 6 -34 6v10h99v-10q-32 0 -37 -10l-121 -251q-12 -23 -30 -34t-33 -11t-23.5 6.5t-8.5 15.5q0 8 6 14t17 6q6 0 14 -4.5t11 -4.5q13 0 16 9l26 54l-95 200q-6 10 -38 10v10h116z" />
    <glyph glyph-name="uni02B9" unicode="&#x2b9;" horiz-adv-x="251" 
d="M142 662q18 0 28.5 -9t10.5 -23q0 -5 -4 -23q-12 -42 -53.5 -148t-50.5 -106q-3 0 -3 14q0 34 15.5 129.5t24.5 128.5q11 37 32 37z" />
    <glyph glyph-name="uni02BA" unicode="&#x2ba;" horiz-adv-x="381" 
d="M142 662q18 0 28.5 -9t10.5 -23q0 -5 -4 -23q-12 -42 -53.5 -148t-50.5 -106q-3 0 -3 14q0 34 15.5 129.5t24.5 128.5q11 37 32 37zM272 662q18 0 28.5 -9t10.5 -23q0 -5 -4 -23q-12 -42 -53.5 -148t-50.5 -106q-3 0 -3 14q0 34 15.5 129.5t24.5 128.5q11 37 32 37z" />
    <glyph glyph-name="uni02BB" unicode="&#x2bb;" horiz-adv-x="218" 
d="M127 546q51 0 51 -44q0 -18 -10.5 -28.5t-19.5 -12.5t-16 -2q-38 0 -65 23.5t-27 63.5q0 84 124 123v-28q-25 -3 -51.5 -27.5t-26.5 -55.5q0 -18 2 -21.5t8 -3.5q3 0 11.5 6.5t19.5 6.5z" />
    <glyph glyph-name="afii57929" unicode="&#x2bc;" horiz-adv-x="218" 
d="M91 578q-51 0 -51 44q0 18 10.5 28.5t19.5 12.5t16 2q38 0 65 -23.5t27 -63.5q0 -84 -124 -123v28q25 3 51.5 27.5t26.5 55.5q0 18 -2 21.5t-8 3.5q-3 0 -11.5 -6.5t-19.5 -6.5z" />
    <glyph glyph-name="afii64937" unicode="&#x2bd;" horiz-adv-x="218" 
d="M127 583q-11 0 -19.5 6.5t-11.5 6.5q-6 0 -8 -3.5t-2 -21.5q0 -31 26.5 -55.5t51.5 -27.5v-28q-124 39 -124 123q0 40 27 63.5t65 23.5q7 0 16 -2t19.5 -12.5t10.5 -28.5q0 -44 -51 -44z" />
    <glyph glyph-name="uni02BE" unicode="&#x2be;" horiz-adv-x="154" 
d="M114 495q-32 0 -53 21.5t-21 52.5t21 52.5t53 21.5v-27q-20 0 -33.5 -14t-13.5 -33t13.5 -33t33.5 -14v-27z" />
    <glyph glyph-name="uni02BF" unicode="&#x2bf;" horiz-adv-x="154" 
d="M40 643q32 0 53 -21.5t21 -52.5t-21 -52.5t-53 -21.5v27q20 0 33.5 14t13.5 33t-13.5 33t-33.5 14v27z" />
    <glyph glyph-name="uni02C0" unicode="&#x2c0;" horiz-adv-x="312" 
d="M218 581q0 71 -75 71q-59 0 -72 -43q21 0 21 -20q0 -18 -27 -18q-25 0 -25 25q0 29 27 50t82 21q61 0 92 -24t31 -53q0 -17 -14.5 -32t-32 -24t-32 -21.5t-14.5 -25.5v-97q6 -10 38 -10v-10h-131v10q32 0 38 10v90q0 16 14.5 30.5t32.5 23.5t32.5 21.5t14.5 25.5z" />
    <glyph glyph-name="uni02C1" unicode="&#x2c1;" horiz-adv-x="313" 
d="M94 581q0 -13 14.5 -25.5t32.5 -21.5t32.5 -23.5t14.5 -30.5v-90q6 -10 38 -10v-10h-131v10q32 0 38 10v97q0 13 -14.5 25.5t-32 21.5t-32 24t-14.5 32q0 29 31 53.5t92 24.5q55 0 82.5 -21t27.5 -51q0 -24 -26 -24q-27 0 -27 17q0 21 21 21q-13 42 -72 42q-75 0 -75 -71
z" />
    <glyph glyph-name="uni02C2" unicode="&#x2c2;" horiz-adv-x="329" 
d="M289 440l-249 117v18l249 117v-22l-222 -104l222 -102v-24z" />
    <glyph glyph-name="uni02C3" unicode="&#x2c3;" horiz-adv-x="329" 
d="M40 692l249 -117v-18l-249 -117v22l222 104l-222 102v24z" />
    <glyph glyph-name="uni02C4" unicode="&#x2c4;" horiz-adv-x="328" 
d="M38 440l118 248h18l116 -248h-22l-104 222l-102 -222h-24z" />
    <glyph glyph-name="uni02C5" unicode="&#x2c5;" horiz-adv-x="328" 
d="M290 688l-118 -248h-18l-116 248h22l104 -222l102 222h24z" />
    <glyph glyph-name="circumflex" unicode="&#x2c6;" horiz-adv-x="358" 
d="M204 662l94 -162h-26l-93 87l-93 -87h-26l94 162h50z" />
    <glyph glyph-name="caron" unicode="&#x2c7;" horiz-adv-x="358" 
d="M154 500l-94 162h26l93 -87l93 87h26l-94 -162h-50z" />
    <glyph glyph-name="uni02C8" unicode="&#x2c8;" horiz-adv-x="116" 
d="M40 664h36v-164h-36v164z" />
    <glyph glyph-name="uni02C9" unicode="&#x2c9;" horiz-adv-x="344" 
d="M40 558h264v-44h-264v44z" />
    <glyph glyph-name="uni02CA" unicode="&#x2ca;" horiz-adv-x="300" 
d="M134 662h106l-154 -162h-26z" />
    <glyph glyph-name="uni02CB" unicode="&#x2cb;" horiz-adv-x="300" 
d="M166 662l74 -162h-26l-154 162h106z" />
    <glyph glyph-name="uni02CC" unicode="&#x2cc;" horiz-adv-x="116" 
d="M40 -51h36v-164h-36v164z" />
    <glyph glyph-name="uni02CD" unicode="&#x2cd;" horiz-adv-x="344" 
d="M40 -92h264v-44h-264v44z" />
    <glyph glyph-name="uni02CE" unicode="&#x2ce;" horiz-adv-x="260" 
d="M146 -50l74 -162h-26l-154 162h106z" />
    <glyph glyph-name="uni02CF" unicode="&#x2cf;" horiz-adv-x="260" 
d="M114 -50h106l-154 -162h-26z" />
    <glyph glyph-name="uni02D0" unicode="&#x2d0;" horiz-adv-x="240" 
d="M120 301l-80 139h160zM120 139l80 -139h-160z" />
    <glyph glyph-name="uni02D1" unicode="&#x2d1;" horiz-adv-x="240" 
d="M120 301l-80 139h160z" />
    <glyph glyph-name="uni02D2" unicode="&#x2d2;" horiz-adv-x="154" 
d="M40 440q32 0 53 -21t21 -53t-21 -53t-53 -21v27q20 0 33.5 13.5t13.5 33.5t-13.5 33.5t-33.5 13.5v27z" />
    <glyph glyph-name="uni02D3" unicode="&#x2d3;" horiz-adv-x="154" 
d="M114 292q-32 0 -53 21t-21 53t21 53t53 21v-27q-20 0 -33.5 -13.5t-13.5 -33.5t13.5 -33.5t33.5 -13.5v-27z" />
    <glyph glyph-name="uni02D4" unicode="&#x2d4;" horiz-adv-x="224" 
d="M97 115h30v-85h57v-30h-144v30h57v85z" />
    <glyph glyph-name="uni02D5" unicode="&#x2d5;" horiz-adv-x="224" 
d="M127 0h-30v85h-57v30h144v-30h-57v-85z" />
    <glyph glyph-name="uni02D6" unicode="&#x2d6;" horiz-adv-x="214" 
d="M122 0h-30v47h-52v30h52v47h30v-47h52v-30h-52v-47z" />
    <glyph glyph-name="uni02D7" unicode="&#x2d7;" horiz-adv-x="214" 
d="M40 30h134v-30h-134v30z" />
    <glyph glyph-name="breve" unicode="&#x2d8;" horiz-adv-x="372" 
d="M186 510q-61 0 -93.5 40.5t-32.5 83.5h28q0 -20 25.5 -36t72.5 -16t72.5 15.5t25.5 36.5h28q0 -44 -32 -84t-94 -40z" />
    <glyph glyph-name="dotaccent" unicode="&#x2d9;" horiz-adv-x="218" 
d="M58 552q0 21 15 36t36 15t36 -15t15 -36t-15 -36t-36 -15t-36 15t-15 36z" />
    <glyph glyph-name="ring" unicode="&#x2da;" horiz-adv-x="228" 
d="M67 569q0 -19 13.5 -33t33.5 -14t33.5 14t13.5 33t-13.5 33t-33.5 14t-33.5 -14t-13.5 -33zM24 569q0 38 26 64t64 26t64 -26t26 -64t-26 -64t-64 -26t-64 26t-26 64z" />
    <glyph glyph-name="ogonek" unicode="&#x2db;" horiz-adv-x="259" 
d="M102 11h23q-36 -39 -36 -70q0 -49 27 -78t61 -29q6 0 14 4t13 8l4 4l11 -18q-2 -4 -7 -9t-25.5 -14t-46.5 -9q-49 0 -74.5 25.5t-25.5 71.5q0 33 15.5 61.5t30.5 40.5z" />
    <glyph glyph-name="tilde" unicode="&#x2dc;" horiz-adv-x="421" 
d="M284 500q-22 0 -81.5 29.5t-73.5 29.5q-28 0 -39 -14.5t-11 -44.5h-19q0 112 76 112q22 0 82 -29.5t74 -29.5q28 0 39 14.5t11 44.5h19q0 -112 -77 -112z" />
    <glyph glyph-name="hungarumlaut" unicode="&#x2dd;" horiz-adv-x="460" 
d="M294 662h106l-154 -162h-26zM134 662h106l-154 -162h-26z" />
    <glyph glyph-name="uni02DE" unicode="&#x2de;" horiz-adv-x="286" 
d="M122 390l-104 -61v54l128 75q0 -39 13.5 -66.5t29.5 -27.5q22 0 36 49l33 -10q-9 -33 -26.5 -53t-42.5 -20q-45 0 -67 60z" />
    <glyph glyph-name="uni02DF" unicode="&#x2df;" horiz-adv-x="387" 
d="M194 607l-125 -105l-29 34l119 100l-119 100l29 34l125 -105l125 105l29 -34l-119 -100l119 -100l-29 -34z" />
    <glyph glyph-name="uni02E0" unicode="&#x2e0;" horiz-adv-x="391" 
d="M169 590v-10q-25 0 -33 -6l66 -116q0 -1 2.5 -4.5t3.5 -5.5l84 126q-8 6 -34 6v10h93v-10q-32 0 -38 -10l-95 -142q32 -71 32 -109q0 -21 -14 -35t-38 -14q-53 0 -53 50q0 29 30 78l-27 54l-70 118q-7 10 -38 10v10h129zM186 374q-17 -34 -17 -46q0 -34 15 -34
q7 0 11.5 10t4.5 18q0 17 -14 52z" />
    <glyph glyph-name="uni02E1" unicode="&#x2e1;" horiz-adv-x="210" 
d="M40 370v10q32 0 38 10v260q-30 2 -38 2v12q11 0 44.5 10.5t47.5 10.5v-295q6 -10 38 -10v-10h-130z" />
    <glyph glyph-name="uni02E2" unicode="&#x2e2;" horiz-adv-x="277" 
d="M141 385q50 0 50 31q0 17 -23.5 30t-51 20t-51 24.5t-23.5 43.5q0 28 26 44.5t61 16.5q21 0 42 -7.5t24 -7.5q8 0 8 10h13l6 -64h-13q-4 21 -27.5 36.5t-50.5 15.5q-21 0 -36 -6.5t-15 -19.5q0 -18 24.5 -31.5t54 -21.5t54 -25.5t24.5 -41.5q0 -31 -28.5 -49t-72.5 -18
q-22 0 -44 7.5t-24 7.5q-8 0 -8 -10h-14l-6 64h13q4 -20 32.5 -34.5t55.5 -14.5z" />
    <glyph glyph-name="uni02E3" unicode="&#x2e3;" horiz-adv-x="357" 
d="M299 590v-10q-31 0 -41 -10l-58 -73l79 -107q6 -10 38 -10v-10h-117v10q13 0 23 2l-56 75l-59 -73q10 -4 30 -4v-10h-98v10q32 0 41 11l70 87l-70 94q-5 8 -35 8v10h116v-10q-11 0 -23 -2l44 -60l47 58q-10 4 -30 4v10h99z" />
    <glyph glyph-name="uni02E4" unicode="&#x2e4;" horiz-adv-x="288" 
d="M94 508q0 -20 11.5 -33t26 -19.5t26.5 -23.5t12 -42q6 -10 38 -10v-10h-127v10q32 0 38 10v24q0 13 -12.5 24.5t-27 19.5t-27 24t-12.5 36q0 29 27.5 53t80.5 24q46 0 73 -21.5t27 -49.5q0 -25 -26 -25q-27 0 -27 17q0 21 21 21q-13 43 -62 43q-27 0 -43.5 -20t-16.5 -52
z" />
    <glyph glyph-name="uni02E5" unicode="&#x2e5;" horiz-adv-x="400" 
d="M290 600h-250v40h290v-640h-40v600z" />
    <glyph glyph-name="uni02E6" unicode="&#x2e6;" horiz-adv-x="400" 
d="M290 640h40v-640h-40v450h-250v40h250v150z" />
    <glyph glyph-name="uni02E7" unicode="&#x2e7;" horiz-adv-x="400" 
d="M290 640h40v-640h-40v300h-250v40h250v300z" />
    <glyph glyph-name="uni02E8" unicode="&#x2e8;" horiz-adv-x="400" 
d="M290 640h40v-640h-40v150h-250v40h250v450z" />
    <glyph glyph-name="uni02E9" unicode="&#x2e9;" horiz-adv-x="400" 
d="M290 640h40v-640h-290v40h250v600z" />
    <glyph glyph-name="uni02EC" unicode="&#x2ec;" horiz-adv-x="262" 
d="M131 -192l-93 161l30 17l63 -110l64 110l29 -17z" />
    <glyph glyph-name="uni02ED" unicode="&#x2ed;" horiz-adv-x="444" 
d="M40 558h364v-44h-364v44zM40 648h364v-44h-364v44z" />
    <glyph glyph-name="uni02EF" unicode="&#x2ef;" horiz-adv-x="292" 
d="M256 0l-98 -206h-26l-96 206h38l72 -153l70 153h40z" />
    <glyph glyph-name="uni02F0" unicode="&#x2f0;" horiz-adv-x="292" 
d="M36 -206l98 206h26l96 -206h-38l-72 153l-70 -153h-40z" />
    <glyph glyph-name="uni02F1" unicode="&#x2f1;" horiz-adv-x="286" 
d="M246 -220l-206 98v26l206 96v-38l-153 -72l153 -70v-40z" />
    <glyph glyph-name="uni02F2" unicode="&#x2f2;" horiz-adv-x="286" 
d="M40 0l206 -98v-26l-206 -96v38l153 72l-153 70v40z" />
    <glyph glyph-name="gravecomb" unicode="&#x300;" 
d="M-302 662l74 -162h-26l-154 162h106z" />
    <glyph glyph-name="acutecomb" unicode="&#x301;" 
d="M-193 662h106l-154 -162h-26z" />
    <glyph glyph-name="circumflexcomb" unicode="&#x302;" 
d="M-229 662l94 -162h-26l-93 87l-93 -87h-26l94 162h50z" />
    <glyph glyph-name="tildecomb" unicode="&#x303;" 
d="M-179 500q-22 0 -81.5 29.5t-73.5 29.5q-28 0 -39 -14.5t-11 -44.5h-19q0 112 76 112q22 0 82 -29.5t74 -29.5q28 0 39 14.5t11 44.5h19q0 -112 -77 -112z" />
    <glyph glyph-name="macroncomb" unicode="&#x304;" 
d="M-392 558h264v-44h-264v44z" />
    <glyph glyph-name="overlinecomb" unicode="&#x305;" 
d="M-444 558h364v-44h-364v44z" />
    <glyph glyph-name="brevecomb" unicode="&#x306;" 
d="M-254 510q-61 0 -93.5 40.5t-32.5 83.5h28q0 -20 25.5 -36t72.5 -16t72.5 15.5t25.5 36.5h28q0 -44 -32 -84t-94 -40z" />
    <glyph glyph-name="dotaccentcomb" unicode="&#x307;" 
d="M-305 552q0 21 15 36t36 15t36 -15t15 -36t-15 -36t-36 -15t-36 15t-15 36z" />
    <glyph glyph-name="dieresiscomb" unicode="&#x308;" 
d="M-211 549q0 20 14.5 34.5t34.5 14.5t34.5 -14.5t14.5 -34.5t-14.5 -34.5t-34.5 -14.5t-34.5 14.5t-14.5 34.5zM-395 549q0 20 14.5 34.5t34.5 14.5t34.5 -14.5t14.5 -34.5t-14.5 -34.5t-34.5 -14.5t-34.5 14.5t-14.5 34.5z" />
    <glyph glyph-name="hookabovecomb" unicode="&#x309;" 
d="M-154 612q0 -24 -22.5 -44.5t-45 -37t-22.5 -30.5h-20q0 28 28 57.5t28 44.5q0 30 -7 42t-29 12q-13 0 -19 -9t-7 -19t-7.5 -19t-19.5 -9q-27 0 -27 27q0 18 22.5 30.5t57.5 12.5q90 0 90 -58z" />
    <glyph glyph-name="ringcomb" unicode="&#x30a;" 
d="M-301 569q0 -19 13.5 -33t33.5 -14t33.5 14t13.5 33t-13.5 33t-33.5 14t-33.5 -14t-13.5 -33zM-344 569q0 38 26 64t64 26t64 -26t26 -64t-26 -64t-64 -26t-64 26t-26 64z" />
    <glyph glyph-name="doubleacutecomb" unicode="&#x30b;" 
d="M-279 662h106l-154 -162h-26zM-119 662h106l-154 -162h-26z" />
    <glyph glyph-name="caroncomb" unicode="&#x30c;" 
d="M-278 500l-94 162h26l93 -87l93 87h26l-94 -162h-50z" />
    <glyph glyph-name="vertcomb" unicode="&#x30d;" 
d="M-272 664h36v-164h-36v164z" />
    <glyph glyph-name="doublevertcomb" unicode="&#x30e;" 
d="M-313 664h36v-164h-36v164zM-233 664h36v-164h-36v164z" />
    <glyph glyph-name="doublegravecomb" unicode="&#x30f;" 
d="M-232 662l74 -162h-26l-154 162h106zM-392 662l74 -162h-26l-154 162h106z" />
    <glyph glyph-name="candrabindu" unicode="&#x310;" 
d="M-302 658q0 20 14.5 34.5t34.5 14.5t34.5 -14.5t14.5 -34.5t-14.5 -34.5t-34.5 -14.5t-34.5 14.5t-14.5 34.5zM-254 501q-61 0 -93.5 40.5t-32.5 83.5h28q0 -20 25.5 -36t72.5 -16t72.5 15.5t25.5 36.5h28q0 -44 -32 -84t-94 -40z" />
    <glyph glyph-name="invertedbrevecomb" unicode="&#x311;" 
d="M-256 632q61 0 93.5 -40.5t32.5 -83.5h-28q0 20 -25.5 36t-72.5 16t-72.5 -15.5t-25.5 -36.5h-28q0 44 32 84t94 40z" />
    <glyph glyph-name="turnedcommaabovecomb" unicode="&#x312;" 
d="M-259 588q51 0 51 -44q0 -18 -10.5 -28.5t-19.5 -12.5t-16 -2q-38 0 -65 23.5t-27 63.5q0 84 124 123v-28q-25 -3 -51.5 -27.5t-26.5 -55.5q0 -18 2 -21.5t8 -3.5q3 0 11.5 6.5t19.5 6.5z" />
    <glyph glyph-name="commaabovecomb" unicode="&#x313;" 
d="M-250 657q-51 0 -51 44q0 18 10.5 28.5t19.5 12.5t16 2q38 0 65 -23.5t27 -63.5q0 -84 -124 -123v28q25 3 51.5 27.5t26.5 55.5q0 18 -1.5 21.5t-8.5 3.5q-3 0 -11.5 -6.5t-19.5 -6.5z" />
    <glyph glyph-name="reversedcommaabovecomb" unicode="&#x314;" 
d="M-262 657q-11 0 -19.5 6.5t-11.5 6.5q-7 0 -8.5 -3.5t-1.5 -21.5q0 -31 26.5 -55.5t51.5 -27.5v-28q-124 39 -124 123q0 40 27 63.5t65 23.5q7 0 16 -2t19.5 -12.5t10.5 -28.5q0 -44 -51 -44z" />
    <glyph glyph-name="uni0315" unicode="&#x315;" 
d="M-87 657q-51 0 -51 44q0 18 10.5 28.5t19.5 12.5t16 2q38 0 65 -23.5t27 -63.5q0 -84 -124 -123v28q25 3 51.5 27.5t26.5 55.5q0 18 -1.5 21.5t-8.5 3.5q-3 0 -11.5 -6.5t-19.5 -6.5z" />
    <glyph glyph-name="gravebelowcomb" unicode="&#x316;" 
d="M-258 -50l74 -162h-26l-154 162h106z" />
    <glyph glyph-name="acutebelowcomb" unicode="&#x317;" 
d="M-262 -50h106l-154 -162h-26z" />
    <glyph glyph-name="uni0318" unicode="&#x318;" 
d="M-350 -118v30h81v42h30v-114h-30v42h-81z" />
    <glyph glyph-name="uni0319" unicode="&#x319;" 
d="M-159 -88v-30h-81v-42h-30v114h30v-42h81z" />
    <glyph glyph-name="uni031A" unicode="&#x31a;" 
d="M-157 527l-217 58v40l217 58v-38l-148 -40l148 -39v-39z" />
    <glyph glyph-name="uni031B" unicode="&#x31b;" 
d="M-104 513q43 0 67.5 19t24.5 51q0 7 -10 7q-2 0 -7 -1t-9 -1q-46 0 -46 44q0 19 13.5 32t27.5 13q36 0 57.5 -23.5t21.5 -61.5q0 -53 -43 -76.5t-97 -23.5v21z" />
    <glyph glyph-name="uni031C" unicode="&#x31c;" 
d="M-234 -65q-23 0 -39.5 -16.5t-16.5 -39.5t16.5 -39.5t39.5 -16.5v-33q-37 0 -62.5 25.5t-25.5 63.5t25.5 63.5t62.5 25.5v-33z" />
    <glyph glyph-name="uptackbelowcmb" unicode="&#x31d;" 
d="M-269 -50h30v-85h57v-30h-144v30h57v85z" />
    <glyph glyph-name="uni031E" unicode="&#x31e;" 
d="M-239 -165h-30v85h-57v30h144v-30h-57v-85z" />
    <glyph glyph-name="uni031F" unicode="&#x31f;" 
d="M-239 -151h-30v47h-52v30h52v47h30v-47h52v-30h-52v-47z" />
    <glyph glyph-name="uni0320" unicode="&#x320;" 
d="M-321 -74h134v-30h-134v30z" />
    <glyph glyph-name="uni0321" unicode="&#x321;" 
d="M-238 -167q0 33 32 33q10 0 33 -4t32 -4q29 0 29 29v147h34v-132q0 -52 -37 -77.5t-95 -25.5q-28 0 -28 34z" />
    <glyph glyph-name="uni0322" unicode="&#x322;" 
d="M48 -167q0 -34 -28 -34q-58 0 -95 25.5t-37 77.5v132h34v-147q0 -29 29 -29q9 0 32 4t33 4q32 0 32 -33z" />
    <glyph glyph-name="dotbelowcomb" unicode="&#x323;" 
d="M-305 -102q0 21 15 36t36 15t36 -15t15 -36t-15 -36t-36 -15t-36 15t-15 36z" />
    <glyph glyph-name="dieresisbelowcomb" unicode="&#x324;" 
d="M-211 -99q0 20 14.5 34.5t34.5 14.5t34.5 -14.5t14.5 -34.5t-14.5 -34.5t-34.5 -14.5t-34.5 14.5t-14.5 34.5zM-395 -99q0 20 14.5 34.5t34.5 14.5t34.5 -14.5t14.5 -34.5t-14.5 -34.5t-34.5 -14.5t-34.5 14.5t-14.5 34.5z" />
    <glyph glyph-name="ringbelowcomb" unicode="&#x325;" 
d="M-301 -100q0 -19 13.5 -33t33.5 -14t33.5 14t13.5 33t-13.5 33t-33.5 14t-33.5 -14t-13.5 -33zM-344 -100q0 38 26 64t64 26t64 -26t26 -64t-26 -64t-64 -26t-64 26t-26 64z" />
    <glyph glyph-name="commabelowcomb" unicode="&#x326;" 
d="M-250 -125q-51 0 -51 44q0 18 10.5 28.5t19.5 12.5t16 2q38 0 65 -23.5t27 -63.5q0 -84 -124 -123v28q25 3 51.5 27.5t26.5 55.5q0 18 -1.5 21.5t-8.5 3.5q-3 0 -11.5 -6.5t-19.5 -6.5z" />
    <glyph glyph-name="cedillacomb" unicode="&#x327;" 
d="M-270 12h38l-18 -67q32 0 66 -16.5t34 -50.5q0 -77 -110 -77q-33 0 -74 7v17q18 -2 25 -2q38 0 55 14.5t17 32.5q0 44 -61 44z" />
    <glyph glyph-name="ogonekcomb" unicode="&#x328;" 
d="M-256 11h23q-36 -39 -36 -70q0 -49 27 -78t61 -29q6 0 14 4t13 8l4 4l11 -18q-2 -4 -7 -9t-25.5 -14t-46.5 -9q-49 0 -74.5 25.5t-25.5 71.5q0 33 15.5 61.5t30.5 40.5z" />
    <glyph glyph-name="vertbelowcomb" unicode="&#x329;" 
d="M-272 -51h36v-164h-36v164z" />
    <glyph glyph-name="uni032A" unicode="&#x32a;" 
d="M-356 -161h-36v110h276v-110h-36v74h-204v-74z" />
    <glyph glyph-name="uni032B" unicode="&#x32b;" 
d="M-322 -161q-46 0 -68 36.5t-22 81.5h36q0 -33 14 -57.5t40 -24.5t38 24t12 58h36q0 -33 14 -57.5t40 -24.5t38 24t12 58h36q0 -46 -20 -82t-66 -36q-47 0 -71 41q-22 -41 -69 -41z" />
    <glyph glyph-name="uni032C" unicode="&#x32c;" 
d="M-278 -200l-94 162h26l93 -87l93 87h26l-94 -162h-50z" />
    <glyph glyph-name="uni032D" unicode="&#x32d;" 
d="M-229 -38l94 -162h-26l-93 87l-93 -87h-26l94 162h50z" />
    <glyph glyph-name="uni032E" unicode="&#x32e;" 
d="M-254 -192q-61 0 -93.5 40.5t-32.5 83.5h28q0 -20 25.5 -36t72.5 -16t72.5 15.5t25.5 36.5h28q0 -44 -32 -84t-94 -40z" />
    <glyph glyph-name="uni032F" unicode="&#x32f;" 
d="M-256 -68q61 0 93.5 -40.5t32.5 -83.5h-28q0 20 -25.5 36t-72.5 16t-72.5 -15.5t-25.5 -36.5h-28q0 44 32 84t94 40z" />
    <glyph glyph-name="tildebelowcomb" unicode="&#x330;" 
d="M-179 -180q-22 0 -81.5 29.5t-73.5 29.5q-28 0 -39 -14.5t-11 -44.5h-19q0 112 76 112q22 0 82 -29.5t74 -29.5q28 0 39 14.5t11 44.5h19q0 -112 -77 -112z" />
    <glyph glyph-name="macronbelowcomb" unicode="&#x331;" 
d="M-392 -92h264v-44h-264v44z" />
    <glyph glyph-name="lowlinecomb" unicode="&#x332;" 
d="M-444 -92h364v-44h-364v44z" />
    <glyph glyph-name="doublelowlinecomb" unicode="&#x333;" 
d="M-444 -42h364v-44h-364v44zM-444 -132h364v-44h-364v44z" />
    <glyph glyph-name="tildeoverlaycomb" unicode="&#x334;" 
d="M-145 155q-29 0 -122.5 34.5t-111.5 34.5q-38 0 -52 -17t-14 -52h-26q0 132 102 132q29 0 123 -34.5t112 -34.5q38 0 52 17t14 52h26q0 -132 -103 -132z" />
    <glyph glyph-name="shortstrokecomb" unicode="&#x335;" 
d="M-393 237h264v-34h-264v34z" />
    <glyph glyph-name="longstrokecomb" unicode="&#x336;" 
d="M-515 237h508v-34h-508v34z" />
    <glyph glyph-name="shortsoliduscomb" unicode="&#x337;" 
d="M-368 148l202 170l22 -26l-202 -170z" />
    <glyph glyph-name="longsoliduscomb" unicode="&#x338;" 
d="M-474 88l416 292l20 -28l-416 -292z" />
    <glyph glyph-name="uni0339" unicode="&#x339;" 
d="M-322 -177q23 0 39.5 16.5t16.5 39.5t-16.5 39.5t-39.5 16.5v33q37 0 62.5 -25.5t25.5 -63.5t-25.5 -63.5t-62.5 -25.5v33z" />
    <glyph glyph-name="uni033A" unicode="&#x33a;" 
d="M-152 -51h36v-110h-276v110h36v-74h204v74z" />
    <glyph glyph-name="uni033B" unicode="&#x33b;" 
d="M-294 -164h80v77h-80v-77zM-178 -200h-152v149h152v-149z" />
    <glyph glyph-name="uni0346" unicode="&#x346;" 
d="M-356 522h-36v110h276v-110h-36v74h-204v-74z" />
    <glyph glyph-name="uni0347" unicode="&#x347;" 
d="M-321 -109h134v-30h-134v30zM-321 -49h134v-30h-134v30z" />
    <glyph glyph-name="uni0348" unicode="&#x348;" 
d="M-313 -46h36v-164h-36v164zM-233 -46h36v-164h-36v164z" />
    <glyph glyph-name="uni0349" unicode="&#x349;" 
d="M-217 -104h-104v30h134v-134h-30v104z" />
    <glyph glyph-name="uni034A" unicode="&#x34a;" 
d="M-217 589q34 -16 46 -16q28 0 39 14.5t11 44.5h19q0 -112 -77 -112q-20 0 -84 31l-65 -55l-21 24l55 46q-26 13 -40 13q-28 0 -39 -14.5t-11 -44.5h-19q0 112 76 112q21 0 79 -28l60 51l21 -25z" />
    <glyph glyph-name="lefthalfringcomb" unicode="&#x351;" 
d="M-234 659q-23 0 -39.5 -16.5t-16.5 -39.5t16.5 -39.5t39.5 -16.5v-33q-37 0 -62.5 25.5t-25.5 63.5t25.5 63.5t62.5 25.5v-33z" />
    <glyph glyph-name="righthalfringcomb" unicode="&#x357;" 
d="M-322 547q23 0 39.5 16.5t16.5 39.5t-16.5 39.5t-39.5 16.5v33q37 0 62.5 -25.5t25.5 -63.5t-25.5 -63.5t-62.5 -25.5v33z" />
    <glyph glyph-name="uni035C" unicode="&#x35c;" 
d="M0 -192q-185 0 -354 136q-11 9 -11 16q0 8 11 8q3 0 9 -2q2 -1 20 -9t23 -10l23.5 -9.5t28 -10t30 -9t35 -9t38 -7t44.5 -6t48 -3t55 -1.5q35 0 68 2.5t57.5 5t51.5 9l42.5 10t39 12t31.5 12l30 13t25 10.5q6 2 9 2q11 0 11 -8q0 -7 -11 -16q-169 -136 -354 -136z" />
    <glyph glyph-name="uni035D" unicode="&#x35d;" 
d="M0 522q-185 0 -354 136q-11 9 -11 16q0 8 11 8q3 0 9 -2q2 -1 20 -9t23 -10l23.5 -9.5t28 -10t30 -9t35 -9t38 -7t44.5 -6t48 -3t55 -1.5q35 0 68 2.5t57.5 5t51.5 9l42.5 10t39 12t31.5 12l30 13t25 10.5q6 2 9 2q11 0 11 -8q0 -7 -11 -16q-169 -136 -354 -136z" />
    <glyph glyph-name="uni035E" unicode="&#x35e;" 
d="M-364 558h728v-44h-728v44z" />
    <glyph glyph-name="uni035F" unicode="&#x35f;" 
d="M-364 -92h728v-44h-728v44z" />
    <glyph glyph-name="uni0360" unicode="&#x360;" 
d="M258 500q-83 0 -143.5 10t-97 25l-71.5 29.5t-88 24.5t-124 10q-28 0 -54 -34.5t-26 -64.5h-19q0 74 35 113t71 39q100 0 171.5 -15.5t106 -34t98 -34t149.5 -15.5q28 0 54 34.5t26 64.5h19q0 -75 -35 -113.5t-72 -38.5z" />
    <glyph glyph-name="uni0361" unicode="&#x361;" 
d="M0 682q185 0 354 -136q11 -9 11 -16q0 -8 -11 -8q-3 0 -9 2q-2 1 -20 9t-23 10l-23.5 9.5t-28 10t-30 9t-35 9t-38 7t-44.5 6t-48 3t-55 1.5q-35 0 -68 -2.5t-57.5 -5t-51.5 -9l-42.5 -10t-39 -12t-31.5 -12l-30 -13t-25 -10.5q-6 -2 -9 -2q-11 0 -11 8q0 7 11 16
q169 136 354 136z" />
    <glyph glyph-name="uni0362" unicode="&#x362;" 
d="M185 -92l-34 90l214 -111l-214 -111l33 88h-548v44h549z" />
    <glyph glyph-name="Gamma" unicode="&#x393;" horiz-adv-x="462" 
d="M197 551v-510q9 -20 63 -20v-21h-218v21q54 0 63 20v503q-9 20 -63 20v21h403v-97h-21q0 54 -20 63h-207z" />
    <glyph glyph-name="beta" unicode="&#x3b2;" horiz-adv-x="506" 
d="M68 -192v666q0 79 52 117.5t114 38.5q187 0 187 -130q0 -52 -29.5 -89.5t-82.5 -54.5q78 -15 119 -62t41 -104q0 -92 -42.5 -146t-119.5 -54q-60 0 -90 29.5t-30 52.5q0 30 7.5 42t28.5 12q12 0 17.5 -16.5t7 -36.5t14.5 -36.5t39 -16.5q33 0 59 42.5t26 107.5
t-45.5 119.5t-117.5 54.5h-2q-16 0 -16 10q0 11 16 14q39 8 79.5 45.5t40.5 85.5q0 34 -27 67.5t-66 33.5q-30 0 -60 -30t-30 -82v-680h-90z" />
    <glyph glyph-name="theta" unicode="&#x3b8;" horiz-adv-x="537" 
d="M271 -10q-110 0 -166.5 90.5t-56.5 237.5q0 63 11 116t34.5 98.5t67 71.5t103.5 26q115 0 168 -88.5t53 -235.5q0 -91 -18 -158t-67.5 -112.5t-128.5 -45.5zM389 304h-245q7 -284 140 -284q105 0 105 263v21zM388 338q-5 140 -38 200.5t-103 60.5q-103 0 -103 -261h244z
" />
    <glyph glyph-name="chi" unicode="&#x3c7;" horiz-adv-x="388" 
d="M357 -192q-40 0 -58 40l-100 222l-127 -262h-45l150 311l-132 293q-13 7 -48 7v21h94q40 0 58 -40l79 -176l105 216h45l-128 -265l152 -339q14 -7 50 -7v-21h-95z" />
    <glyph glyph-name="macronacutecomb" unicode="&#x1dc4;" 
d="M-121 676h106l-154 -162h-223v44h217z" />
    <glyph glyph-name="gravemacroncomb" unicode="&#x1dc5;" 
d="M-350 514l-154 162h106l54 -118h216v-44h-222z" />
    <glyph glyph-name="macrongravecomb" unicode="&#x1dc6;" 
d="M-192 570h-200v44h264l74 -162h-26z" />
    <glyph glyph-name="acutemacroncomb" unicode="&#x1dc7;" 
d="M-328 570l-112 -118h-26l74 162h264v-44h-200z" />
    <glyph glyph-name="uni1E04" unicode="&#x1e04;" horiz-adv-x="557" 
d="M194 -102q0 21 15 36t36 15t36 -15t15 -36t-15 -36t-36 -15t-36 15t-15 36zM196 290v-256h85q140 0 140 136q0 47 -35 83.5t-117 36.5h-73zM196 551v-232h41q140 0 140 127q0 105 -152 105h-29zM41 0v21q54 0 63 20v503q-9 20 -63 20v21h184q125 0 188.5 -41t63.5 -97
q0 -102 -106 -138q75 -17 112.5 -55.5t37.5 -82.5q0 -76 -60.5 -123.5t-179.5 -47.5h-240z" />
    <glyph glyph-name="uni1E05" unicode="&#x1e05;" horiz-adv-x="538" 
d="M197 -102q0 21 15 36t36 15t36 -15t15 -36t-15 -36t-36 -15t-36 15t-15 36zM68 559q-62 5 -63 5v23q19 0 74.5 21.5t78.5 21.5v-223q49 47 137 47q33 0 65.5 -11.5t65 -36t53 -72.5t20.5 -112q0 -112 -62.5 -172t-163.5 -60q-72 0 -119 38q-55 -38 -86 -38v569zM158 373
v-314q40 -35 109 -35q55 0 96 52.5t41 145.5q0 88 -33 143t-86 55q-84 0 -127 -47z" />
    <glyph glyph-name="uni1E06" unicode="&#x1e06;" horiz-adv-x="557" 
d="M107 -92h264v-44h-264v44zM196 290v-256h85q140 0 140 136q0 47 -35 83.5t-117 36.5h-73zM196 551v-232h41q140 0 140 127q0 105 -152 105h-29zM41 0v21q54 0 63 20v503q-9 20 -63 20v21h184q125 0 188.5 -41t63.5 -97q0 -102 -106 -138q75 -17 112.5 -55.5t37.5 -82.5
q0 -76 -60.5 -123.5t-179.5 -47.5h-240z" />
    <glyph glyph-name="uni1E07" unicode="&#x1e07;" horiz-adv-x="538" 
d="M110 -92h264v-44h-264v44zM68 559q-62 5 -63 5v23q19 0 74.5 21.5t78.5 21.5v-223q49 47 137 47q33 0 65.5 -11.5t65 -36t53 -72.5t20.5 -112q0 -112 -62.5 -172t-163.5 -60q-72 0 -119 38q-55 -38 -86 -38v569zM158 373v-314q40 -35 109 -35q55 0 96 52.5t41 145.5
q0 88 -33 143t-86 55q-84 0 -127 -47z" />
    <glyph glyph-name="uni1E0C" unicode="&#x1e0c;" horiz-adv-x="610" 
d="M188 -102q0 21 15 36t36 15t36 -15t15 -36t-15 -36t-36 -15t-36 15t-15 36zM41 0v21q54 0 63 20v503q-9 20 -63 20v21h230q133 0 214 -80.5t81 -210.5t-79 -212t-204 -82h-242zM196 556v-522h87q32 0 62.5 14.5t58.5 43.5t45 81t17 120q0 130 -58.5 196.5t-136.5 66.5
h-75z" />
    <glyph glyph-name="uni1E0D" unicode="&#x1e0d;" horiz-adv-x="537" 
d="M202 -102q0 21 15 36t36 15t36 -15t15 -36t-15 -36t-36 -15t-36 15t-15 36zM363 430v129l-63 5v23q19 0 74.5 21.5t78.5 21.5v-569l63 -5v-23q-19 0 -74.5 -21.5t-78.5 -21.5v33q-48 -33 -120 -33q-33 0 -65.5 11.5t-65 36t-53 72.5t-20.5 112q0 112 62.5 172t163.5 60
q57 0 98 -24zM363 399q-36 21 -92 21q-55 0 -96 -53t-41 -145q0 -61 35.5 -129.5t83.5 -68.5q66 0 110 32v343z" />
    <glyph glyph-name="uni1E0E" unicode="&#x1e0e;" horiz-adv-x="610" 
d="M101 -92h264v-44h-264v44zM41 0v21q54 0 63 20v503q-9 20 -63 20v21h230q133 0 214 -80.5t81 -210.5t-79 -212t-204 -82h-242zM196 556v-522h87q32 0 62.5 14.5t58.5 43.5t45 81t17 120q0 130 -58.5 196.5t-136.5 66.5h-75z" />
    <glyph glyph-name="uni1E0F" unicode="&#x1e0f;" horiz-adv-x="537" 
d="M115 -92h264v-44h-264v44zM363 430v129l-63 5v23q19 0 74.5 21.5t78.5 21.5v-569l63 -5v-23q-19 0 -74.5 -21.5t-78.5 -21.5v33q-48 -33 -120 -33q-33 0 -65.5 11.5t-65 36t-53 72.5t-20.5 112q0 112 62.5 172t163.5 60q57 0 98 -24zM363 399q-36 21 -92 21
q-55 0 -96 -53t-41 -145q0 -61 35.5 -129.5t83.5 -68.5q66 0 110 32v343z" />
    <glyph glyph-name="uni1E12" unicode="&#x1e12;" horiz-adv-x="610" 
d="M264 -38l94 -162h-26l-93 87l-93 -87h-26l94 162h50zM41 0v21q54 0 63 20v503q-9 20 -63 20v21h230q133 0 214 -80.5t81 -210.5t-79 -212t-204 -82h-242zM196 556v-522h87q32 0 62.5 14.5t58.5 43.5t45 81t17 120q0 130 -58.5 196.5t-136.5 66.5h-75z" />
    <glyph glyph-name="uni1E13" unicode="&#x1e13;" horiz-adv-x="537" 
d="M278 -38l94 -162h-26l-93 87l-93 -87h-26l94 162h50zM363 430v129l-63 5v23q19 0 74.5 21.5t78.5 21.5v-569l63 -5v-23q-19 0 -74.5 -21.5t-78.5 -21.5v33q-48 -33 -120 -33q-33 0 -65.5 11.5t-65 36t-53 72.5t-20.5 112q0 112 62.5 172t163.5 60q57 0 98 -24zM363 399
q-36 21 -92 21q-55 0 -96 -53t-41 -145q0 -61 35.5 -129.5t83.5 -68.5q66 0 110 32v343z" />
    <glyph glyph-name="uni1E14" unicode="&#x1e14;" horiz-adv-x="507" 
d="M214 800l72 -108h-26l-152 108h106zM130 678h264v-44h-264v44zM42 0v21q54 0 63 20v503q-9 20 -63 20v21h403v-97h-21q0 54 -20 63h-207v-230h140q20 9 20 63h21v-160h-21q0 54 -20 63h-140v-253h228q25 11 45 63h20l-24 -97h-424z" />
    <glyph glyph-name="uni1E15" unicode="&#x1e15;" horiz-adv-x="493" 
d="M199 800l74 -162h-26l-154 162h106zM120 573h264v-44h-264v44zM134 241q1 -84 48.5 -148.5t106.5 -64.5q87 0 140 66l24 -12q-29 -48 -75.5 -70t-122.5 -22q-38 0 -73 11.5t-69 38t-54 78.5t-20 124q0 88 54.5 148t151.5 60q106 0 158 -59.5t52 -149.5h-321zM135 272h222
q-6 72 -30.5 110t-85.5 38q-35 0 -67.5 -41t-38.5 -107z" />
    <glyph glyph-name="uni1E16" unicode="&#x1e16;" horiz-adv-x="507" 
d="M310 800h106l-152 -108h-26zM394 678v-44h-264v44h264zM42 0v21q54 0 63 20v503q-9 20 -63 20v21h403v-97h-21q0 54 -20 63h-207v-230h140q20 9 20 63h21v-160h-21q0 54 -20 63h-140v-253h228q25 11 45 63h20l-24 -97h-424z" />
    <glyph glyph-name="uni1E17" unicode="&#x1e17;" horiz-adv-x="493" 
d="M308 800h106l-154 -162h-26zM120 573h264v-44h-264v44zM134 241q1 -84 48.5 -148.5t106.5 -64.5q87 0 140 66l24 -12q-29 -48 -75.5 -70t-122.5 -22q-38 0 -73 11.5t-69 38t-54 78.5t-20 124q0 88 54.5 148t151.5 60q106 0 158 -59.5t52 -149.5h-321zM135 272h222
q-6 72 -30.5 110t-85.5 38q-35 0 -67.5 -41t-38.5 -107z" />
    <glyph glyph-name="uni1E1A" unicode="&#x1e1a;" horiz-adv-x="505" 
d="M334 -180q-22 0 -81.5 29.5t-73.5 29.5q-28 0 -39 -14.5t-11 -44.5h-19q0 112 76 112q22 0 82 -29.5t74 -29.5q28 0 39 14.5t11 44.5h19q0 -112 -77 -112zM41 0v21q54 0 63 20v503q-9 20 -63 20v21h403v-97h-21q0 54 -20 63h-207v-230h140q20 9 20 63h21v-160h-21
q0 54 -20 63h-140v-253h228q25 11 45 63h20l-24 -97h-424z" />
    <glyph glyph-name="uni1E1B" unicode="&#x1e1b;" horiz-adv-x="492" 
d="M336 -180q-22 0 -81.5 29.5t-73.5 29.5q-28 0 -39 -14.5t-11 -44.5h-19q0 112 76 112q22 0 82 -29.5t74 -29.5q28 0 39 14.5t11 44.5h19q0 -112 -77 -112zM134 241q1 -84 48.5 -148.5t106.5 -64.5q87 0 140 66l24 -12q-29 -48 -75.5 -70t-122.5 -22q-38 0 -73 11.5
t-69 38t-54 78.5t-20 124q0 88 54.5 148t151.5 60q106 0 158 -59.5t52 -149.5h-321zM135 272h222q-6 72 -30.5 110t-85.5 38q-35 0 -67.5 -41t-38.5 -107z" />
    </font>
</defs>
</svg>
